<?xml version="1.0" standalone="no"?>
<!DOCTYPE svg PUBLIC "-//W3C//DTD SVG 20010904//EN"
 "http://www.w3.org/TR/2001/REC-SVG-20010904/DTD/svg10.dtd">
<svg version="1.0" xmlns="http://www.w3.org/2000/svg"
 width="1201.000000pt" height="1600.000000pt" viewBox="0 0 1201.000000 1600.000000"
 preserveAspectRatio="xMidYMid meet">

<g transform="translate(0.000000,1600.000000) scale(0.100000,-0.100000)"
fill="#000000" stroke="none">
<path d="M9105 15898 c-20 -57 -59 -164 -87 -238 -46 -127 -89 -244 -138 -385
-12 -33 -26 -69 -31 -80 -5 -11 -36 -94 -69 -185 -129 -350 -213 -551 -234
-565 -12 -7 -70 -15 -141 -19 -116 -6 -142 -11 -304 -56 l-75 -20 -21 20 c-12
11 -28 20 -37 20 -20 0 -113 27 -153 45 -57 25 -70 28 -110 29 -22 1 -45 4
-50 8 -10 6 -47 -15 -46 -26 1 -3 1 -7 0 -8 -5 -17 -4 -48 3 -48 4 0 8 -4 8
-10 0 -5 -6 -10 -13 -10 -6 0 -18 -13 -25 -28 -9 -22 -19 -29 -43 -29 -21 0
-28 4 -25 14 4 9 -3 13 -19 13 -20 0 -25 5 -25 24 0 16 7 26 21 29 12 3 19 12
17 19 -3 9 -24 13 -67 13 -48 0 -65 4 -75 18 -7 9 -21 17 -30 17 -14 0 -16 5
-10 23 4 12 7 34 6 50 -1 15 2 27 8 27 5 0 10 -5 10 -10 0 -9 65 35 90 60 3 3
17 11 33 19 31 17 35 31 8 31 -33 0 -114 -50 -162 -102 l-48 -51 -113 -7
c-123 -8 -141 -13 -210 -59 -25 -17 -51 -31 -57 -31 -6 0 -11 -10 -11 -23 0
-12 -8 -27 -19 -34 -10 -6 -21 -28 -24 -47 -3 -20 -14 -49 -25 -64 -29 -41
-36 -71 -21 -99 12 -22 10 -27 -18 -53 l-31 -29 -7 37 c-4 20 -14 45 -22 55
-15 15 -15 19 1 36 16 17 16 19 -6 24 -12 4 -25 3 -28 -2 -10 -15 -60 -19 -71
-5 -16 19 -35 17 -85 -7 -28 -13 -46 -30 -52 -49 -6 -15 -8 -31 -5 -33 2 -3
-5 -10 -16 -17 -12 -6 -19 -16 -15 -21 3 -6 0 -9 -7 -8 -21 3 -79 -12 -85 -22
-11 -19 -51 -9 -64 17 -12 21 -12 27 0 34 7 4 19 6 27 3 7 -3 13 -1 13 5 0 5
-8 13 -17 17 -17 6 -17 7 1 20 16 12 18 22 12 72 -4 32 -10 61 -14 65 -13 13
-77 -11 -104 -39 -36 -38 -49 -76 -52 -152 -1 -46 2 -65 11 -68 30 -12 -24
-42 -88 -49 -35 -5 -66 -8 -69 -7 -12 3 -393 32 -485 38 -99 5 -341 25 -565
46 -63 5 -182 14 -265 19 -82 5 -170 12 -195 14 -50 6 -512 42 -720 56 -74 5
-207 16 -295 24 -88 9 -234 20 -325 25 -234 15 -445 31 -735 56 -247 22 -380
33 -555 45 -365 25 -535 39 -1145 90 -55 5 -181 14 -280 19 -99 6 -230 15
-291 21 -60 5 -118 10 -127 10 -15 0 -17 -14 -17 -125 0 -70 4 -125 9 -125 5
0 43 -4 83 -9 40 -5 147 -14 238 -21 91 -6 237 -17 325 -25 351 -31 415 -36
540 -46 72 -6 235 -18 363 -27 135 -10 236 -22 240 -28 4 -7 72 -14 167 -17
88 -4 198 -11 245 -17 47 -5 157 -14 245 -20 317 -20 663 -44 1010 -69 72 -6
173 -13 225 -16 52 -3 120 -8 150 -11 138 -12 634 -46 810 -54 196 -9 296 -16
381 -26 40 -5 48 -9 52 -31 2 -14 3 -33 0 -42 -4 -16 -80 -55 -113 -57 -8 -1
-33 -9 -54 -18 -26 -12 -51 -15 -73 -11 -18 3 -33 2 -32 -2 3 -20 -4 -21 -45
-9 -25 8 -47 11 -50 8 -14 -13 -3 -29 26 -37 17 -6 33 -15 35 -22 6 -16 -54
-46 -78 -40 -10 3 -41 -3 -69 -14 -28 -10 -66 -19 -85 -19 -38 0 -133 -42
-188 -84 -58 -44 -108 -65 -134 -55 -14 5 -23 5 -23 -1 0 -5 -10 -12 -22 -16
-12 -3 -56 -39 -98 -78 -41 -39 -90 -83 -108 -98 -17 -15 -32 -31 -32 -37 0
-6 -4 -11 -9 -11 -10 0 -39 -110 -40 -150 -1 -71 -10 -135 -20 -138 -14 -5
-14 -59 -1 -67 5 -3 10 -13 10 -21 0 -8 -4 -12 -10 -9 -5 3 -10 1 -10 -4 0 -6
7 -11 15 -11 8 0 15 -7 15 -16 0 -39 44 -191 61 -210 22 -23 25 -60 7 -68 -10
-3 -8 -9 5 -19 9 -8 17 -19 17 -25 0 -6 9 -17 20 -25 11 -7 21 -23 23 -35 2
-12 6 -25 10 -28 13 -13 7 -44 -15 -94 -13 -27 -29 -50 -35 -50 -7 0 -13 -11
-13 -24 0 -17 -7 -26 -24 -30 -17 -4 -26 -15 -31 -36 -6 -29 -25 -42 -25 -17
0 7 -7 4 -15 -7 -8 -11 -15 -15 -15 -8 0 6 -7 9 -15 6 -8 -4 -15 -10 -15 -16
0 -5 5 -6 10 -3 6 4 10 -12 10 -40 0 -29 -4 -44 -10 -40 -7 4 -8 -3 -4 -22 4
-15 7 -30 6 -33 0 -30 -4 -40 -17 -40 -14 0 -19 -11 -16 -37 3 -19 -14 -16
-34 7 -10 11 -14 20 -9 20 5 0 4 4 -2 8 -26 17 -66 171 -66 252 0 19 -5 44
-10 54 -9 17 -13 14 -34 -28 -13 -26 -24 -53 -23 -59 0 -7 4 -3 9 8 7 15 9 16
9 4 1 -9 -5 -22 -13 -28 -15 -13 -18 -49 -5 -66 15 -21 30 -149 20 -170 -5
-11 -12 -33 -16 -48 -4 -20 -10 -27 -20 -23 -9 3 -15 -1 -15 -9 0 -8 -3 -15
-8 -15 -12 0 -30 -68 -19 -79 5 -5 4 -31 -4 -67 -6 -33 -11 -99 -10 -149 1
-72 5 -93 20 -110 13 -14 18 -29 14 -48 -4 -22 1 -33 28 -57 29 -26 31 -30 14
-30 -12 0 -27 6 -34 13 -11 10 -11 8 -2 -10 6 -13 18 -23 26 -23 8 0 15 -4 15
-10 0 -13 -17 -13 -25 0 -9 15 -27 1 -21 -16 3 -8 0 -11 -10 -7 -9 3 -14 13
-11 24 6 24 -10 36 -51 37 l-33 1 38 -40 c21 -21 42 -39 47 -39 16 0 60 -55
62 -77 2 -13 8 -39 15 -58 12 -31 11 -36 -7 -51 -10 -8 -14 -17 -9 -20 6 -2 9
-19 7 -38 -5 -41 15 -58 24 -21 5 20 9 23 20 14 13 -11 19 -2 15 24 -2 14 12
7 37 -20 23 -26 24 -28 7 -32 -24 -4 -40 -21 -49 -49 -4 -12 -14 -22 -22 -22
-8 0 -14 -7 -14 -16 0 -8 5 -12 10 -9 18 11 11 -14 -10 -35 -19 -19 -28 -46
-12 -36 4 2 15 -1 24 -8 18 -13 19 -12 -48 -61 -15 -11 -15 -14 1 -49 10 -21
18 -43 17 -50 -1 -6 -4 -28 -7 -50 -3 -21 -1 -44 5 -51 7 -9 7 -15 1 -19 -6
-4 -4 -17 5 -34 7 -15 14 -33 14 -40 0 -7 7 -15 15 -18 8 -4 15 -10 15 -15 0
-4 -7 -5 -17 -2 -18 7 -13 -7 15 -40 8 -9 12 -20 9 -23 -4 -4 0 -19 7 -33 8
-14 17 -33 21 -41 11 -28 32 -61 39 -61 18 2 19 -1 1 -9 -18 -8 -19 -9 -1 -9
11 -1 16 -6 13 -15 -3 -7 -2 -17 3 -22 5 -5 11 -27 14 -49 3 -22 13 -60 22
-85 9 -25 18 -79 19 -120 2 -76 19 -150 35 -150 5 0 11 -9 15 -20 3 -11 19
-27 35 -37 16 -9 27 -20 25 -23 -2 -4 15 -22 38 -42 23 -19 51 -53 62 -74 11
-21 23 -42 28 -45 4 -3 8 -31 10 -62 2 -47 -2 -59 -20 -76 -24 -23 -43 -27
-43 -10 0 6 -6 9 -14 6 -8 -3 -20 1 -27 9 -7 8 -19 13 -28 12 -18 -4 -18 -47
1 -138 7 -30 12 -68 12 -85 1 -18 6 -29 14 -27 6 1 12 -4 12 -12 0 -10 11 -5
32 15 18 16 38 29 45 29 7 0 22 5 33 12 10 7 21 10 23 8 10 -11 -18 -110 -30
-110 -8 0 -13 -11 -13 -27 1 -26 2 -26 14 -10 11 14 15 15 25 3 9 -11 7 -15
-13 -18 -13 -3 -31 -1 -40 4 -14 8 -16 2 -16 -37 0 -34 -4 -45 -16 -45 -8 0
-12 -5 -9 -10 4 -6 14 -9 22 -8 9 2 18 -3 21 -11 3 -10 -1 -12 -17 -8 -20 5
-22 3 -16 -24 5 -23 2 -34 -11 -44 -11 -7 -23 -11 -28 -8 -5 4 -6 -6 -2 -22 5
-19 3 -31 -6 -37 -11 -6 -11 -10 0 -17 9 -6 13 -32 13 -87 -1 -117 0 -124 15
-124 12 0 12 -4 4 -20 -17 -32 -7 -74 18 -78 27 -4 28 -19 2 -47 -17 -18 -19
-27 -10 -49 5 -15 10 -38 10 -52 0 -14 6 -27 12 -29 7 -3 14 -17 15 -32 1 -25
19 -46 47 -56 8 -3 7 -8 -1 -18 -20 -21 -15 -32 12 -27 17 4 25 1 25 -9 0 -10
6 -13 16 -9 9 3 20 6 25 6 12 0 12 47 0 55 -6 3 -10 22 -11 43 -3 73 -5 90
-12 85 -5 -2 -9 44 -10 104 0 59 -3 122 -5 138 -3 17 -6 103 -6 193 -1 89 -5
162 -9 162 -5 0 -8 7 -8 15 0 8 4 15 9 15 4 0 7 13 5 30 -2 16 1 32 6 35 5 3
7 27 5 53 -4 36 -3 42 5 27 9 -19 10 -18 8 5 0 14 2 32 5 40 13 36 14 70 1 70
-16 0 -19 16 -4 25 6 3 10 15 10 26 0 10 4 19 9 19 21 0 48 123 56 246 2 46
14 95 36 149 4 11 11 39 14 62 4 24 11 45 16 49 5 3 9 20 9 38 0 18 3 36 7 40
4 3 8 14 9 24 6 50 47 221 59 245 8 15 12 34 9 41 -3 8 -1 17 5 21 6 3 11 19
11 34 0 16 6 34 14 40 8 7 21 36 30 64 52 176 56 194 69 312 7 65 34 145 58
177 16 20 29 43 29 51 0 7 10 23 23 34 34 31 57 62 57 77 0 8 6 27 14 43 41
80 48 105 37 130 -6 13 -8 29 -5 35 4 6 8 37 9 69 2 47 -1 59 -13 59 -13 0
-12 3 3 13 10 8 15 19 11 26 -4 6 -3 17 2 24 5 7 15 30 22 52 7 21 26 57 41
79 16 21 29 43 29 48 0 5 11 24 25 42 14 18 25 40 25 49 0 9 8 21 19 26 11 6
19 21 19 36 0 16 8 33 21 42 14 9 20 21 16 33 -3 10 -1 21 5 25 6 3 10 -3 10
-15 0 -12 4 -18 11 -15 6 4 8 13 5 21 -7 19 4 18 19 -3 11 -15 14 -14 30 10 9
15 26 27 36 27 10 0 35 16 55 35 19 19 43 35 53 35 9 0 21 4 27 9 5 5 34 7 64
4 l56 -5 -1 -39 c-1 -44 10 -52 19 -14 8 32 31 32 52 -1 13 -20 23 -24 41 -19
15 3 22 2 19 -4 -4 -5 13 -23 36 -39 57 -40 118 -97 118 -111 0 -6 5 -11 10
-11 6 0 10 -6 10 -13 0 -8 18 -39 40 -71 22 -31 40 -61 40 -66 0 -6 4 -10 10
-10 5 0 7 -7 4 -14 -3 -8 4 -25 15 -37 12 -13 21 -26 21 -30 0 -4 10 -9 23
-11 14 -2 22 -10 22 -23 0 -25 61 -105 81 -105 8 0 14 -6 14 -14 0 -8 16 -30
36 -50 31 -31 41 -36 67 -30 19 4 27 3 23 -4 -3 -6 3 -17 15 -25 11 -8 20 -23
19 -34 -4 -34 0 -38 34 -39 19 0 41 -8 51 -17 9 -9 28 -20 43 -24 15 -3 40
-19 57 -35 16 -15 39 -28 50 -28 27 0 44 -13 59 -41 6 -13 19 -25 28 -27 9 -2
37 -23 63 -48 26 -24 53 -44 60 -44 7 0 16 17 21 38 4 22 9 30 11 20 3 -10 13
-18 23 -18 10 0 30 -13 43 -30 20 -23 34 -30 61 -30 22 0 36 5 36 13 1 19 71
47 118 47 23 0 42 5 42 10 0 12 77 14 82 2 2 -5 20 -12 41 -15 28 -4 37 -2 37
9 0 8 5 14 11 14 5 0 7 -4 4 -10 -4 -6 7 -10 25 -10 18 0 29 4 25 10 -3 6 -1
10 4 10 6 0 11 -9 11 -20 0 -17 3 -19 19 -10 11 5 29 10 40 10 12 0 21 6 21
14 0 16 32 26 60 19 11 -3 20 -12 20 -19 0 -9 12 -14 34 -14 24 0 36 -5 39
-17 4 -17 5 -17 6 0 1 24 16 21 29 -7 6 -13 20 -27 31 -31 12 -3 21 -11 21
-16 0 -5 64 -9 150 -9 127 0 150 2 150 15 0 11 12 15 49 15 42 0 53 -4 82 -35
23 -23 43 -35 62 -35 16 0 51 -10 78 -21 47 -20 49 -23 49 -60 0 -28 4 -39 15
-39 16 0 19 -20 9 -57 -5 -19 -13 -23 -45 -23 -30 0 -42 -6 -56 -26 -32 -46
-69 -80 -81 -76 -7 2 -16 -7 -22 -20 l-9 -23 -7 23 c-5 19 -13 22 -55 22 -27
0 -49 -4 -49 -9 0 -4 -24 -11 -52 -14 -59 -6 -110 -25 -102 -38 3 -5 -2 -6
-11 -3 -8 4 -22 0 -31 -7 -14 -12 -20 -9 -39 15 -19 24 -28 27 -50 22 -32 -8
-55 -29 -55 -48 0 -7 -9 -21 -20 -31 -11 -9 -17 -23 -14 -32 4 -8 1 -15 -6
-15 -6 0 -8 5 -5 10 3 6 1 10 -4 10 -6 0 -11 -3 -11 -8 0 -4 -10 -14 -22 -21
-26 -16 -138 -23 -138 -8 0 5 -17 7 -40 4 -22 -3 -40 -1 -40 3 0 5 -18 1 -40
-8 -22 -9 -40 -23 -40 -29 0 -7 -9 -13 -20 -13 -11 0 -20 -7 -20 -15 0 -8 -9
-20 -20 -27 -23 -14 -26 -34 -7 -41 7 -3 5 -6 -5 -6 -10 -1 -18 -5 -18 -11 0
-5 -9 -10 -20 -10 -15 0 -22 9 -27 30 -5 30 -23 52 -23 30 0 -6 -5 -8 -10 -5
-6 4 -8 10 -5 14 2 5 -4 16 -15 26 -11 10 -20 23 -20 29 0 13 -51 46 -72 46
-7 0 -31 19 -53 41 -27 28 -46 39 -59 35 -11 -3 -24 1 -30 9 -6 8 -27 16 -46
17 -19 1 -53 9 -75 18 -22 9 -45 15 -51 13 -7 -2 -20 7 -31 21 -17 22 -26 24
-87 22 -53 -2 -72 2 -88 16 -24 21 -30 22 -45 7 -8 -8 -15 -5 -25 9 -14 20
-15 20 -54 3 -47 -21 -132 -15 -158 12 -11 10 -33 17 -56 17 -30 0 -46 7 -69
31 -31 31 -32 31 -70 16 -41 -17 -76 -13 -103 11 -12 10 -21 12 -30 5 -7 -6
-24 -9 -38 -8 -14 1 -31 -2 -38 -8 -8 -7 -16 -7 -20 -1 -9 11 -112 13 -112 1
0 -5 -9 -5 -20 -2 -14 5 -20 2 -20 -9 0 -20 -9 -20 -24 -2 -17 21 -175 -3
-206 -32 -13 -12 -27 -19 -32 -16 -5 3 -16 0 -24 -7 -8 -7 -35 -13 -59 -14
-28 -2 -78 -20 -141 -50 -100 -49 -164 -103 -258 -219 -38 -47 -38 -47 -17
-62 24 -17 28 -44 7 -44 -20 0 -26 -50 -9 -77 8 -12 13 -30 9 -38 -3 -10 1
-15 13 -15 10 0 21 -7 25 -15 3 -8 12 -12 20 -9 8 3 17 1 20 -4 3 -5 25 -4 53
3 28 7 55 9 64 4 9 -4 19 -6 22 -3 3 3 23 6 45 7 22 1 44 5 48 10 14 14 46 8
40 -8 -6 -18 2 -45 15 -45 5 0 9 14 9 30 0 27 3 30 30 30 24 0 30 -4 30 -21 0
-12 4 -17 11 -14 6 4 8 13 5 21 -5 14 10 19 47 16 9 -1 17 3 17 8 0 18 43 27
95 21 53 -7 83 4 118 44 14 17 16 17 11 3 -5 -15 0 -18 32 -19 91 -2 212 -25
231 -45 9 -9 24 -12 39 -8 15 4 24 2 22 -4 -2 -6 5 -17 14 -24 30 -23 10 -68
-37 -85 -76 -27 -304 -22 -313 6 -2 6 -8 11 -13 11 -6 0 -7 -5 -3 -11 7 -13
-15 -31 -29 -22 -4 2 -3 11 3 18 21 25 -7 25 -36 0 -33 -28 -52 -32 -60 -11
-4 11 -12 12 -35 4 -16 -6 -39 -8 -50 -5 -14 4 -23 -1 -29 -16 -7 -20 -9 -20
-15 -4 -10 24 -24 21 -31 -8 -3 -14 -10 -22 -15 -19 -5 3 -9 0 -9 -7 0 -10 -3
-10 -11 -2 -9 9 -21 5 -48 -16 -35 -28 -106 -51 -155 -51 -39 0 -60 -41 -63
-122 -1 -37 -5 -73 -8 -79 -4 -5 0 -18 8 -27 9 -9 17 -21 19 -27 2 -5 14 -11
28 -11 76 -4 104 -3 182 5 4 1 10 10 13 21 3 11 12 20 20 20 7 0 15 7 19 15 4
12 10 13 33 3 56 -24 56 -24 25 -85 -16 -30 -15 -36 3 -29 9 3 18 -1 21 -9 4
-8 13 -15 21 -15 8 0 17 -9 20 -20 3 -11 10 -20 15 -20 5 0 6 -9 3 -20 -4 -12
-2 -20 5 -20 7 0 10 -6 7 -14 -3 -8 -1 -17 6 -20 9 -5 9 -7 -1 -12 -10 -5 -10
-9 -1 -20 9 -11 15 -12 26 -2 12 10 17 9 24 -3 4 -9 23 -16 40 -17 17 0 37 -6
42 -11 6 -6 27 -11 47 -11 19 0 44 -6 55 -13 11 -7 31 -14 44 -15 13 0 27 -6
31 -13 9 -14 92 -30 103 -20 4 4 59 6 122 4 92 -2 115 0 115 11 0 17 59 29 94
20 16 -4 26 -13 26 -24 0 -26 24 -31 71 -15 23 8 52 15 65 15 13 0 24 5 24 10
0 6 13 10 28 10 16 0 32 3 36 8 11 10 56 10 56 -1 0 -5 7 -1 16 7 8 9 29 16
46 16 41 0 81 24 151 93 32 31 67 57 77 57 21 0 80 89 80 120 0 11 4 20 9 20
5 0 12 13 16 30 4 16 15 36 25 43 10 7 20 24 22 37 2 17 9 25 21 24 9 -1 17 4
17 12 0 8 10 14 24 14 19 0 25 6 28 27 2 15 12 32 23 38 11 5 20 19 20 30 0
12 11 25 28 33 15 7 27 17 27 23 0 5 9 9 20 9 12 0 20 7 20 16 0 12 6 15 25
10 14 -4 25 -2 25 4 0 19 21 10 51 -22 23 -26 28 -39 23 -60 -6 -29 4 -36 22
-18 6 6 19 8 28 4 11 -4 14 -9 7 -14 -7 -4 7 -19 34 -39 42 -30 45 -35 45 -77
0 -35 4 -44 18 -45 13 0 11 -3 -6 -9 -19 -8 -21 -13 -12 -29 5 -11 15 -23 21
-27 8 -4 7 -9 -1 -14 -13 -8 1 -53 46 -157 8 -17 14 -48 14 -68 0 -43 16 -78
32 -69 8 5 9 -1 5 -17 -4 -16 0 -30 15 -46 12 -13 22 -41 26 -70 3 -26 9 -51
14 -54 5 -3 4 -18 -2 -34 -14 -37 9 -115 34 -115 6 0 17 -18 24 -41 15 -47 38
-76 45 -56 3 9 8 8 22 -3 17 -14 18 -13 11 15 -4 17 -14 35 -22 41 -30 24 -16
43 34 46 26 2 46 8 45 13 -1 6 -3 17 -5 25 -2 11 6 15 32 15 30 0 35 3 38 26
3 22 10 28 36 33 18 4 40 4 49 0 10 -3 21 2 29 15 8 13 24 21 43 22 16 0 24 3
18 6 -21 8 -15 29 13 42 32 14 80 -3 87 -31 4 -14 15 -18 51 -18 35 0 48 -4
56 -20 6 -11 15 -18 19 -15 5 3 11 -2 14 -10 3 -7 25 -19 49 -25 24 -6 67 -22
95 -35 29 -14 59 -22 68 -19 8 4 15 1 15 -5 0 -6 17 -11 39 -11 23 0 41 -5 44
-12 3 -10 8 -10 21 1 13 11 20 11 28 3 7 -7 37 -12 68 -12 45 0 70 -7 134 -40
46 -23 92 -40 112 -40 19 0 34 -3 34 -7 0 -12 59 -43 80 -43 9 0 23 -7 30 -15
7 -8 21 -15 30 -15 10 0 21 -6 23 -12 4 -10 6 -10 6 0 1 6 11 12 22 12 18 0
20 -4 14 -22 -4 -13 -12 -68 -17 -123 -13 -138 -40 -194 -77 -161 -21 19 -31
20 -31 4 0 -6 -18 -29 -40 -50 -44 -44 -47 -48 -25 -48 11 0 15 -11 15 -40 0
-29 -4 -40 -15 -40 -8 0 -15 5 -15 12 0 6 -2 9 -5 7 -10 -10 8 -47 25 -52 13
-3 20 -18 25 -53 3 -27 12 -71 20 -98 21 -70 20 -136 -2 -136 -17 -1 -17 -1 0
-14 9 -7 17 -25 17 -40 0 -16 5 -26 15 -26 8 0 15 -4 15 -9 0 -5 -7 -16 -15
-25 -17 -17 -20 -46 -5 -46 6 0 10 -18 10 -40 0 -29 -4 -40 -15 -40 -13 0 -16
-17 -14 -107 1 -60 6 -114 12 -120 7 -9 5 -13 -7 -13 -11 0 -16 -9 -16 -29 0
-17 -11 -41 -30 -62 -24 -26 -30 -41 -26 -64 3 -16 2 -24 -1 -17 -9 23 -22 12
-29 -25 -4 -21 -10 -40 -13 -43 -3 -3 -15 -22 -25 -42 -11 -21 -23 -38 -28
-38 -4 0 -8 -12 -8 -27 0 -16 -9 -41 -19 -57 -11 -16 -17 -34 -15 -41 7 -18
-27 -42 -68 -48 -29 -4 -38 -2 -38 9 0 8 -9 14 -21 14 -17 0 -20 5 -16 21 4
15 -1 23 -19 31 -19 9 -24 19 -24 49 0 45 -6 49 -64 51 -38 0 -45 4 -50 24 -4
15 -14 24 -26 24 -13 0 -22 9 -26 25 -3 14 -10 25 -15 25 -5 0 -9 11 -9 24 0
15 -12 34 -31 50 -21 18 -30 33 -26 45 3 13 -3 22 -19 30 -13 6 -24 15 -24 20
0 6 -21 31 -46 57 -37 39 -54 49 -92 55 -26 3 -50 3 -53 -2 -3 -5 -14 -2 -25
6 -10 8 -27 15 -36 15 -10 0 -18 4 -18 8 0 4 -18 19 -40 32 -22 14 -40 28 -40
33 0 4 -13 7 -30 7 -22 0 -37 10 -61 40 -18 22 -41 40 -51 40 -12 0 -18 7 -18
24 0 13 -8 27 -17 31 -17 6 -17 7 0 16 19 11 23 29 6 29 -5 0 -7 -4 -4 -10 3
-6 -3 -10 -14 -10 -27 0 -26 12 4 48 14 17 25 34 25 40 0 5 6 15 14 21 28 23
26 63 -5 92 -16 15 -29 31 -29 36 0 6 -9 18 -20 28 -11 10 -20 25 -20 35 0 9
-14 21 -33 28 -18 7 -42 20 -53 31 -18 17 -56 28 -110 34 -11 1 -28 10 -38 19
-30 31 -108 16 -157 -28 -14 -13 -30 -24 -36 -24 -6 0 -16 -7 -23 -15 -7 -8
-21 -15 -32 -15 -10 0 -17 -4 -14 -9 4 -5 -3 -7 -13 -4 -13 3 -21 -2 -26 -16
-3 -12 -15 -21 -26 -21 -11 0 -19 -7 -19 -17 -1 -16 -2 -16 -13 -3 -17 21 -57
25 -57 6 0 -18 -16 -21 -25 -6 -3 6 -14 10 -25 10 -10 0 -21 7 -24 16 -4 9 -9
14 -12 11 -3 -3 -22 6 -41 19 -19 13 -39 21 -44 18 -5 -3 -9 2 -9 10 0 10 -6
13 -15 10 -8 -4 -15 -1 -15 5 0 6 -11 16 -25 21 -13 5 -27 20 -31 34 -3 14
-11 23 -18 20 -7 -3 -26 2 -42 11 -16 8 -39 15 -51 15 -12 0 -23 5 -25 11 -3
9 -11 8 -28 -1 -28 -15 -43 -18 -150 -31 -93 -11 -142 -22 -138 -31 2 -4 -7
-15 -19 -23 -28 -19 -30 -45 -5 -52 14 -3 18 -11 14 -28 -5 -27 -13 -31 -89
-40 -29 -4 -53 -11 -53 -15 0 -5 -8 -10 -17 -12 -29 -7 83 -59 136 -64 25 -2
85 -11 133 -20 75 -14 92 -20 113 -46 21 -25 37 -63 18 -45 -3 4 -16 -4 -29
-18 -13 -14 -36 -26 -55 -27 -17 -1 -37 -10 -43 -20 -6 -10 -19 -18 -29 -18
-10 0 -16 -4 -13 -9 3 -5 -10 -12 -29 -15 -21 -4 -35 -13 -35 -21 0 -8 4 -15
10 -15 5 0 7 -7 4 -15 -4 -8 -11 -15 -16 -15 -6 0 -8 7 -5 15 4 8 1 17 -5 21
-6 4 -8 3 -4 -4 3 -6 2 -13 -4 -17 -5 -3 -10 -18 -11 -33 l-1 -27 -7 25 -7 25
-8 -28 c-4 -19 -12 -27 -21 -23 -17 6 -30 -10 -15 -19 17 -11 11 -20 -16 -21
-35 -3 -37 -7 -19 -40 14 -28 14 -29 -9 -32 -14 -2 -27 -11 -29 -20 -3 -12 -5
-11 -6 5 -1 28 -18 38 -36 23 -8 -7 -22 -9 -31 -6 -10 4 -25 -2 -39 -16 -39
-41 -64 -58 -70 -48 -4 6 -3 10 2 11 4 1 -3 5 -17 9 -34 11 -98 12 -104 2 -3
-5 -33 -9 -68 -9 -47 -1 -68 4 -87 18 -32 26 -40 24 -53 -11 -8 -25 -13 -28
-24 -19 -11 9 -16 6 -25 -20 -6 -17 -17 -31 -23 -31 -7 0 -21 -9 -31 -20 -10
-12 -25 -18 -32 -16 -14 6 -29 -36 -18 -53 3 -6 0 -11 -7 -11 -11 0 -58 -60
-58 -75 0 -3 9 -5 20 -5 16 0 19 -5 14 -29 -5 -24 -2 -30 16 -36 16 -5 20 -12
16 -28 -3 -12 -6 -32 -6 -44 0 -17 -6 -23 -21 -23 -11 0 -17 -4 -14 -10 3 -5
1 -35 -4 -65 -11 -61 -7 -85 16 -85 10 0 14 -7 10 -20 -5 -18 17 -40 46 -46 4
-1 10 -2 13 -3 3 0 -2 -11 -10 -23 -9 -12 -16 -33 -16 -45 0 -14 -6 -23 -15
-23 -8 0 -15 -8 -15 -18 0 -21 -32 -62 -48 -62 -12 0 -24 -42 -14 -50 13 -8 9
-114 -4 -127 -7 -7 -13 -40 -13 -74 0 -49 -4 -66 -21 -84 l-22 -23 -49 20
c-27 12 -49 27 -49 35 0 9 -6 13 -15 9 -8 -3 -15 -1 -15 4 0 6 -7 10 -15 10
-8 0 -15 6 -15 13 0 8 -4 7 -10 -3 -8 -13 -10 -13 -10 2 0 26 -54 80 -72 73
-18 -7 -34 10 -18 20 15 9 2 25 -21 25 -10 0 -19 6 -19 14 0 18 -27 29 -33 13
-3 -9 -7 -9 -17 0 -11 10 -11 15 0 28 11 13 8 15 -18 15 -26 0 -29 3 -24 22 4
15 2 19 -7 14 -8 -6 -11 -2 -9 10 2 13 -4 20 -19 22 -13 2 -23 8 -23 13 0 9
-31 45 -92 109 -16 15 -28 33 -28 38 0 6 -17 8 -40 6 -39 -3 -40 -3 -34 21 5
20 3 24 -9 19 -9 -3 -18 -12 -21 -20 -3 -9 -10 -12 -16 -9 -5 3 -10 -1 -10 -9
0 -9 -4 -16 -8 -16 -16 0 -33 -70 -33 -141 -2 -149 11 -455 20 -488 6 -19 14
-75 17 -125 8 -112 8 -108 17 -123 5 -7 5 -17 2 -23 -3 -5 -3 -15 1 -21 4 -7
7 -42 8 -80 1 -37 4 -71 9 -75 4 -4 7 -19 7 -34 0 -14 4 -30 10 -36 5 -5 12
-40 15 -78 2 -37 7 -72 11 -77 5 -8 13 -69 16 -119 0 -8 4 -19 8 -25 17 -24
31 -119 33 -232 1 -66 5 -119 9 -117 10 6 18 -51 17 -121 -1 -33 1 -85 3 -115
3 -30 1 -84 -3 -119 -5 -36 -5 -67 -1 -70 9 -6 18 -41 29 -111 8 -48 8 -78 0
-125 -4 -22 -4 -34 -1 -27 12 26 22 10 28 -50 4 -34 14 -77 21 -95 8 -18 11
-33 7 -33 -4 0 1 -5 10 -11 12 -7 24 -6 37 1 11 5 29 10 40 10 24 0 111 -80
111 -102 0 -9 7 -21 15 -28 8 -7 15 -24 15 -39 0 -14 7 -35 15 -45 8 -11 15
-28 15 -37 0 -10 6 -22 13 -26 8 -4 22 -20 31 -35 10 -15 26 -30 37 -33 22 -7
26 -35 4 -35 -8 0 -15 5 -15 10 0 6 -16 10 -35 10 -19 0 -35 -4 -35 -10 0 -5
-6 -10 -14 -10 -20 0 -12 -64 13 -99 12 -16 21 -35 21 -43 1 -40 55 -63 80
-34 16 20 32 12 54 -28 18 -34 113 -91 166 -99 20 -4 19 -5 -7 -6 -22 -1 -33
-6 -33 -16 0 -19 76 -21 83 -2 7 19 16 4 19 -32 1 -18 8 -36 15 -38 10 -4 11
-9 3 -18 -8 -10 -6 -15 9 -20 12 -3 21 -11 21 -16 0 -6 5 -7 10 -4 6 3 10 1
10 -4 0 -6 6 -11 14 -11 7 0 24 -10 37 -23 13 -13 42 -34 64 -47 22 -14 58
-44 81 -68 35 -37 47 -44 83 -45 30 -2 41 -6 40 -17 -5 -51 4 -80 31 -111 16
-19 32 -42 36 -51 3 -10 12 -18 20 -18 8 0 13 -4 9 -9 -3 -6 4 -15 15 -21 14
-8 20 -21 20 -48 0 -21 11 -54 25 -77 14 -22 25 -46 25 -54 0 -8 8 -23 18 -34
15 -17 17 -45 15 -292 -1 -225 1 -275 13 -279 7 -3 11 -12 8 -21 -4 -10 0 -15
10 -15 9 0 16 -8 16 -19 0 -10 7 -24 14 -31 23 -19 46 -108 35 -137 -12 -32
-11 -36 2 -27 9 5 10 -1 5 -21 -5 -18 -3 -31 5 -35 6 -4 8 -13 4 -20 -6 -9 -9
-9 -16 1 -6 9 -9 10 -9 2 0 -13 27 -43 39 -43 4 0 8 -14 9 -31 0 -17 5 -36 10
-42 5 -7 13 -40 17 -75 6 -49 11 -65 29 -74 11 -6 23 -12 26 -12 3 -1 4 -7 3
-15 -1 -7 7 -23 18 -35 11 -11 26 -41 33 -67 8 -25 21 -60 30 -78 12 -22 14
-43 10 -72 -5 -31 -3 -45 8 -53 8 -6 18 -18 22 -26 12 -25 31 -57 43 -72 6 -7
13 -31 15 -53 3 -35 0 -40 -19 -43 -15 -2 -23 2 -23 11 0 8 -7 20 -15 27 -11
9 -14 22 -10 42 6 24 3 28 -14 28 -25 0 -28 20 -3 20 14 1 14 3 -6 19 -12 11
-22 26 -22 33 0 8 -11 25 -25 38 -14 13 -25 29 -25 37 0 7 -9 22 -19 32 -27
27 -41 56 -41 83 0 33 -38 99 -86 150 -23 24 -45 54 -48 66 -4 12 -13 22 -20
22 -8 0 -12 9 -9 23 3 14 -2 29 -11 36 -9 8 -16 22 -16 32 0 11 -4 19 -9 19
-5 0 -7 9 -4 20 3 12 -1 22 -10 26 -9 3 -19 18 -22 34 -3 16 -12 34 -19 39 -8
6 -19 33 -25 59 -7 26 -16 61 -21 77 -12 43 -25 127 -22 148 1 10 -2 26 -7 35
-5 9 -5 40 -1 67 4 28 4 51 -1 53 -5 2 -9 21 -9 43 0 21 -5 39 -10 39 -6 0 -8
10 -4 24 3 15 -2 39 -15 65 -23 44 -27 73 -15 109 6 21 4 23 -16 20 -13 -1
-25 3 -27 10 -3 7 5 12 21 12 24 0 25 2 14 20 -9 14 -10 25 -3 38 12 21 7 115
-5 107 -5 -3 -13 13 -16 35 -4 23 -14 50 -23 62 l-17 21 -28 -27 c-27 -24 -28
-27 -13 -49 10 -16 14 -41 12 -78 -2 -33 2 -62 10 -75 8 -13 14 -49 13 -85 0
-35 1 -86 2 -114 2 -46 2 -87 0 -132 -2 -39 13 -83 27 -83 13 0 13 -3 2 -16
-10 -13 -10 -22 1 -52 8 -20 15 -66 17 -102 3 -91 13 -154 27 -162 8 -6 7 -11
-4 -18 -13 -9 -12 -13 7 -28 18 -14 23 -28 25 -77 2 -41 8 -66 20 -79 10 -11
18 -25 18 -30 0 -14 55 -66 69 -66 6 0 11 -8 11 -19 0 -10 8 -21 19 -24 14 -3
20 -18 25 -59 4 -30 4 -67 0 -82 -4 -19 -2 -26 8 -26 8 0 14 -10 13 -27 0 -17
5 -27 13 -26 6 2 12 -4 12 -12 0 -8 4 -15 9 -15 10 0 22 -44 25 -93 1 -17 12
-38 24 -48 l22 -18 -22 -15 -22 -16 22 -16 c21 -15 32 -42 12 -29 -6 3 -7 -1
-4 -9 5 -13 -2 -16 -34 -16 -38 0 -41 2 -39 25 1 14 9 30 17 35 13 9 13 11 0
19 -8 6 -17 7 -20 3 -3 -4 -16 -7 -30 -7 -25 0 -25 -1 -23 -75 1 -42 6 -76 12
-78 6 -2 11 -10 11 -18 0 -9 -4 -13 -9 -9 -14 8 -33 -32 -26 -55 4 -11 14 -20
24 -20 12 0 24 -15 36 -42 20 -48 27 -98 14 -98 -5 0 -9 -7 -9 -16 0 -18 23
-44 39 -44 6 0 11 -16 11 -35 0 -38 -22 -69 -61 -89 -35 -18 -35 -36 0 -36 30
0 41 -13 21 -25 -5 -3 -10 -1 -10 4 0 6 -17 11 -37 11 -31 0 -44 7 -80 47 -31
33 -43 41 -43 29 0 -16 -2 -16 -16 -5 -13 10 -17 10 -24 -1 -7 -12 -12 -11
-28 3 -23 21 -29 21 -48 2 -9 -8 -22 -15 -31 -15 -15 0 -14 8 4 88 4 18 1 22
-20 22 -14 0 -31 9 -38 21 -8 11 -23 21 -34 23 -12 2 -21 12 -23 24 -3 19 0
21 27 16 31 -6 31 -6 31 35 0 40 -1 41 -34 41 -44 0 -67 25 -31 34 37 9 30 25
-15 32 -29 5 -40 11 -40 24 0 10 -6 20 -12 23 -10 3 -10 9 -1 28 6 13 14 34
16 47 4 18 2 22 -10 18 -16 -7 -43 10 -43 25 0 5 11 9 25 9 32 0 31 6 -4 39
-20 18 -28 35 -25 47 3 10 -2 28 -10 39 -14 18 -15 18 -16 3 0 -10 -6 -18 -14
-18 -19 0 -39 27 -32 45 3 9 -3 19 -14 25 -11 6 -20 19 -20 29 0 10 -3 21 -7
25 -4 3 -12 23 -19 43 -14 39 -9 52 26 80 13 10 12 14 -8 31 -12 11 -22 26
-22 33 0 8 -14 26 -30 41 -19 17 -30 36 -31 55 -1 29 -4 52 -14 90 -3 13 -6
26 -6 30 0 5 -6 15 -13 23 -6 8 -17 26 -23 40 -6 14 -18 40 -26 59 -8 19 -13
40 -10 47 2 6 -1 15 -7 19 -6 4 -8 15 -5 24 3 10 -1 37 -10 60 -8 24 -13 47
-10 51 3 5 -1 13 -10 17 -10 6 -16 28 -17 76 -2 37 -8 67 -13 67 -13 0 -45 89
-45 123 0 14 -5 29 -10 32 -6 3 -10 22 -10 41 0 19 -4 34 -10 34 -5 0 -10 14
-10 32 0 17 -6 39 -14 47 -14 17 -34 82 -43 138 -3 18 -9 33 -14 33 -5 0 -9 9
-9 20 0 29 -32 140 -41 140 -3 0 -10 20 -13 45 -6 34 -12 45 -25 45 -26 0 -33
11 -15 24 18 13 9 46 -12 46 -14 0 -19 39 -14 98 1 13 -5 31 -13 40 -8 9 -22
39 -31 66 -13 41 -14 56 -4 88 13 43 1 62 -34 54 -10 -2 -18 0 -18 5 0 5 7 9
15 9 19 0 19 14 0 30 -8 7 -15 27 -15 45 0 19 -5 35 -11 37 -8 3 -7 16 2 46
l12 43 28 -31 c15 -16 37 -30 48 -30 12 0 21 -4 21 -10 0 -5 9 -10 20 -10 23
0 27 18 5 26 -8 4 -15 18 -15 33 0 15 -12 44 -28 64 -24 33 -41 41 -79 40 -7
-1 -13 5 -13 13 0 8 -10 14 -23 14 -13 0 -32 6 -42 14 -11 8 -25 12 -32 9 -7
-3 -15 1 -18 9 -4 9 -21 13 -51 13 -25 0 -50 6 -56 12 -7 9 -24 11 -50 7 -34
-6 -43 -3 -63 19 -14 14 -38 28 -55 32 -16 4 -30 10 -30 14 0 14 -100 25 -200
24 -123 -2 -211 -27 -224 -65 -12 -34 15 -64 69 -73 22 -4 44 -10 50 -13 5 -3
26 -5 47 -3 35 2 69 -15 68 -36 0 -4 6 -8 13 -8 6 0 12 -11 12 -23 0 -13 9
-30 19 -38 19 -14 19 -14 1 -27 -20 -15 -12 -42 11 -33 8 3 11 0 7 -10 -3 -7
-9 -14 -13 -14 -17 0 15 -48 42 -63 23 -13 27 -21 22 -42 -7 -27 -6 -28 64
-25 32 1 42 -2 42 -14 0 -12 -10 -16 -40 -16 -31 0 -40 -4 -40 -17 0 -10 -3
-28 -6 -41 -6 -20 -3 -22 40 -22 42 0 46 -2 46 -24 0 -19 7 -25 35 -30 34 -7
76 -47 55 -54 -5 -2 -10 -13 -10 -24 0 -15 5 -18 19 -13 19 6 52 -7 79 -33 14
-13 32 -8 32 9 0 5 -5 9 -11 9 -20 0 -39 28 -39 58 0 25 -6 31 -40 42 -22 7
-40 19 -40 27 0 7 -6 13 -14 13 -8 0 -18 5 -22 12 -5 8 3 9 27 5 19 -3 28 -3
22 0 -8 3 -13 25 -13 58 0 48 -2 54 -22 57 -15 2 -24 11 -26 25 -2 13 -10 23
-18 23 -10 0 -14 12 -14 40 0 29 -4 40 -15 40 -8 0 -15 4 -15 9 0 16 27 20 46
7 11 -7 36 -13 56 -13 38 -1 84 -27 91 -53 4 -11 7 -9 12 8 9 28 41 29 48 1 3
-13 10 -18 17 -14 21 13 94 -89 74 -104 -14 -10 -11 -81 4 -81 6 0 12 -7 12
-15 0 -8 8 -23 18 -33 10 -10 18 -34 19 -60 0 -26 7 -48 17 -55 17 -13 36 -84
20 -75 -5 4 -7 -13 -5 -38 2 -35 7 -44 22 -44 15 0 19 -7 19 -34 0 -39 18 -96
31 -96 5 0 9 -7 9 -15 0 -8 5 -15 10 -15 6 0 10 -18 10 -40 0 -38 -13 -54 -23
-27 -3 8 -8 9 -15 2 -7 -7 -5 -15 6 -25 9 -8 19 -13 22 -10 3 3 6 -5 8 -17 2
-13 7 -23 12 -23 5 0 9 -8 9 -17 -1 -10 2 -27 6 -38 5 -17 0 -23 -29 -33 -30
-11 -39 -11 -60 3 -29 19 -39 44 -29 71 6 18 6 18 -10 2 -21 -21 -22 -57 -2
-64 18 -7 20 -24 2 -24 -20 0 -39 63 -28 93 7 17 6 38 -1 63 -18 61 -42 83
-51 47 -3 -14 -6 -11 -11 10 -5 15 -13 27 -19 27 -6 0 6 16 26 35 41 39 44 45
22 45 -8 0 -15 -7 -15 -15 0 -18 -12 -19 -28 -3 -18 18 -16 98 3 98 11 0 15
11 15 40 0 36 -3 40 -24 40 -13 0 -26 7 -30 15 -7 20 -45 19 -53 0 -5 -14 -8
-14 -24 1 -11 10 -19 12 -19 6 0 -7 -10 -22 -21 -33 l-22 -22 30 -26 c19 -17
30 -35 29 -51 -1 -19 4 -25 19 -25 11 0 36 -15 55 -32 33 -32 34 -34 16 -50
-14 -14 -20 -15 -23 -5 -4 10 -8 10 -19 1 -8 -6 -11 -15 -8 -20 3 -5 1 -25 -5
-44 -8 -31 -7 -35 10 -35 10 0 19 -7 19 -15 0 -12 -4 -13 -19 -6 -14 8 -22 7
-31 -4 -19 -22 5 -48 31 -34 15 7 19 6 19 -6 0 -8 -7 -15 -15 -15 -8 0 -19 -8
-24 -18 -8 -15 -3 -24 22 -48 68 -62 97 -69 97 -21 0 24 3 28 10 17 5 -8 10
-31 10 -51 0 -29 5 -38 27 -48 19 -9 29 -9 31 -2 9 26 22 8 22 -29 l0 -40 40
0 40 0 0 48 c0 61 -10 75 -44 66 -14 -3 -29 -10 -32 -15 -8 -13 -24 -11 -24 4
0 12 84 57 108 57 7 0 12 -15 12 -40 0 -44 12 -52 27 -18 l9 21 22 -23 c16
-18 22 -36 22 -71 0 -29 6 -51 15 -59 16 -13 21 -50 7 -50 -4 0 -14 -17 -21
-37 -8 -21 -19 -41 -25 -45 -6 -4 -29 12 -52 38 l-42 45 -68 -3 -69 -3 27 -26
c25 -24 28 -33 28 -92 0 -55 3 -68 19 -76 10 -6 21 -18 25 -27 5 -13 1 -16
-24 -12 l-31 5 6 -96 c3 -53 5 -110 5 -127 0 -23 6 -33 20 -37 26 -7 26 -27 0
-27 -28 0 -25 -28 2 -32 22 -3 23 -8 23 -86 0 -71 3 -86 19 -98 11 -7 17 -16
14 -19 -8 -9 -41 -9 -60 0 -14 5 -18 2 -18 -15 0 -16 4 -20 19 -15 11 3 22 1
26 -5 4 -6 -4 -10 -19 -10 -14 0 -26 -4 -26 -10 0 -5 16 -10 36 -10 35 0 74
-28 74 -52 0 -4 17 -8 38 -8 l37 -1 -34 -29 c-31 -27 -34 -34 -32 -78 1 -38
-3 -52 -19 -67 -11 -10 -21 -30 -21 -44 -1 -18 -3 -20 -6 -8 -3 10 -15 22 -28
27 -19 7 -25 19 -30 64 -5 38 -12 56 -21 56 -10 0 -14 13 -14 40 0 22 5 40 10
40 6 0 10 7 10 15 0 19 -19 19 -26 0 -4 -10 -20 -15 -45 -15 l-39 0 0 48 c0
26 -7 65 -14 87 -12 34 -21 43 -64 59 -47 19 -51 24 -68 75 -13 37 -27 59 -42
66 -15 7 -22 18 -22 37 l0 28 -80 0 c-86 0 -86 0 -81 -57 2 -25 -9 -29 -26
-12 -6 6 -17 8 -23 4 -9 -6 -9 -9 0 -15 17 -11 3 -31 -16 -23 -12 4 -15 15
-11 40 5 28 3 34 -9 29 -9 -3 -20 -6 -26 -6 -6 0 -8 -9 -5 -20 5 -18 0 -20
-57 -20 -54 0 -64 -3 -80 -25 -22 -30 -34 -31 -52 -7 -13 16 -13 16 -14 -3 0
-12 5 -26 12 -33 9 -9 8 -12 -5 -12 -10 0 -19 11 -23 28 -11 52 -18 57 -22 16
-2 -25 -11 -49 -23 -59 -18 -18 -19 -17 -19 18 0 21 -5 37 -11 37 -5 0 -7 5
-4 10 4 6 10 8 14 6 9 -6 36 40 45 75 3 15 14 29 25 32 39 10 46 197 9 244 -6
7 -8 26 -6 43 4 29 -5 40 -17 20 -4 -6 -11 -7 -17 -4 -14 9 24 26 86 40 15 4
41 20 57 35 l30 29 -26 24 c-14 13 -25 28 -25 35 0 9 -63 17 -94 12 -13 -3
-35 31 -36 54 0 11 -9 30 -20 43 -21 26 -90 43 -90 22 0 -8 -14 -11 -43 -9
-31 3 -47 -1 -60 -14 -18 -18 -18 -18 0 -17 33 4 43 0 43 -16 0 -11 -5 -14
-16 -10 -10 4 -26 -5 -44 -24 -21 -23 -37 -30 -64 -30 -35 0 -36 -1 -36 -40 0
-34 3 -40 21 -40 14 0 19 -5 17 -17 -2 -10 -11 -17 -20 -15 -8 1 -21 -5 -28
-13 -7 -9 -29 -15 -51 -15 -37 0 -39 2 -39 30 0 28 -2 30 -39 30 -22 0 -41 4
-43 9 -2 6 -17 6 -38 1 l-35 -8 38 -1 c26 -1 37 -5 37 -16 0 -13 -4 -14 -20
-5 -14 8 -26 8 -40 0 -18 -9 -20 -8 -20 15 0 15 -6 25 -15 25 -8 0 -17 11 -21
25 -4 14 -13 25 -23 25 -10 0 -23 14 -31 34 -9 25 -21 36 -44 41 -22 5 -26 9
-13 12 14 4 17 17 17 84 0 76 -3 85 -32 80 -10 -1 -10 7 1 47 8 25 7 32 -5 32
-8 0 -14 7 -14 15 0 8 -5 26 -12 40 l-12 26 -18 -23 c-17 -23 -18 -22 -19 52
0 41 -3 69 -6 63 -7 -20 -43 -16 -44 5 0 13 -2 14 -6 2 -4 -8 -12 -21 -20 -28
-7 -7 -13 -19 -13 -25 0 -7 4 -6 10 3 17 28 33 -5 31 -69 -1 -44 3 -61 12 -61
26 0 45 -52 40 -107 -6 -53 -5 -53 23 -54 l29 -1 -27 -11 c-21 -8 -28 -18 -28
-39 0 -18 -5 -28 -15 -28 -20 0 -20 -69 0 -96 19 -25 20 -108 0 -124 -8 -7
-13 -16 -10 -20 2 -4 -7 -22 -21 -41 -20 -27 -22 -35 -10 -37 8 -2 12 -10 9
-18 -3 -7 2 -17 11 -20 22 -8 20 -21 -4 -29 -16 -5 -20 -15 -20 -51 0 -24 5
-44 10 -44 6 0 10 18 10 40 0 22 5 40 10 40 6 0 10 -18 10 -41 0 -32 3 -40 14
-36 10 4 13 1 10 -8 -4 -8 8 -28 25 -46 17 -17 28 -35 25 -41 -4 -6 -10 -5
-15 3 -8 12 -11 11 -19 -1 -6 -10 -10 -11 -10 -2 0 16 -87 17 -92 0 -3 -8 -11
-9 -24 -3 -18 8 -18 9 4 12 14 3 22 12 22 24 0 22 -6 23 -40 4 -36 -21 -40
-19 -40 20 0 38 -5 42 -34 20 -26 -20 -46 -19 -46 2 0 11 -13 2 -40 -27 -22
-24 -40 -37 -40 -29 0 13 -93 69 -116 69 -16 0 -42 32 -44 55 -1 11 -2 39 -1
62 1 38 4 42 29 45 l27 3 -27 26 c-16 15 -28 31 -28 38 0 18 -81 13 -102 -6
-17 -15 -18 -15 -18 0 0 10 -4 17 -10 17 -5 0 -10 18 -10 40 0 22 -4 40 -10
40 -5 0 -10 -18 -10 -40 0 -22 5 -40 10 -40 6 0 10 -9 10 -19 0 -11 -4 -23
-10 -26 -5 -3 -10 1 -10 9 0 12 -10 16 -40 16 -22 0 -40 5 -40 10 0 6 -6 10
-13 10 -7 0 -17 10 -22 23 -6 12 -20 23 -32 25 -33 5 -29 32 5 33 86 4 114 8
126 19 9 7 15 7 18 1 2 -7 8 -7 18 -1 12 8 11 12 -8 30 -19 18 -23 19 -28 6
-3 -9 -15 -16 -25 -16 -10 0 -19 -7 -19 -15 0 -8 -4 -15 -10 -15 -29 0 9 53
48 64 18 6 22 15 22 47 0 32 -3 39 -20 39 -17 0 -20 7 -20 38 0 26 7 45 20 57
11 10 20 27 20 38 0 20 -1 20 -14 2 -8 -11 -19 -16 -30 -12 -21 8 -21 37 2 38
13 0 11 3 -7 12 -19 9 -25 9 -29 -1 -2 -8 -25 -12 -63 -12 -40 0 -58 4 -54 11
4 6 13 8 21 5 10 -4 14 4 14 29 0 34 1 35 40 35 l40 0 0 40 c0 27 -4 40 -14
40 -7 0 -20 10 -28 22 -12 18 -23 21 -66 19 -48 -2 -52 0 -52 21 -1 21 -2 21
-11 5 -7 -12 -7 -29 1 -55 7 -20 15 -49 20 -64 5 -17 4 -28 -1 -28 -6 0 -7 -5
-3 -12 11 -17 13 -68 3 -68 -5 0 -9 -7 -9 -15 0 -8 -7 -15 -15 -15 -8 0 -15
-4 -15 -10 0 -5 7 -10 15 -10 8 0 15 -6 15 -14 0 -9 12 -16 28 -18 l27 -3 -27
-26 c-25 -24 -28 -33 -28 -93 l0 -66 -39 0 c-39 0 -40 1 -46 42 -3 24 -5 54
-3 68 3 22 -2 25 -37 30 -22 4 -53 13 -70 22 -16 8 -51 19 -78 22 -44 7 -47 9
-47 37 0 26 -2 29 -19 19 -29 -15 -41 -12 -41 10 0 13 7 20 19 20 16 0 20 11
26 78 7 82 17 113 29 93 4 -6 2 -11 -3 -11 -7 0 -10 -30 -9 -82 1 -46 3 -64 5
-40 6 57 33 59 33 2 0 -22 5 -40 10 -40 6 0 10 18 10 40 0 22 5 40 10 40 6 0
10 19 11 43 1 40 1 41 11 14 11 -30 28 -27 28 4 0 28 23 19 31 -12 3 -14 11
-22 20 -20 8 2 32 5 54 5 54 2 62 9 62 56 0 43 -12 59 -30 41 -6 -6 -30 -11
-54 -11 -24 0 -43 -4 -43 -10 0 -19 -76 -11 -104 11 -17 13 -33 18 -46 14 -12
-4 -27 -2 -34 4 -20 17 -89 -59 -112 -122 -3 -9 -10 -17 -15 -17 -5 0 -9 -4
-9 -10 0 -11 -62 -103 -72 -108 -5 -2 -8 -12 -8 -23 0 -10 -4 -19 -9 -19 -12
0 -91 -78 -91 -90 0 -5 -9 -14 -21 -20 -11 -7 -27 -26 -34 -43 -7 -18 -27 -45
-44 -61 -17 -17 -31 -37 -31 -47 0 -9 -7 -19 -15 -23 -8 -3 -15 -9 -15 -14 0
-4 -20 -30 -45 -56 -24 -26 -50 -61 -57 -76 -9 -22 -15 -26 -25 -18 -10 8 -13
4 -13 -17 0 -24 -2 -26 -30 -20 -23 5 -30 3 -30 -9 0 -9 -4 -16 -10 -16 -5 0
-10 5 -10 10 0 15 -78 12 -83 -2 -3 -10 -13 -8 -41 6 -20 11 -36 23 -36 28 0
13 -56 68 -69 68 -6 0 -11 18 -11 40 0 33 -3 40 -20 40 -17 0 -20 7 -20 40 0
22 -4 40 -10 40 -5 0 -10 18 -10 40 0 36 -13 55 -22 30 -2 -6 -2 29 -1 77 1
51 -2 92 -9 100 -8 9 -7 17 3 29 7 9 12 38 11 70 -1 30 3 54 8 54 6 0 10 18
10 40 0 30 4 40 16 40 12 0 15 6 10 25 -4 17 -1 30 12 42 31 30 76 60 102 68
14 4 30 11 35 15 6 4 35 15 65 25 30 10 61 23 69 29 8 6 15 10 15 8 1 -2 14 1
29 7 16 6 36 11 46 11 9 0 34 9 56 20 22 11 45 20 52 20 7 0 13 4 13 9 0 5 33
13 73 19 50 8 77 17 88 30 18 22 71 52 93 52 8 0 27 5 43 12 15 6 31 12 35 12
8 1 106 69 148 103 55 45 168 91 270 110 14 2 60 19 103 36 84 34 137 78 237
197 30 35 66 74 80 85 14 11 32 27 40 35 9 8 47 42 85 75 39 33 86 76 105 96
19 20 64 55 99 77 35 23 77 58 94 78 18 20 55 50 84 66 29 16 82 61 118 100
66 72 97 126 117 208 21 88 72 158 126 175 23 7 134 91 140 107 2 4 9 8 16 8
24 0 141 95 144 117 3 20 2 21 -60 7 -82 -17 -98 -17 -98 2 0 8 -4 12 -10 9
-5 -3 -69 -7 -142 -9 -80 -2 -142 -8 -156 -15 -44 -23 -182 -69 -187 -61 -2 4
-26 13 -52 20 -27 6 -57 15 -68 20 -69 28 -101 45 -112 60 -7 10 -27 23 -45
31 -34 13 -78 53 -78 70 0 5 -6 12 -13 15 -8 3 -20 20 -27 39 -10 26 -20 35
-36 35 -13 0 -26 5 -30 11 -9 15 -103 6 -135 -13 -13 -7 -37 -23 -52 -35 -16
-13 -35 -23 -43 -23 -8 0 -14 -4 -14 -9 0 -5 -12 -14 -27 -20 -16 -7 -44 -20
-63 -31 -19 -10 -60 -21 -90 -24 -131 -13 -190 -16 -190 -9 0 4 -51 9 -112 9
-137 2 -183 6 -183 19 0 6 -8 31 -18 57 -17 44 -21 47 -45 42 -18 -4 -23 -3
-14 4 10 6 2 16 -29 36 l-42 28 5 -26 c6 -28 -1 -33 -21 -14 -10 11 -15 9 -25
-5 -13 -17 -106 -47 -146 -47 -10 0 -32 -11 -48 -25 -17 -14 -34 -25 -40 -25
-6 0 -20 -16 -32 -35 -12 -19 -28 -35 -35 -35 -7 0 -18 -13 -23 -29 -8 -24
-14 -28 -36 -24 -20 4 -25 10 -21 24 3 11 8 28 11 39 3 11 16 23 30 26 14 4
24 13 24 24 0 11 4 22 10 25 18 11 10 25 -14 25 -15 0 -26 -7 -29 -20 -7 -26
-33 -26 -40 0 -3 11 -11 20 -19 20 -7 0 -23 16 -36 35 -19 30 -25 34 -42 25
-17 -9 -20 -8 -20 14 0 17 -7 26 -24 30 -13 3 -31 9 -40 12 -11 4 -16 0 -16
-14 0 -15 8 -22 27 -24 l28 -3 -27 -26 c-16 -15 -28 -31 -28 -38 0 -6 -4 -11
-10 -11 -5 0 -10 -18 -10 -40 0 -22 -4 -40 -9 -40 -5 0 -12 -36 -16 -80 -6
-64 -10 -80 -24 -81 -9 -1 -5 -4 9 -8 18 -5 24 -14 25 -36 0 -21 6 -32 20 -37
19 -6 19 -6 -3 -13 -24 -8 -29 -21 -10 -27 8 -3 4 -15 -12 -39 -27 -40 -49
-60 -108 -99 l-43 -28 -27 27 c-22 21 -26 33 -23 64 2 28 -1 37 -12 37 -11 0
-18 13 -22 38 -3 20 -12 73 -20 117 -8 44 -15 90 -15 103 0 12 -4 30 -9 40 -5
9 -17 44 -27 77 -15 46 -24 61 -40 63 -23 3 -65 -29 -45 -36 6 -2 11 -21 11
-43 0 -21 5 -39 10 -39 6 0 10 -7 10 -15 0 -8 -7 -15 -15 -15 -8 0 -15 -5 -15
-11 0 -6 9 -9 20 -6 13 3 24 -1 30 -14 9 -16 7 -19 -15 -19 -23 0 -25 -4 -25
-40 0 -22 -4 -40 -8 -40 -23 0 -43 -162 -21 -175 7 -5 5 -13 -6 -25 -14 -16
-14 -18 0 -23 21 -9 19 -34 -4 -47 -11 -5 -23 -19 -26 -30 -3 -11 -13 -20 -21
-20 -8 0 -14 -7 -14 -15 0 -23 -38 -18 -64 10 -21 23 -24 23 -40 7 -16 -16
-17 -15 -16 23 0 22 -4 69 -10 105 -8 52 -16 70 -40 92 -22 21 -30 37 -30 62
0 19 6 36 13 39 9 3 9 9 -1 26 -6 11 -12 32 -12 45 0 26 -38 46 -86 46 -13 0
-24 4 -24 8 0 14 23 32 42 32 25 0 41 35 28 60 -12 23 -39 25 -87 8 l-33 -12
0 -2348 0 -2348 1756 0 c1167 0 1753 3 1749 10 -3 6 -12 10 -18 10 -7 0 -20 9
-30 20 -9 11 -24 20 -32 20 -8 0 -15 5 -15 10 0 6 -8 10 -18 10 -10 0 -22 4
-28 9 -17 17 -209 111 -226 111 -10 0 -18 3 -18 8 0 4 -20 18 -45 31 -24 13
-51 34 -60 47 -14 21 -14 27 -1 53 14 26 98 91 118 91 4 0 27 8 51 18 23 10
56 23 72 29 69 24 340 146 343 154 2 5 11 9 20 9 9 0 32 9 50 20 19 12 63 32
98 47 72 28 126 26 147 -7 6 -11 17 -20 23 -20 7 0 14 -7 18 -15 3 -9 14 -19
23 -23 10 -4 39 -22 63 -40 126 -92 171 -122 185 -122 8 0 15 -4 15 -9 0 -5
25 -19 55 -31 30 -12 55 -26 55 -31 0 -5 6 -9 13 -9 15 0 110 -47 150 -74 34
-23 35 -58 2 -98 -23 -27 -124 -83 -240 -134 -22 -9 -76 -34 -120 -55 l-80
-38 1383 0 c924 -1 1381 2 1377 9 -3 6 -10 48 -15 94 -6 63 -5 100 6 147 28
127 43 278 48 469 3 123 11 223 21 270 9 41 18 102 21 135 2 33 6 74 9 90 2
17 7 59 10 95 3 36 9 83 14 105 30 128 42 218 50 363 7 112 14 170 24 185 26
39 86 95 166 155 33 25 131 120 157 153 21 26 102 98 141 124 21 15 52 38 68
53 17 15 45 39 63 54 18 16 53 52 77 82 64 78 183 196 198 196 7 0 37 25 67
55 30 30 77 66 106 81 29 14 87 60 131 100 82 78 130 105 338 194 11 5 61 14
110 20 50 6 93 14 97 18 20 21 61 312 46 335 -4 6 -3 14 3 18 6 4 6 15 -1 33
-7 18 -7 41 -1 64 11 43 6 177 -10 312 -6 52 -11 111 -12 130 0 19 -5 38 -10
41 -5 4 -10 28 -12 55 -5 75 -14 174 -22 224 -3 25 -5 81 -4 125 1 44 -3 116
-8 160 -7 59 -6 82 2 87 7 4 12 15 13 25 1 10 2 27 3 39 0 12 12 26 27 33 26
11 26 14 22 75 -4 41 -1 74 8 96 18 41 18 45 -2 29 -14 -11 -15 -10 -12 11 2
14 9 24 16 22 17 -3 15 15 -3 22 -19 7 -19 15 1 61 14 35 16 36 34 20 14 -13
20 -14 26 -3 5 7 7 21 6 31 -2 10 3 17 13 17 14 0 16 6 11 28 -5 19 -4 23 3
12 12 -17 10 -18 38 42 25 54 53 67 104 49 18 -6 46 -11 63 -11 37 0 64 14 47
24 -6 4 -11 2 -11 -3 0 -6 -9 -11 -20 -11 -24 0 -26 22 -5 40 16 14 20 40 6
40 -9 0 -21 56 -21 97 0 12 -7 26 -16 31 -9 5 -17 21 -17 35 -1 15 -5 27 -9
27 -5 0 -8 6 -8 14 0 8 -7 16 -15 20 -8 3 -15 14 -15 26 0 11 -9 25 -20 32
-11 7 -20 18 -20 24 0 6 -19 31 -42 55 -40 41 -62 58 -98 75 -8 4 -22 16 -31
26 -9 10 -23 18 -31 18 -8 0 -25 9 -38 20 -13 11 -28 20 -34 20 -15 1 -48 31
-63 58 -17 28 -17 69 0 79 6 4 22 28 35 53 27 53 37 70 80 136 17 28 32 58 32
68 0 32 65 149 107 194 36 37 43 52 43 84 0 23 4 37 10 33 5 -3 12 7 16 22 4
15 18 39 31 52 12 13 23 32 23 43 0 24 39 140 51 152 5 6 9 18 9 27 0 10 3 19
8 21 11 5 52 84 52 101 0 8 7 17 14 20 8 3 18 23 22 44 4 21 14 43 23 50 9 6
13 15 8 19 -4 4 -7 2 -7 -4 0 -7 -4 -12 -10 -12 -18 0 -10 39 11 54 13 9 18
19 14 27 -5 8 -4 10 3 5 7 -4 12 -1 12 9 0 9 15 40 34 68 18 29 42 70 51 92
10 22 25 48 34 59 15 17 38 92 45 146 2 14 7 37 11 51 4 16 2 30 -4 33 -6 4
-11 19 -11 33 0 21 2 23 14 13 21 -16 40 -3 76 53 34 54 37 75 14 92 -14 10
-15 15 -3 36 7 13 12 36 10 51 -1 15 3 36 9 47 9 17 7 27 -11 50 -19 26 -21
37 -15 90 4 37 3 68 -4 81 -6 11 -16 69 -22 129 l-11 109 32 93 c18 52 44 114
58 139 20 36 26 67 34 155 11 141 28 212 58 236 13 11 29 19 37 19 7 0 43 37
79 83 36 45 72 90 80 99 7 9 19 27 26 40 7 12 18 29 26 36 7 8 26 30 40 50 15
21 50 59 78 85 40 39 55 48 78 44 21 -3 27 0 22 11 -3 8 5 31 17 50 12 20 21
46 20 58 -2 12 2 25 8 29 5 3 8 11 4 16 -8 14 16 69 30 69 6 0 5 4 -3 9 -10 6
-10 10 -1 16 9 6 9 9 -1 15 -9 6 -9 12 4 25 20 19 22 29 5 18 -8 -4 -6 3 3 18
9 13 17 43 17 66 1 42 19 83 37 83 5 0 23 14 38 29 33 34 33 66 -1 65 -12 0
-22 3 -22 8 0 4 7 8 15 8 9 0 15 9 15 21 0 12 13 40 28 63 37 55 78 160 86
221 3 28 19 81 34 120 23 56 27 74 18 96 -9 24 -5 34 32 83 23 30 42 58 42 61
0 3 10 19 21 35 27 36 20 73 -19 95 -20 12 -28 24 -27 43 1 31 24 113 37 127
4 5 8 19 8 31 0 28 14 37 40 29 14 -4 20 -15 20 -34 0 -16 7 -34 15 -41 20
-17 30 -77 17 -103 -12 -23 -10 -122 2 -168 14 -50 122 -79 217 -58 48 11 60
4 77 -49 8 -23 8 -49 1 -88 -6 -33 -7 -60 -1 -67 33 -44 -32 -154 -127 -211
-102 -62 -110 -73 -103 -132 l4 -36 97 2 c156 2 144 6 136 -36 -4 -23 -2 -39
4 -43 6 -4 11 -30 12 -59 2 -53 15 -75 29 -52 4 7 10 8 12 4 8 -14 -27 -69
-43 -69 -8 0 -16 -15 -20 -40 -7 -42 -3 -65 12 -65 5 0 9 -6 9 -14 0 -9 -7
-12 -19 -9 -10 3 -22 0 -25 -6 -4 -6 0 -11 8 -11 19 0 20 -24 5 -68 -11 -32 3
-78 20 -67 5 2 14 -9 22 -26 10 -26 10 -35 -1 -53 -8 -11 -17 -46 -21 -78 -3
-31 -15 -68 -25 -82 -17 -23 -26 -25 -84 -26 -36 0 -70 -4 -76 -8 -13 -8 -24
-72 -13 -72 5 0 16 -14 25 -32 19 -38 33 -52 57 -61 18 -7 24 -27 7 -27 -5 0
-10 -10 -10 -22 -1 -62 -6 -94 -17 -101 -18 -11 -17 -229 1 -279 8 -21 10 -38
5 -38 -5 0 -9 -9 -9 -20 0 -11 5 -20 10 -20 20 0 1 -107 -30 -161 -11 -21 3
-121 24 -171 9 -21 16 -65 16 -103 0 -36 4 -65 9 -65 10 0 28 -138 23 -186 -1
-19 4 -36 13 -44 22 -18 20 -86 -4 -102 -26 -18 -71 -87 -71 -109 0 -12 18
-26 55 -43 46 -21 55 -29 55 -50 0 -15 4 -26 9 -26 4 0 16 -30 25 -67 9 -38
21 -82 26 -99 6 -17 10 -62 10 -100 0 -66 -2 -72 -28 -91 -16 -12 -53 -24 -84
-28 -66 -8 -73 -12 -81 -46 -8 -31 18 -73 40 -64 9 3 31 3 49 -1 l33 -6 -19
-27 c-32 -44 -47 -116 -31 -154 7 -17 13 -38 14 -44 0 -7 9 -13 19 -13 13 0
18 -8 19 -32 1 -49 13 -85 23 -70 4 6 11 12 17 12 11 0 12 -47 0 -54 -4 -3 -3
-24 3 -47 9 -33 8 -43 -1 -46 -8 -3 -13 -21 -13 -44 0 -23 -5 -39 -12 -39 -6
0 -4 -8 6 -19 15 -16 15 -19 1 -25 -8 -3 -20 -17 -25 -31 -7 -17 -17 -25 -34
-25 -16 0 -27 -7 -31 -20 -4 -11 -11 -18 -16 -15 -13 9 -79 -25 -79 -41 0 -8
-5 -14 -11 -14 -5 0 -17 -16 -25 -35 -8 -19 -21 -35 -29 -35 -19 0 -20 -67 -3
-106 10 -22 10 -28 0 -32 -6 -2 -12 -10 -12 -18 0 -16 75 -20 100 -4 9 5 19 5
27 -2 18 -15 16 -25 -8 -49 -12 -12 -22 -37 -24 -59 -1 -21 -6 -43 -10 -50
-16 -25 -8 -103 12 -117 12 -10 14 -16 6 -21 -6 -4 -9 -19 -6 -36 l6 -29 18
24 c15 19 19 20 19 7 0 -9 3 -23 6 -32 4 -11 1 -16 -10 -16 -12 0 -16 -10 -16
-40 0 -39 -1 -40 -35 -40 -25 0 -35 -4 -35 -15 0 -9 -11 -20 -25 -25 -14 -5
-25 -16 -25 -25 0 -8 -4 -15 -9 -15 -12 0 -31 -78 -19 -82 5 -2 14 -45 21 -97
11 -90 13 -94 47 -120 49 -37 61 -53 55 -78 -3 -13 -1 -23 5 -23 5 0 10 -11
10 -25 0 -18 7 -28 25 -35 14 -5 25 -14 25 -19 0 -4 13 -11 30 -14 16 -4 48
-16 70 -27 22 -11 58 -29 80 -40 21 -11 53 -20 70 -20 34 0 100 24 100 37 0 4
16 25 35 46 19 21 37 47 40 58 7 20 7 20 26 -2 20 -23 24 -39 11 -39 -4 0 -6
-18 -4 -40 3 -27 9 -40 19 -40 11 0 14 -7 10 -21 -6 -24 16 -64 50 -92 13 -10
23 -25 23 -33 0 -8 6 -14 13 -14 24 0 161 -71 195 -101 18 -16 41 -29 52 -29
10 0 22 -4 25 -10 3 -5 14 -10 24 -10 10 0 30 -10 44 -22 66 -58 80 -68 102
-68 13 0 25 -5 27 -12 2 -6 15 -12 29 -14 13 -1 27 -3 30 -3 4 -1 9 -10 12
-22 3 -12 10 -18 16 -15 5 4 13 1 17 -5 4 -8 9 -7 15 2 8 12 10 12 18 0 5 -7
14 -10 20 -7 14 9 15 6389 2 6448 -5 22 -5 36 0 32 5 -3 9 4 9 15 0 11 -4 23
-10 26 -5 3 -10 14 -10 23 0 15 2 15 10 2 6 -10 9 63 9 215 -1 127 -3 222 -6
213 -6 -25 -28 -22 -56 6 -25 24 -25 26 -28 215 -1 48 3 76 11 81 9 6 7 10 -6
18 -15 8 -19 25 -21 94 -2 45 -5 94 -6 108 -1 16 3 24 11 22 8 -1 11 2 7 8 -3
6 -11 7 -17 4 -19 -12 4 39 29 64 18 18 27 22 36 13 6 -6 19 -11 28 -11 14 0
16 14 17 108 1 103 0 107 -21 108 -12 1 -35 4 -52 7 l-30 4 0 74 c0 41 -4 80
-8 87 -5 7 -4 12 2 12 6 0 11 5 11 10 0 6 -7 10 -15 10 -8 0 -15 5 -15 10 0 6
9 10 20 10 11 0 20 5 20 10 0 6 -5 10 -11 10 -8 0 -8 4 -2 13 5 6 10 22 11 35
0 12 8 29 16 38 9 8 16 20 16 25 0 6 5 7 10 4 6 -4 16 7 23 24 7 17 16 28 20
24 4 -3 7 71 7 165 l0 172 -45 0 c-44 0 -45 -1 -46 -32 -1 -30 -2 -28 -10 12
-6 25 -6 70 -2 100 5 38 8 47 11 28 3 -25 7 -28 42 -28 35 0 39 -3 43 -27 2
-16 5 578 5 1320 l2 1347 -130 0 -130 0 -6 -25 c-9 -36 -62 -64 -151 -80 -129
-23 -276 -59 -308 -77 -39 -21 -125 -106 -125 -123 0 -8 -8 -19 -17 -24 -15
-9 -11 -10 18 -11 29 0 38 -5 48 -27 9 -19 9 -29 2 -31 -6 -2 -1 -12 10 -21
12 -10 27 -33 33 -52 7 -19 17 -33 23 -32 7 2 28 -12 47 -31 45 -42 48 -86 11
-137 -14 -19 -30 -46 -36 -61 -6 -16 -17 -28 -25 -28 -8 0 -14 -4 -14 -10 0
-5 -5 -10 -11 -10 -13 0 -39 -25 -39 -39 0 -19 -52 -62 -74 -60 -39 3 -44 -1
-53 -38 -11 -42 5 -191 22 -214 17 -23 32 -61 46 -114 12 -48 37 -91 47 -80 6
6 32 -14 32 -25 0 -5 -8 -11 -17 -13 -10 -3 -3 -5 15 -6 21 -1 32 -6 32 -16 0
-8 5 -15 10 -15 13 0 13 -76 0 -101 -8 -15 -7 -19 4 -19 12 0 14 -22 10 -147
-2 -82 -6 -171 -8 -200 -3 -28 -1 -53 3 -55 12 -5 21 -78 10 -78 -6 0 -1 -11
9 -25 18 -23 29 -63 38 -134 1 -13 7 -28 13 -34 6 -6 8 -34 4 -70 -4 -40 -3
-58 4 -54 6 4 8 -3 5 -19 -5 -30 19 -144 31 -144 13 0 -2 -191 -17 -215 -16
-25 -30 -185 -16 -185 6 0 10 -10 10 -23 0 -13 11 -38 25 -57 28 -38 34 -112
11 -139 -7 -9 -26 -40 -41 -69 -22 -40 -26 -55 -17 -64 9 -9 12 -9 12 0 0 6 6
9 14 6 8 -3 12 -12 9 -20 -3 -8 0 -21 6 -28 7 -8 12 -31 11 -53 0 -37 24 -294
36 -381 3 -23 10 -45 15 -48 5 -3 9 -20 9 -39 0 -19 4 -36 8 -39 5 -3 15 -30
22 -61 7 -30 17 -55 22 -55 5 0 8 -47 6 -105 -2 -58 1 -106 6 -108 5 -2 9 -20
8 -40 -1 -31 2 -37 20 -37 20 0 20 -1 5 -18 -10 -10 -17 -26 -17 -35 0 -9 -5
-19 -11 -22 -13 -8 -9 -75 5 -93 7 -10 5 -16 -5 -23 -10 -6 -11 -11 -3 -16 19
-14 26 -91 10 -116 -11 -17 -14 -47 -11 -126 2 -57 8 -107 13 -110 10 -7 9
-40 -3 -116 -6 -36 -20 -63 -52 -103 -23 -29 -43 -61 -43 -70 0 -26 26 -59 60
-75 25 -13 31 -13 41 -1 6 8 17 14 25 14 19 0 27 -19 14 -34 -6 -8 -7 -16 -2
-18 5 -1 12 -33 16 -70 5 -52 3 -70 -9 -82 -8 -8 -15 -30 -15 -48 0 -33 -30
-65 -50 -53 -13 8 -40 -36 -40 -65 0 -26 36 -70 57 -70 6 0 9 -9 5 -22 -3 -14
-1 -19 6 -14 8 5 10 -21 8 -86 -1 -51 0 -121 4 -156 6 -57 4 -66 -17 -90 -13
-15 -23 -23 -23 -19 0 19 -42 -18 -60 -53 -21 -42 -26 -86 -10 -110 6 -9 5
-17 -3 -22 -9 -6 -8 -10 2 -17 12 -8 12 -12 2 -24 -8 -10 -9 -17 -1 -22 5 -3
10 -14 10 -23 0 -10 14 -32 30 -50 30 -33 38 -56 22 -66 -5 -3 -15 -30 -22
-61 -10 -42 -18 -55 -32 -55 -11 0 -18 -7 -18 -20 0 -11 -4 -20 -9 -20 -13 0
-21 -53 -9 -67 5 -7 7 -17 3 -24 -4 -6 -9 -41 -11 -78 -3 -36 -7 -84 -9 -106
-3 -22 -7 -77 -9 -122 -2 -53 -9 -92 -19 -107 -19 -29 -32 -232 -16 -242 8 -4
7 -9 -2 -14 -18 -12 4 -36 47 -52 26 -9 33 -16 28 -31 -3 -10 0 -24 6 -32 8
-9 9 -29 5 -54 -4 -22 -3 -46 1 -52 11 -18 13 -72 4 -88 -11 -20 10 -62 29
-59 19 3 41 -9 41 -23 0 -5 -6 -9 -14 -9 -18 0 -22 -6 -31 -47 -6 -29 -4 -33
13 -33 12 0 23 8 25 18 3 9 5 0 6 -20 0 -21 -2 -38 -7 -38 -4 0 -13 -14 -21
-31 -10 -22 -12 -61 -9 -140 2 -60 1 -109 -4 -109 -4 0 -8 -34 -8 -76 0 -41
-5 -85 -12 -97 -7 -12 -13 -55 -15 -96 -1 -41 -7 -77 -13 -81 -11 -7 -13 -37
-10 -165 1 -38 -1 -94 -5 -122 -5 -44 -4 -53 9 -53 12 0 14 -9 9 -52 -3 -29
-10 -54 -15 -56 -4 -2 -8 -19 -8 -38 0 -23 -8 -44 -25 -62 -14 -15 -25 -35
-25 -44 0 -10 -7 -18 -16 -18 -14 0 -16 -14 -12 -110 2 -69 8 -114 16 -122 6
-6 12 -20 12 -29 0 -10 5 -19 10 -21 6 -2 12 -37 14 -78 4 -71 -4 -121 -26
-163 -5 -10 -6 -27 -3 -38 5 -13 1 -25 -10 -33 -14 -10 -18 -48 -27 -266 -5
-140 -13 -257 -17 -260 -15 -10 -20 -101 -6 -107 8 -2 13 -18 12 -36 0 -18 3
-40 7 -49 5 -11 0 -24 -14 -38 -21 -21 -21 -22 -3 -36 17 -13 17 -15 0 -28
-10 -8 -17 -18 -16 -22 4 -23 -3 -33 -23 -36 -15 -2 -24 -11 -26 -25 -6 -38
-32 -28 -32 12 0 33 -1 34 -32 28 -23 -5 -29 -3 -23 6 5 9 0 12 -16 9 -20 -2
-25 2 -27 25 -2 16 3 36 10 45 9 11 10 14 1 8 -16 -9 -16 -5 -3 29 9 23 7 28
-10 32 -22 6 -27 28 -9 39 8 5 8 9 -1 14 -8 5 -9 13 -4 21 4 8 7 28 5 46 -2
25 1 33 14 33 13 0 16 6 12 21 -3 12 -1 45 5 74 7 38 7 69 -1 111 -7 33 -11
77 -11 98 1 22 -4 43 -11 47 -13 7 -33 112 -32 164 1 17 8 68 17 115 12 69 20
88 41 103 27 20 34 56 10 59 -8 0 -21 1 -27 2 -19 1 -37 36 -38 70 0 22 10 38
40 63 28 24 41 45 46 71 4 20 10 44 15 53 5 11 1 22 -14 36 -85 80 -117 116
-117 128 0 8 -4 17 -10 20 -6 4 -6 12 -1 23 5 9 15 51 21 92 6 41 15 79 21 84
5 6 9 18 9 28 0 20 20 24 37 7 8 -8 14 -5 23 11 24 45 29 78 14 91 -30 25 -72
142 -73 204 0 28 -3 70 -6 95 -6 51 19 238 35 254 5 5 10 25 10 43 0 18 4 41
9 51 45 91 51 190 10 179 -14 -4 -19 0 -19 14 0 10 5 19 11 19 8 0 8 4 0 14
-8 10 -9 16 -1 21 5 3 10 25 10 48 1 23 2 74 3 114 2 85 -10 106 -42 72 -17
-18 -21 -20 -21 -6 0 9 -10 23 -22 31 -12 9 -19 16 -14 16 5 0 1 9 -9 20 -16
18 -17 25 -6 58 7 21 14 75 15 119 1 73 -2 84 -22 106 -23 24 -24 31 -20 132
3 93 6 108 23 120 11 8 27 20 34 27 8 7 24 15 35 18 15 4 23 17 27 43 7 47 0
95 -12 76 -6 -11 -12 -11 -33 0 -18 10 -28 27 -36 65 -6 27 -16 53 -22 57 -8
5 -7 16 2 40 7 19 14 54 16 79 1 25 5 61 8 80 2 19 2 27 0 17 -9 -29 -24 -8
-24 34 0 23 5 39 12 39 6 0 1 11 -12 25 -21 22 -22 27 -11 67 7 24 13 57 15
74 1 18 7 38 14 47 7 8 9 22 6 31 -4 11 1 22 15 32 11 8 21 22 21 30 0 8 5 14
10 14 6 0 10 18 10 40 0 22 -4 40 -8 40 -16 0 -33 50 -23 68 9 19 4 42 -14 57
-16 13 -25 40 -17 52 4 5 25 16 47 25 54 21 64 39 37 68 -13 14 -25 19 -34 14
-26 -17 -78 -32 -83 -23 -10 14 7 59 21 59 8 0 14 8 14 18 0 10 5 23 11 29 7
7 7 22 -1 51 -6 23 -10 63 -9 89 4 92 1 113 -20 113 -15 0 -20 10 -26 46 -5
33 -3 49 6 54 7 5 9 18 5 34 -4 15 0 46 8 70 9 25 13 59 9 79 -3 23 2 49 16
82 12 26 21 65 21 86 0 21 6 58 14 81 52 158 53 166 7 218 -28 32 -41 40 -41
28 0 -10 -4 -18 -9 -18 -11 0 -2 39 13 59 8 11 8 13 -1 7 -10 -5 -13 3 -13 29
0 20 4 34 9 30 5 -3 9 7 8 22 0 16 5 67 12 115 11 75 11 94 -2 135 -22 69 -31
134 -19 142 6 4 7 25 1 61 -7 42 -5 62 6 87 8 17 18 59 22 93 5 48 10 64 24
67 16 5 16 6 -2 24 -24 24 -24 40 1 86 11 21 20 43 20 50 0 7 4 13 9 13 12 0
34 57 26 69 -3 6 -1 11 6 11 8 0 8 4 -1 15 -9 11 -22 14 -42 10 -29 -7 -63 10
-53 25 3 5 6 48 6 97 0 88 1 88 37 124 66 63 78 114 32 126 -36 10 -49 55 -49
175 1 104 6 133 34 163 6 7 15 10 22 8 6 -2 14 1 18 6 11 19 13 285 2 311 -6
14 -11 57 -13 95 -1 39 -2 82 -3 98 -1 20 -6 27 -21 27 -33 0 -46 53 -53 210
-6 158 -3 176 31 214 12 15 22 32 22 40 0 8 7 17 16 20 12 5 15 16 12 41 -2
19 0 35 4 35 4 0 8 9 8 20 0 11 9 29 20 40 11 11 20 29 20 41 0 11 5 29 10 40
9 16 7 19 -15 19 -23 0 -25 -4 -25 -40 0 -37 -2 -40 -27 -41 -35 -2 -67 2 -73
7 -2 3 1 18 7 33 14 39 6 81 -17 81 -24 0 -88 -86 -138 -185 -16 -33 -81 -105
-94 -105 -18 0 -5 41 42 138 62 126 63 135 13 127 -77 -13 -94 -17 -121 -31
-16 -7 -73 -25 -127 -39 -96 -25 -140 -48 -129 -66 3 -5 1 -17 -5 -27 -7 -13
-4 -30 10 -63 11 -24 21 -66 23 -94 1 -27 8 -60 14 -72 8 -14 10 -42 6 -78 -4
-33 -3 -55 3 -55 10 0 5 -62 -7 -70 -8 -6 -33 -137 -32 -170 1 -14 6 -101 11
-193 7 -135 6 -177 -5 -214 -26 -87 -14 -163 26 -163 12 0 20 -7 21 -17 2 -65
9 -164 13 -197 5 -35 -12 -87 -35 -106 -17 -14 -29 -53 -29 -93 0 -43 23 -76
60 -89 26 -8 20 -46 -14 -82 -26 -29 -35 -49 -40 -91 -3 -29 -3 -61 0 -69 4
-9 1 -16 -6 -16 -10 0 -10 -3 0 -15 7 -9 9 -22 4 -32 -18 -41 -14 -113 6 -113
5 0 21 -11 35 -25 24 -25 24 -27 10 -55 -16 -32 -21 -120 -6 -120 5 0 22 5 37
10 15 6 30 7 33 2 3 -5 14 -12 24 -15 16 -6 18 -14 12 -55 -7 -54 7 -102 30
-102 8 0 15 -4 15 -10 0 -5 7 -10 16 -10 13 0 14 -3 4 -15 -10 -12 -9 -20 4
-40 24 -36 21 -95 -4 -102 -17 -4 -20 -14 -20 -54 0 -39 -3 -49 -16 -49 -18 0
-54 -36 -54 -54 0 -14 -34 -60 -79 -105 l-35 -34 -19 44 c-11 24 -22 65 -24
92 -3 26 -9 47 -14 47 -5 0 -8 3 -7 8 1 4 -6 20 -16 35 -10 15 -19 35 -20 45
-1 9 -10 35 -20 57 -9 22 -20 52 -23 68 -3 16 -12 27 -22 27 -12 0 -13 2 -4 8
10 6 10 12 -2 28 -8 10 -15 27 -15 37 0 9 -4 17 -10 17 -5 0 -16 15 -25 34
-12 25 -21 33 -33 29 -12 -5 -14 -2 -8 12 4 10 2 21 -5 25 -8 5 -7 16 5 37 8
17 12 33 9 37 -13 13 -18 168 -7 221 3 17 8 53 11 80 3 28 9 55 14 61 4 6 9
26 10 45 1 19 5 59 10 89 16 108 17 162 3 156 -8 -3 -14 1 -14 8 0 8 5 16 11
18 8 3 7 9 -3 19 -13 12 -31 119 -29 169 6 149 10 222 15 251 3 23 0 44 -9 55
-13 18 -15 18 -42 -8 -16 -16 -34 -28 -41 -28 -16 0 -15 29 3 60 8 14 14 34
15 44 0 22 -27 45 -52 46 -21 0 -24 16 -5 23 25 9 0 16 -29 8 -21 -6 -29 -14
-28 -29 0 -16 -5 -22 -20 -22 -16 0 -18 -2 -7 -9 12 -8 12 -11 0 -24 -12 -13
-18 -12 -47 10 -29 22 -39 24 -82 18 -53 -7 -95 10 -133 55 -12 15 -27 20 -52
18 -19 -1 -35 -5 -35 -9 0 -4 -13 -10 -30 -14 -16 -4 -30 -10 -30 -14 0 -14
-146 -91 -173 -91 -21 0 -30 7 -42 36 -11 28 -12 40 -4 50 9 11 8 14 -4 14
-10 0 -18 14 -22 40 -4 22 -14 47 -22 56 -9 8 -13 17 -10 20 2 3 1 21 -3 41
-7 29 -5 40 11 56 10 11 19 27 19 34 0 8 5 11 11 7 7 -4 10 -1 7 7 -6 17 11
57 37 89 11 14 58 44 105 68 79 40 91 44 168 44 85 1 103 9 98 42 -2 15 -13
20 -47 23 -24 3 -51 11 -60 19 -39 36 -200 19 -292 -30 -26 -14 -53 -26 -58
-26 -23 0 -109 -88 -161 -165 -54 -80 -78 -105 -100 -105 -10 0 -17 4 -16 9 2
5 -14 24 -34 44 -24 22 -38 45 -38 60 0 14 -7 30 -15 37 -8 7 -15 19 -15 26 0
8 -6 14 -13 14 -18 0 -62 99 -58 130 2 23 69 188 97 240 7 14 27 57 45 95 17
39 41 93 54 120 12 28 60 133 105 235 88 199 108 244 141 318 12 26 39 83 61
127 22 44 57 118 78 165 21 47 57 126 80 175 57 124 90 196 100 220 4 11 21
49 38 85 17 36 44 95 61 133 l30 67 -348 0 -348 0 -38 -102z m2605 -152 c-20
-54 -50 -85 -50 -53 0 12 48 77 56 77 2 0 -1 -11 -6 -24z m-3983 -1352 c3 -8
12 -13 19 -10 8 3 14 -1 14 -9 0 -8 6 -15 13 -16 6 0 2 -5 -10 -11 -13 -6 -23
-17 -23 -25 0 -20 -24 -11 -28 10 -2 10 3 17 12 17 9 0 16 5 16 10 0 18 -19
11 -45 -17 -14 -16 -23 -35 -20 -44 4 -12 -3 -18 -25 -22 -19 -4 -30 -13 -30
-23 0 -10 -6 -14 -14 -11 -7 3 -18 1 -24 -5 -8 -8 -13 -6 -18 7 -5 13 -1 23
14 33 12 8 22 22 22 32 0 27 51 80 77 80 13 0 23 5 23 10 0 16 20 12 27 -6z
m60 -70 c-3 -3 -12 -4 -19 -1 -8 3 -5 6 6 6 11 1 17 -2 13 -5z m135 -6 c7 -19
-51 -61 -83 -61 -18 0 -29 -6 -29 -14 0 -20 -24 -10 -28 10 -2 11 3 17 14 17
9 0 22 8 29 17 7 9 28 23 46 29 44 16 47 16 51 2z m3126 -23 c4 -43 -31 -92
-83 -117 -24 -12 -47 -19 -51 -15 -8 7 50 113 79 145 28 30 51 25 55 -13z
m-4052 -52 c-10 -10 -19 5 -10 18 6 11 8 11 12 0 2 -7 1 -15 -2 -18z m34 23
c0 -3 -4 -8 -10 -11 -5 -3 -10 -1 -10 4 0 6 5 11 10 11 6 0 10 -2 10 -4z m748
-38 c7 -7 12 -18 12 -25 0 -17 -100 -114 -110 -108 -22 13 -2 74 35 109 42 40
46 41 63 24z m-1530 -134 c5 -9 7 -25 4 -36 -4 -18 -5 -18 -18 -1 -16 21 -18
53 -4 53 5 0 13 -7 18 -16z m5672 -158 c0 -9 5 -16 10 -16 6 0 10 -18 10 -40
0 -35 -3 -40 -24 -40 -21 0 -24 5 -29 56 -7 69 -1 90 19 69 8 -7 14 -21 14
-29z m-2319 4 c-13 -11 -32 -20 -42 -20 -19 0 -149 -115 -149 -131 0 -17 -45
-79 -57 -79 -19 0 -16 56 6 98 30 59 77 99 134 116 29 9 59 20 67 26 8 5 26
10 40 10 l25 -1 -24 -19z m2316 -167 c-3 -10 -5 -2 -5 17 0 19 2 27 5 18 2
-10 2 -26 0 -35z m38 -73 c10 -11 13 -20 7 -20 -7 0 -12 -17 -12 -41 0 -33 -3
-40 -17 -37 -12 2 -19 14 -21 38 -2 19 -9 38 -15 42 -8 5 -6 12 8 22 26 20 29
20 50 -4z m-6401 -45 c28 -12 35 -20 32 -38 -2 -16 -9 -21 -27 -20 -13 2 -35
4 -49 5 -20 3 -70 40 -70 53 0 2 17 6 38 8 20 2 38 4 38 5 1 1 18 -5 38 -13z
m6336 -34 c0 -20 26 -31 78 -31 25 0 32 -4 32 -20 0 -17 -7 -20 -39 -20 -36 0
-40 -3 -44 -27 -3 -20 -4 -15 -6 15 0 24 -5 41 -10 37 -6 -3 -15 3 -20 14 -14
25 -14 64 -1 56 6 -3 10 -14 10 -24z m94 -133 c23 -45 21 -48 -29 -48 -43 0
-58 11 -34 25 5 4 14 18 19 31 13 32 25 30 44 -8z m-94 -8 c0 -11 -4 -20 -10
-20 -5 0 -10 9 -10 20 0 11 5 20 10 20 6 0 10 -9 10 -20z m0 -157 c0 -21 -5
-45 -10 -53 -7 -11 -10 0 -10 38 0 28 5 52 10 52 6 0 10 -17 10 -37z m-1740
-48 c-7 -9 -15 -13 -18 -10 -3 2 1 11 8 20 7 9 15 13 18 10 3 -2 -1 -11 -8
-20z m-5650 10 c0 -9 -25 -50 -35 -57 -6 -5 -5 -12 3 -20 18 -18 15 -46 -8
-75 -11 -14 -20 -32 -20 -39 0 -8 -4 -14 -10 -14 -5 0 -10 -7 -10 -15 0 -8 -4
-15 -9 -15 -6 0 -22 -11 -37 -25 -15 -14 -32 -25 -38 -24 -6 0 -6 3 2 6 18 7
15 53 -4 53 -14 0 -14 3 -4 15 7 8 9 15 5 15 -4 0 -1 7 6 16 8 9 12 27 11 39
-3 24 28 105 40 105 4 0 5 6 2 14 -3 8 2 16 13 19 26 7 93 8 93 2z m-407 -205
c7 0 7 -4 -2 -9 -12 -8 -12 -14 1 -43 9 -18 23 -91 32 -161 18 -135 14 -238
-10 -258 -7 -6 -11 -16 -8 -23 7 -17 -22 -46 -45 -46 -9 0 -21 -4 -27 -10 -13
-13 -58 127 -78 242 -14 79 -14 94 1 155 9 37 24 77 33 88 10 11 21 30 24 42
7 22 30 34 54 27 8 -2 19 -4 25 -4z m244 -46 c-3 -3 -12 -4 -19 -1 -8 3 -5 6
6 6 11 1 17 -2 13 -5z m-409 -265 c-3 -20 -5 -19 -9 9 -3 20 -2 29 4 23 5 -5
7 -19 5 -32z m30 -129 l0 -25 -8 25 c-4 14 -8 34 -8 45 l-1 20 9 -20 c5 -11 8
-31 8 -45z m242 -114 c0 -3 -4 -8 -10 -11 -5 -3 -10 -1 -10 4 0 6 5 11 10 11
6 0 10 -2 10 -4z m6420 -37 c0 -6 -4 -7 -10 -4 -5 3 -10 11 -10 16 0 6 5 7 10
4 6 -3 10 -11 10 -16z m-5740 -268 c0 -5 -9 -11 -20 -14 -22 -6 -28 8 -7 16
19 8 27 8 27 -2z m-600 -307 c7 -8 -43 -44 -60 -44 -8 0 -21 10 -29 21 -11 19
-11 21 3 16 9 -4 23 -4 32 0 13 5 13 8 2 15 -9 6 -3 7 17 3 16 -4 32 -9 35
-11z m757 -256 c-3 -8 -6 -5 -6 6 -1 11 2 17 5 13 3 -3 4 -12 1 -19z m-1002
-57 c-3 -6 -14 -9 -25 -8 -10 1 -16 5 -14 9 3 4 14 8 25 8 11 0 18 -4 14 -9z
m-248 -168 c-8 -7 -37 9 -31 19 3 5 12 4 20 -3 8 -6 13 -14 11 -16z m33 -39
c0 -8 -4 -14 -9 -14 -4 0 -21 -12 -36 -26 -26 -24 -55 -26 -55 -4 0 6 11 21
25 34 28 26 75 32 75 10z m6912 -76 c-14 -17 -13 -18 19 -20 19 0 40 -1 47 -1
7 1 28 -15 47 -34 23 -24 35 -30 39 -21 3 7 4 2 0 -12 -3 -14 -6 -34 -5 -45 0
-27 -15 -43 -50 -50 -77 -17 -124 41 -124 153 0 39 -4 72 -9 72 -5 0 -3 7 4
15 11 14 15 12 30 -12 16 -25 16 -30 2 -45z m-6912 16 c0 -8 -7 -14 -15 -14
-17 0 -18 2 -9 24 7 18 24 12 24 -10z m-40 -13 c0 -5 2 -16 5 -24 5 -10 -1
-13 -25 -9 -30 4 -43 22 -15 22 8 0 15 5 15 10 0 6 5 10 10 10 6 0 10 -4 10
-9z m255 -30 c-4 -13 2 -26 15 -39 20 -18 20 -20 3 -26 -20 -8 -29 -5 -25 7 1
4 -4 17 -12 29 -11 16 -12 23 -3 34 18 20 29 17 22 -5z m-279 -19 c-2 -4 10
-6 29 -4 18 2 36 -1 39 -7 5 -7 -3 -11 -20 -11 -22 0 -25 -2 -14 -15 11 -13 8
-15 -13 -15 -14 0 -29 -4 -32 -10 -3 -5 1 -10 10 -10 14 0 13 -5 -7 -29 -26
-34 -40 -38 -58 -16 -10 12 -7 15 14 21 32 8 34 24 4 24 -20 1 -21 2 -7 13 9
7 15 24 15 40 -1 22 3 27 22 27 13 0 21 -4 18 -8z m8037 -499 c3 -17 0 -34 -9
-44 -8 -8 -14 -25 -14 -37 0 -29 -17 -36 -30 -12 -8 15 -7 32 7 70 20 55 38
64 46 23z m-3698 -252 c3 -5 1 -12 -5 -16 -5 -3 -10 1 -10 9 0 18 6 21 15 7z
m3662 -164 c-2 -6 -7 -12 -13 -14 -15 -4 -37 14 -30 25 8 13 48 3 43 -11z
m-5597 -17 c0 -5 -2 -10 -4 -10 -3 0 -8 5 -11 10 -3 6 -1 10 4 10 6 0 11 -4
11 -10z m5610 -20 c-13 -8 -12 -11 5 -25 19 -14 19 -16 2 -29 -11 -9 -15 -20
-10 -32 6 -18 6 -18 -10 -2 -10 9 -17 32 -17 52 0 24 -5 36 -17 39 -10 3 0 5
22 6 29 0 36 -2 25 -9z m-730 -194 c0 -2 -7 -6 -15 -10 -8 -3 -15 -1 -15 4 0
6 7 10 15 10 8 0 15 -2 15 -4z m-2705 -436 c3 -5 15 -10 25 -10 10 0 21 -6 24
-12 5 -10 7 -10 12 0 9 19 44 14 65 -10 20 -25 25 -58 9 -58 -5 0 -10 -11 -10
-25 0 -27 -12 -30 -112 -25 -98 4 -208 55 -170 79 7 4 10 15 7 23 -5 12 0 16
17 17 41 1 98 13 104 22 7 12 21 11 29 -1z m3552 -87 c-3 -18 -1 -47 4 -65 10
-35 2 -227 -11 -248 -4 -6 -33 -13 -66 -16 -38 -4 -54 -2 -46 4 18 12 17 82
-3 265 -7 58 -6 67 8 67 9 0 21 9 27 20 6 11 18 20 26 20 10 0 14 6 10 15 -4
10 4 8 25 -7 26 -20 30 -28 26 -55z m-7919 15 c-6 -18 -28 -21 -28 -4 0 9 7
16 16 16 9 0 14 -5 12 -12z m1152 -30 c0 -31 -132 -90 -153 -69 -5 5 7 20 25
35 18 14 38 30 43 36 15 14 85 12 85 -2z m506 -70 c7 -10 -41 -58 -58 -58 -17
0 -7 33 15 51 26 22 33 23 43 7z m319 -17 c22 -10 46 -25 53 -34 10 -12 19
-14 38 -6 35 13 35 13 16 -21 -25 -44 -113 -87 -216 -106 -39 -7 -39 -7 -32
22 4 15 19 58 34 96 30 76 39 80 107 49z m-618 -43 c6 -5 10 -15 7 -22 -3 -8
2 -21 11 -30 9 -9 17 -25 18 -36 1 -11 5 -20 9 -20 4 0 8 -6 8 -14 0 -8 5 -16
10 -18 7 -2 5 -11 -4 -23 -14 -19 -15 -19 -70 -2 -66 21 -126 69 -126 101 1
28 77 85 105 78 11 -3 25 -9 32 -14z m2598 -70 c2 -7 6 -41 10 -75 l6 -63 -36
0 c-21 0 -55 11 -80 26 -25 14 -49 23 -55 19 -5 -3 -10 -1 -10 4 0 6 -7 11
-15 11 -8 0 -15 5 -15 10 0 6 7 10 15 10 8 0 15 -4 15 -10 0 -5 5 -10 11 -10
5 0 9 10 7 23 -2 18 6 26 42 44 50 25 99 30 105 11z m280 -19 c5 -14 0 -27
-14 -40 -24 -23 -41 -24 -41 -4 0 8 4 15 10 15 5 0 12 11 16 25 8 30 20 32 29
4z m3635 -129 c0 -5 -11 -10 -25 -10 -14 0 -25 5 -25 10 0 6 11 10 25 10 14 0
25 -4 25 -10z m-3334 -9 c-4 -5 -2 -11 2 -13 4 -1 2 -14 -5 -28 -7 -14 -13
-19 -13 -11 0 10 -6 10 -26 -4 -14 -9 -35 -15 -45 -12 -12 3 -19 0 -19 -9 0
-8 -4 -14 -10 -14 -17 0 -12 8 35 55 25 25 55 45 66 45 11 0 18 -4 15 -9z
m3314 -67 c0 -17 -22 -14 -28 4 -2 7 3 12 12 12 9 0 16 -7 16 -16z m14 -59 c3
-8 8 -44 12 -80 6 -56 5 -65 -10 -65 -13 0 -16 12 -16 70 0 40 -4 70 -10 70
-5 0 -10 5 -10 10 0 16 27 12 34 -5z m56 -19 c0 -18 3 -54 6 -80 6 -40 4 -46
-11 -46 -15 0 -17 7 -13 50 4 38 2 50 -8 50 -9 0 -14 11 -14 30 0 23 4 30 20
30 16 0 20 -7 20 -34z m-2963 -748 c-2 -13 -4 -3 -4 22 0 25 2 35 4 23 2 -13
2 -33 0 -45z m-103 -114 c9 -24 7 -31 -9 -38 -11 -4 -15 2 -15 24 0 32 14 40
24 14z m-24 -154 c0 -5 -4 -10 -9 -10 -6 0 -13 5 -16 10 -3 6 1 10 9 10 9 0
16 -4 16 -10z m555 -220 c3 -5 1 -10 -4 -10 -6 0 -11 5 -11 10 0 6 2 10 4 10
3 0 8 -4 11 -10z m-2437 -313 c-13 -26 -22 -14 -14 20 6 20 10 23 16 13 5 -8
4 -22 -2 -33z m-31 -19 c-3 -8 -6 -5 -6 6 -1 11 2 17 5 13 3 -3 4 -12 1 -19z
m18 -78 c4 -6 -6 -10 -22 -10 -22 0 -25 2 -13 10 19 12 27 12 35 0z m-1365
-170 c0 -5 -4 -10 -10 -10 -5 0 -10 5 -10 10 0 6 5 10 10 10 6 0 10 -4 10 -10z
m1520 -12 c17 -12 30 -30 30 -40 0 -10 7 -18 15 -18 8 0 15 -7 15 -15 0 -8 -3
-15 -8 -15 -4 0 -32 -23 -61 -52 -46 -45 -56 -50 -72 -40 -11 7 -19 8 -19 3 0
-10 -47 -21 -112 -25 -34 -2 -48 1 -48 10 0 8 -6 11 -15 8 -16 -7 -75 16 -75
30 0 4 -11 17 -25 28 -14 11 -25 30 -25 43 0 23 22 54 41 56 13 2 22 5 42 14
12 5 24 1 37 -10 11 -10 20 -14 20 -9 1 5 9 -1 19 -14 17 -19 23 -21 48 -11
49 18 138 63 141 71 6 13 21 9 52 -14z m3846 -275 c-10 -26 -18 -8 -9 23 5 21
8 24 11 11 2 -10 1 -25 -2 -34z m-4332 -230 c3 -8 17 -10 39 -6 19 3 59 0 88
-6 93 -21 214 -24 229 -6 13 15 35 11 25 -6 -10 -14 5 -11 22 6 9 9 23 13 34
10 14 -5 19 -1 19 10 0 14 4 12 20 -6 17 -21 21 -22 30 -9 7 10 12 12 18 4 4
-6 29 -13 55 -16 69 -8 117 -61 117 -131 0 -34 48 -87 78 -87 19 0 69 -58 64
-75 -2 -5 -4 -20 -5 -32 -3 -35 -50 -101 -75 -106 -29 -6 -62 2 -62 14 0 5 -7
9 -15 9 -8 0 -15 -4 -15 -9 0 -15 -175 -8 -194 8 -12 10 -52 15 -134 18 -64 1
-129 5 -144 8 -17 3 -33 -2 -43 -11 -13 -13 -23 -14 -55 -6 -22 5 -42 6 -45 2
-7 -11 -78 -10 -92 2 -8 6 -24 5 -48 -3 -30 -11 -37 -11 -45 1 -7 11 -11 11
-23 1 -12 -9 -16 -9 -19 1 -3 9 -11 9 -36 -1 -24 -10 -39 -11 -59 -3 -16 6
-44 13 -64 15 -33 5 -37 2 -50 -26 -13 -30 -17 -32 -59 -29 -25 2 -52 10 -61
18 -8 8 -21 14 -27 14 -8 0 -12 19 -12 54 0 57 -10 73 -43 68 -10 -2 -29 4
-43 12 -21 15 -24 15 -24 1 0 -8 9 -15 19 -15 10 0 29 -9 42 -20 23 -19 23
-19 3 -20 -27 0 -53 -45 -36 -62 9 -9 15 -9 24 0 16 16 28 15 28 -3 0 -11 -11
-15 -40 -15 -38 0 -40 -2 -40 -30 0 -28 -2 -30 -40 -30 -22 0 -40 -4 -40 -10
0 -5 14 -10 30 -10 37 0 39 -16 3 -23 -28 -5 -73 10 -73 25 0 4 -7 8 -16 8
-20 0 -43 28 -44 53 0 9 -4 17 -10 17 -5 0 -10 7 -10 15 0 8 -9 15 -20 15 -11
0 -20 6 -20 13 0 8 -10 19 -22 25 -13 6 -17 11 -10 11 7 1 11 5 8 9 -2 4 0 14
5 22 8 13 10 13 19 0 8 -12 10 -11 10 6 0 11 3 24 7 27 11 11 32 -13 26 -30
-4 -11 -2 -14 8 -11 8 3 13 11 11 17 -4 18 40 52 60 47 10 -2 23 3 29 11 9 10
23 12 51 8 30 -5 38 -4 38 8 0 9 16 21 38 28 l37 13 -30 6 -30 6 30 19 c17 11
32 23 35 26 11 16 93 37 109 29 22 -11 152 -30 199 -29 20 0 31 3 25 6 -19 7
-16 23 5 23 21 0 62 42 62 63 0 20 57 60 75 53 8 -3 17 -1 20 4 8 13 74 7 79
-7z m-654 -123 c0 -5 -4 -10 -10 -10 -5 0 -10 5 -10 10 0 6 5 10 10 10 6 0 10
-4 10 -10z m5220 -60 c0 -5 -5 -10 -11 -10 -5 0 -7 5 -4 10 3 6 8 10 11 10 2
0 4 -4 4 -10z m-5260 -20 c0 -5 -9 -10 -20 -10 -11 0 -20 -5 -20 -12 0 -6 -2
-9 -5 -6 -3 3 -3 13 1 22 7 17 44 23 44 6z m-1227 -180 c4 -17 13 -30 21 -30
11 0 13 -8 9 -35 -4 -24 -1 -41 9 -53 9 -9 18 -29 22 -44 3 -15 12 -33 20 -41
15 -15 38 -85 44 -134 1 -7 8 -13 16 -13 16 0 31 -35 27 -62 -1 -10 2 -18 7
-18 12 0 52 -104 52 -135 0 -12 6 -28 14 -34 8 -7 17 -30 21 -52 4 -21 11 -41
16 -45 5 -3 9 -12 9 -21 0 -9 10 -24 22 -34 11 -11 18 -19 14 -19 -4 0 -3 -8
2 -17 12 -21 -5 -63 -25 -63 -9 0 -11 -5 -6 -12 33 -52 49 -161 26 -179 -10
-9 -13 -7 -13 8 0 11 -16 29 -39 43 -23 15 -43 38 -51 58 -6 17 -15 32 -20 32
-14 0 -100 93 -100 108 0 14 -45 100 -61 116 -5 6 -9 18 -9 28 0 10 -4 18 -10
18 -5 0 -10 11 -10 24 0 14 -4 28 -10 31 -5 3 -10 19 -10 35 0 16 -4 40 -10
54 -16 43 -30 188 -32 325 -2 110 1 135 17 165 22 40 30 39 38 -4z m698 -343
c-16 -16 -25 -1 -10 16 8 8 16 11 18 5 2 -5 -2 -15 -8 -21z m-156 -77 c-3 -5
-11 -10 -16 -10 -6 0 -7 5 -4 10 3 6 11 10 16 10 6 0 7 -4 4 -10z m-185 -344
c0 -3 -4 -8 -10 -11 -5 -3 -10 -1 -10 4 0 6 5 11 10 11 6 0 10 -2 10 -4z
m6925 -846 c3 -5 1 -10 -4 -10 -6 0 -11 5 -11 10 0 6 2 10 4 10 3 0 8 -4 11
-10z m-11035 -74 c0 -19 3 -41 6 -49 3 -8 -2 -17 -10 -20 -13 -5 -16 3 -16 48
0 30 5 55 10 55 6 0 10 -15 10 -34z m10 -116 c23 -20 17 -26 -14 -14 -9 3 -16
12 -16 20 0 18 3 18 30 -6z m-350 -20 c0 -5 -4 -10 -10 -10 -5 0 -10 5 -10 10
0 6 5 10 10 10 6 0 10 -4 10 -10z m7885 -478 c-13 -3 -14 -7 -4 -18 9 -11 7
-14 -10 -14 -21 0 -26 15 -15 44 5 12 9 13 25 3 17 -10 17 -13 4 -15z m5 -55
c0 -7 -4 -17 -9 -22 -6 -6 -6 -31 0 -64 7 -36 7 -62 0 -80 -18 -47 -30 -101
-20 -96 16 11 9 -7 -8 -21 -24 -18 -33 -17 -33 4 0 14 2 15 10 2 8 -13 10 -12
10 3 0 9 -4 17 -10 17 -6 0 -10 32 -10 75 0 46 4 75 11 75 5 0 7 5 4 10 -7 12
16 80 27 80 4 0 7 3 7 8 -3 14 1 22 11 22 6 0 10 -6 10 -13z m-2050 -102 c0
-15 6 -25 14 -25 23 0 31 -22 13 -35 -9 -7 -14 -15 -11 -18 3 -3 -6 -18 -20
-34 -14 -15 -26 -31 -26 -35 0 -5 -29 -8 -65 -8 -55 0 -65 -3 -65 -17 -1 -26
-35 -63 -59 -63 -28 0 -26 -7 9 -37 20 -16 29 -31 25 -42 -3 -10 3 -25 14 -35
16 -15 18 -27 14 -72 -4 -37 -2 -54 6 -54 6 0 11 -5 11 -10 0 -6 -15 -10 -34
-8 -42 2 -66 -16 -66 -50 0 -20 -3 -23 -12 -14 -13 13 -49 17 -46 5 1 -5 -4
-18 -12 -30 -13 -20 -16 -21 -32 -6 -16 14 -18 14 -28 -11 -5 -15 -10 -31 -10
-36 0 -4 -7 -10 -15 -14 -8 -3 -15 -1 -15 4 0 6 -16 10 -35 10 -19 0 -35 4
-35 9 0 5 -9 12 -20 16 -13 4 -19 15 -18 33 0 15 -3 37 -7 48 -6 18 0 24 35
40 41 19 41 19 37 67 -4 47 8 73 19 43 7 -18 34 -22 34 -6 0 15 77 12 83 -2 6
-17 13 -9 32 35 15 37 15 37 -10 37 -24 0 -25 3 -25 55 0 44 -4 59 -25 79 -18
19 -25 36 -25 66 0 29 -4 40 -15 40 -8 0 -15 -8 -15 -17 0 -12 -3 -14 -11 -6
-6 6 -8 19 -5 30 5 15 14 18 51 15 36 -3 45 -1 45 12 0 19 12 20 133 5 81 -10
97 -10 125 5 35 18 42 36 15 37 -15 0 -15 2 2 9 34 15 45 11 45 -15z m-320 -5
c0 -5 -18 -10 -40 -10 -22 0 -40 5 -40 10 0 6 18 10 40 10 22 0 40 -4 40 -10z
m-120 -10 c0 -5 -5 -10 -11 -10 -5 0 -7 5 -4 10 3 6 8 10 11 10 2 0 4 -4 4
-10z m460 -150 c0 -5 -4 -10 -10 -10 -5 0 -10 5 -10 10 0 6 5 10 10 10 6 0 10
-4 10 -10z m-153 -76 c-3 -3 -12 -4 -19 -1 -8 3 -5 6 6 6 11 1 17 -2 13 -5z
m2183 -144 c-10 -18 -9 -24 1 -31 10 -6 11 -11 3 -16 -17 -12 -26 -61 -11 -66
9 -3 9 -9 0 -26 -7 -11 -13 -30 -13 -40 0 -11 -4 -23 -10 -26 -5 -3 -10 -14
-10 -24 0 -10 -9 -21 -21 -24 -11 -3 -23 -15 -26 -26 -8 -30 -19 -26 -32 10
-15 43 -14 80 4 116 8 16 16 38 18 49 6 28 33 85 40 85 25 -3 31 0 19 8 -10 6
-10 10 2 20 8 7 20 10 26 6 5 -3 10 -1 10 6 0 7 3 10 6 7 3 -4 0 -16 -6 -28z
m-2130 -160 c0 -5 -4 -10 -10 -10 -5 0 -10 5 -10 10 0 6 5 10 10 10 6 0 10 -4
10 -10z m-1523 -32 c-3 -8 -6 -5 -6 6 -1 11 2 17 5 13 3 -3 4 -12 1 -19z
m1603 -18 c0 -24 -25 -33 -40 -14 -10 11 -10 17 0 28 15 19 40 10 40 -14z
m-445 -70 c-3 -5 -13 -10 -21 -10 -8 0 -14 5 -14 10 0 6 9 10 21 10 11 0 17
-4 14 -10z m62 -46 c-3 -3 -12 -4 -19 -1 -8 3 -5 6 6 6 11 1 17 -2 13 -5z
m620 -36 c-3 -8 -6 -5 -6 6 -1 11 2 17 5 13 3 -3 4 -12 1 -19z m-2097 -458 c0
-5 -4 -10 -10 -10 -5 0 -10 5 -10 10 0 6 5 10 10 10 6 0 10 -4 10 -10z m267
-92 c-3 -8 -6 -5 -6 6 -1 11 2 17 5 13 3 -3 4 -12 1 -19z m-227 -70 c0 -7 -5
-20 -10 -28 -8 -12 -10 -9 -10 13 0 15 5 27 10 27 6 0 10 -6 10 -12z m-2540
-83 c-7 -8 -19 -15 -26 -15 -8 0 -14 7 -14 15 0 10 10 15 26 15 22 0 25 -2 14
-15z m190 -95 c0 -5 -4 -10 -10 -10 -5 0 -10 5 -10 10 0 6 5 10 10 10 6 0 10
-4 10 -10z m1617 -242 c-3 -8 -6 -5 -6 6 -1 11 2 17 5 13 3 -3 4 -12 1 -19z
m-1577 -78 c0 -5 -7 -10 -15 -10 -8 0 -15 5 -15 10 0 6 7 10 15 10 8 0 15 -4
15 -10z m1098 -151 c-3 -8 -7 -3 -11 10 -4 17 -3 21 5 13 5 -5 8 -16 6 -23z
m1561 -9 c9 0 27 -7 39 -16 12 -8 26 -13 31 -10 5 3 14 -1 21 -9 11 -13 9 -20
-7 -38 -11 -12 -23 -30 -26 -39 -9 -27 -46 -22 -75 10 l-26 27 -7 -25 c-6 -23
-7 -23 -14 -6 -5 11 -3 26 4 37 7 12 7 19 1 19 -15 0 -12 77 3 83 6 3 18 -4
26 -14 7 -10 21 -19 30 -19z m-1485 15 c-4 -8 -8 -15 -10 -15 -2 0 -4 7 -4 15
0 8 4 15 10 15 5 0 7 -7 4 -15z m476 -105 c0 -5 -2 -10 -4 -10 -3 0 -8 5 -11
10 -3 6 -1 10 4 10 6 0 11 -4 11 -10z m1060 -76 c0 -8 -4 -14 -10 -14 -5 0
-10 9 -10 21 0 11 5 17 10 14 6 -3 10 -13 10 -21z m-1 -94 c5 0 11 10 14 22 5
18 8 19 22 8 16 -13 14 -44 -7 -99 -8 -22 -10 -23 -27 -7 -9 9 -21 13 -26 9
-4 -5 -5 6 -2 22 4 20 0 36 -11 48 -16 18 -15 20 3 33 19 14 20 13 23 -10 2
-15 7 -26 11 -26z m-1489 -20 c0 -5 -4 -10 -10 -10 -5 0 -10 5 -10 10 0 6 5
10 10 10 6 0 10 -4 10 -10z m50 -14 c0 -3 -4 -8 -10 -11 -5 -3 -10 -1 -10 4 0
6 5 11 10 11 6 0 10 -2 10 -4z m110 -87 c0 -4 15 -22 33 -38 l32 -31 -38 0
c-21 0 -47 -5 -58 -10 -13 -7 -19 -7 -19 0 0 5 -7 10 -15 10 -8 0 -15 6 -15
14 0 7 7 19 15 26 13 11 15 8 15 -14 0 -14 4 -26 9 -26 6 0 6 12 0 32 -14 49
-12 56 16 50 14 -2 25 -8 25 -13z m1410 1 c0 -5 -4 -10 -9 -10 -6 0 -13 5 -16
10 -3 6 1 10 9 10 9 0 16 -4 16 -10z m-1267 -67 c-7 -2 -19 -2 -25 0 -7 3 -2
5 12 5 14 0 19 -2 13 -5z m5 -162 c-15 -5 -21 7 -13 26 7 17 8 17 15 -2 4 -11
3 -22 -2 -24z m76 14 c3 -8 -5 -15 -20 -18 -18 -3 -24 0 -24 13 0 9 3 19 6 23
9 8 32 -2 38 -18z m526 0 c0 -8 -7 -15 -15 -15 -26 0 -18 20 13 29 1 1 2 -6 2
-14z m1040 -345 c0 -5 -7 -7 -15 -4 -8 4 -15 8 -15 10 0 2 7 4 15 4 8 0 15 -4
15 -10z m848 -342 c22 -22 14 -45 -18 -51 -16 -4 -37 -4 -45 -1 -19 8 -20 44
0 44 8 0 15 5 15 10 0 14 33 13 48 -2z m242 -54 c0 -12 -2 -12 -14 -2 -8 7
-12 16 -9 21 7 11 23 -2 23 -19z m-710 -268 c0 -3 -4 -8 -10 -11 -5 -3 -10 -1
-10 4 0 6 5 11 10 11 6 0 10 -2 10 -4z m160 -6 c11 -7 6 -10 -20 -10 -26 0
-31 3 -20 10 8 5 17 10 20 10 3 0 12 -5 20 -10z m80 -30 c0 -5 -7 -10 -15 -10
-8 0 -15 5 -15 10 0 6 7 10 15 10 8 0 15 -4 15 -10z m20 -65 c0 -20 -5 -25
-25 -25 -29 0 -31 7 -8 32 22 25 33 23 33 -7z"/>
<path d="M8455 9630 c3 -5 8 -10 11 -10 2 0 4 5 4 10 0 6 -5 10 -11 10 -5 0
-7 -4 -4 -10z"/>
<path d="M8450 9209 c0 -5 5 -7 10 -4 6 3 10 8 10 11 0 2 -4 4 -10 4 -5 0 -10
-5 -10 -11z"/>
<path d="M5820 6285 c0 -8 5 -15 10 -15 6 0 10 7 10 15 0 8 -4 15 -10 15 -5 0
-10 -7 -10 -15z"/>
<path d="M6160 3499 c0 -11 5 -17 10 -14 6 3 10 13 10 21 0 8 -4 14 -10 14 -5
0 -10 -9 -10 -21z"/>
<path d="M11091 15614 c0 -11 3 -14 6 -6 3 7 2 16 -1 19 -3 4 -6 -2 -5 -13z"/>
<path d="M7520 14661 c0 -4 11 -6 25 -3 14 2 25 6 25 8 0 2 -11 4 -25 4 -14 0
-25 -4 -25 -9z"/>
<path d="M7528 14438 c9 -9 15 -9 24 0 9 9 7 12 -12 12 -19 0 -21 -3 -12 -12z"/>
<path d="M6317 14069 c-4 -16 -3 -18 9 -8 16 13 19 29 5 29 -5 0 -11 -9 -14
-21z"/>
<path d="M4785 13640 c3 -5 8 -10 11 -10 2 0 4 5 4 10 0 6 -5 10 -11 10 -5 0
-7 -4 -4 -10z"/>
<path d="M4480 13628 c-86 -35 -165 -85 -110 -71 11 3 23 9 26 14 7 12 54 11
54 -1 0 -9 16 -5 85 26 17 7 43 16 59 19 15 3 27 7 25 9 -11 9 -118 12 -139 4z"/>
<path d="M11985 12010 c-3 -5 -1 -10 4 -10 6 0 11 5 11 10 0 6 -2 10 -4 10 -3
0 -8 -4 -11 -10z"/>
<path d="M11400 11668 c-25 -27 -30 -39 -26 -62 8 -40 13 -43 35 -20 14 16 37
114 26 114 -1 0 -17 -15 -35 -32z"/>
<path d="M5180 11660 c0 -5 5 -10 10 -10 6 0 10 5 10 10 0 6 -4 10 -10 10 -5
0 -10 -4 -10 -10z"/>
<path d="M20 10744 c34 -7 158 -9 147 -2 -7 4 -46 7 -87 7 -41 -1 -68 -3 -60
-5z"/>
<path d="M275 10739 c-4 -5 -21 -8 -38 -5 l-32 5 34 -11 c24 -8 41 -9 62 -1
16 6 27 7 23 2 -3 -5 12 -9 33 -9 l38 0 -29 15 c-33 17 -82 20 -91 4z"/>
<path d="M1396 10694 c-4 -9 -23 -14 -58 -14 -38 -1 -48 -3 -37 -10 20 -12
331 -25 584 -25 105 0 192 -3 195 -6 8 -10 160 -17 160 -7 0 4 -30 8 -67 8
-49 0 -64 3 -53 10 11 8 -8 10 -65 8 -44 -1 -85 1 -91 5 -6 3 -87 7 -180 9
-107 1 -172 5 -176 12 -5 7 -8 7 -8 -1 0 -7 -9 -13 -20 -13 -11 0 -20 5 -20
11 0 7 -21 9 -60 6 -33 -3 -60 -2 -60 3 0 14 -39 18 -44 4z"/>
<path d="M850 10696 c0 -10 28 -13 41 -5 10 6 7 9 -13 9 -16 0 -28 -2 -28 -4z"/>
<path d="M1190 10680 c0 -5 20 -10 45 -10 25 0 45 5 45 10 0 6 -20 10 -45 10
-25 0 -45 -4 -45 -10z"/>
<path d="M2500 10619 c0 -7 259 -18 269 -12 13 8 -17 12 -136 15 -73 3 -133 1
-133 -3z"/>
<path d="M2800 10605 c0 -9 5 -15 11 -13 6 2 11 8 11 13 0 5 -5 11 -11 13 -6
2 -11 -4 -11 -13z"/>
<path d="M2930 10600 c-12 -8 -11 -10 8 -10 12 0 22 5 22 10 0 13 -11 13 -30
0z"/>
<path d="M3105 10590 c-18 -8 -17 -9 8 -9 15 -1 27 4 27 9 0 12 -8 12 -35 0z"/>
<path d="M3173 10583 c9 -2 25 -2 35 0 9 3 1 5 -18 5 -19 0 -27 -2 -17 -5z"/>
<path d="M3248 10583 c7 -3 16 -2 19 1 4 3 -2 6 -13 5 -11 0 -14 -3 -6 -6z"/>
<path d="M3318 10583 c6 -2 18 -2 25 0 6 3 1 5 -13 5 -14 0 -19 -2 -12 -5z"/>
<path d="M3375 10570 c-18 -8 -17 -9 8 -9 16 -1 26 3 22 9 -3 6 -7 10 -8 9 -1
0 -11 -4 -22 -9z"/>
<path d="M5440 10460 c0 -5 5 -10 11 -10 5 0 7 5 4 10 -3 6 -8 10 -11 10 -2 0
-4 -4 -4 -10z"/>
<path d="M11020 10370 c0 -5 5 -10 11 -10 5 0 7 5 4 10 -3 6 -8 10 -11 10 -2
0 -4 -4 -4 -10z"/>
<path d="M11090 10145 c0 -8 5 -15 10 -15 6 0 10 7 10 15 0 8 -4 15 -10 15 -5
0 -10 -7 -10 -15z"/>
<path d="M6920 9990 c0 -5 5 -10 10 -10 6 0 10 5 10 10 0 6 -4 10 -10 10 -5 0
-10 -4 -10 -10z"/>
<path d="M5112 9800 c0 -14 2 -19 5 -12 2 6 2 18 0 25 -3 6 -5 1 -5 -13z"/>
<path d="M5235 9750 c3 -5 10 -10 16 -10 5 0 9 5 9 10 0 6 -7 10 -16 10 -8 0
-12 -4 -9 -10z"/>
<path d="M6946 9568 c-20 -28 -20 -38 -2 -38 7 0 16 12 19 28 7 36 3 38 -17
10z"/>
<path d="M10042 9340 c-5 -14 -9 -58 -8 -99 1 -57 6 -76 19 -86 16 -12 16 -14
2 -28 -20 -20 -19 -81 1 -112 9 -14 14 -33 12 -43 -3 -10 1 -23 8 -30 19 -17
35 17 37 76 2 40 6 48 35 65 36 21 37 23 20 60 -10 21 -21 27 -53 29 l-40 3
-3 79 c-3 92 -15 125 -30 86z"/>
<path d="M3965 8950 c3 -5 8 -10 11 -10 2 0 4 5 4 10 0 6 -5 10 -11 10 -5 0
-7 -4 -4 -10z"/>
<path d="M3980 8904 c0 -8 5 -12 10 -9 6 3 10 10 10 16 0 5 -4 9 -10 9 -5 0
-10 -7 -10 -16z"/>
<path d="M4014 8865 c-8 -20 3 -48 16 -40 13 8 13 55 0 55 -6 0 -13 -7 -16
-15z"/>
<path d="M7751 8784 c0 -11 3 -14 6 -6 3 7 2 16 -1 19 -3 4 -6 -2 -5 -13z"/>
<path d="M6186 8564 c-9 -24 -7 -28 9 -14 17 14 20 30 6 30 -5 0 -12 -7 -15
-16z"/>
<path d="M7480 8570 c0 -5 5 -10 11 -10 5 0 7 5 4 10 -3 6 -8 10 -11 10 -2 0
-4 -4 -4 -10z"/>
<path d="M6135 8520 c-3 -5 1 -10 9 -10 9 0 16 5 16 10 0 6 -4 10 -9 10 -6 0
-13 -4 -16 -10z"/>
<path d="M3987 8313 c-4 -3 -7 -11 -7 -17 0 -6 5 -5 12 2 6 6 9 14 7 17 -3 3
-9 2 -12 -2z"/>
<path d="M1112 8120 c0 -14 2 -19 5 -12 2 6 2 18 0 25 -3 6 -5 1 -5 -13z"/>
<path d="M1100 8050 c0 -5 5 -10 10 -10 6 0 10 5 10 10 0 6 -4 10 -10 10 -5 0
-10 -4 -10 -10z"/>
<path d="M1126 8035 c-3 -9 -12 -12 -22 -8 -14 5 -16 3 -10 -12 3 -10 2 -21
-4 -25 -12 -8 -39 -146 -33 -171 3 -11 0 -26 -7 -34 -7 -8 -13 -43 -14 -77 -2
-55 -4 -62 -26 -71 -19 -7 -21 -11 -10 -15 16 -5 30 -22 30 -35 0 -4 -15 -16
-32 -27 -23 -14 -27 -20 -15 -20 25 0 32 -28 13 -49 -11 -12 -14 -21 -7 -25 6
-4 8 -21 5 -39 -2 -18 -7 -49 -9 -70 -3 -21 -7 -43 -11 -48 -3 -5 0 -16 6 -24
9 -11 4 -22 -29 -55 l-40 -41 24 -11 c22 -10 25 -18 25 -60 0 -31 4 -48 13
-48 6 -1 2 -9 -10 -19 -19 -16 -29 -17 -60 -9 -21 6 -53 10 -70 10 -18 0 -33
3 -33 8 0 5 -56 7 -128 3 -106 -5 -133 -3 -153 9 -33 22 -105 30 -162 19 -27
-5 -50 -5 -53 0 -10 17 -37 9 -61 -17 -17 -18 -27 -23 -36 -16 -17 14 -117 26
-117 14 0 -5 9 -12 20 -15 20 -5 20 -6 3 -41 -18 -35 -36 -45 -47 -27 -4 5
-19 5 -36 -2 -26 -10 -30 -16 -30 -49 0 -36 2 -38 33 -38 17 0 50 -5 72 -11
34 -9 132 -25 315 -54 19 -3 64 -11 100 -16 36 -6 85 -12 110 -13 25 -1 53 -6
63 -10 9 -5 28 -5 42 -2 14 4 34 2 45 -4 11 -6 20 -7 20 -2 0 13 43 7 48 -6 5
-15 32 -16 32 -2 0 6 11 8 25 4 15 -4 25 -2 25 5 0 6 18 11 43 11 24 0 47 3
51 8 4 4 12 8 17 8 5 1 12 3 17 4 4 2 16 3 27 4 13 1 20 8 20 21 0 15 6 19 22
17 12 -2 24 2 28 8 8 13 52 13 60 0 14 -23 23 -6 29 58 11 107 18 156 23 165
7 12 31 210 43 354 6 73 15 156 20 184 15 78 13 140 -4 133 -11 -4 -15 13 -21
75 -4 45 -11 83 -16 86 -4 3 -6 12 -2 20 3 11 1 13 -10 10 -9 -4 -23 5 -36 22
-11 15 -25 33 -31 40 -5 7 -10 17 -10 23 0 16 -67 12 -74 -5z m-796 -980 c-7
-8 -19 -15 -26 -15 -8 0 -14 7 -14 15 0 10 10 15 26 15 22 0 25 -2 14 -15z
m900 -155 c0 -11 -4 -20 -10 -20 -5 0 -10 9 -10 20 0 11 5 20 10 20 6 0 10 -9
10 -20z"/>
<path d="M9505 8031 c-6 -11 9 -23 19 -14 9 9 7 23 -3 23 -6 0 -12 -4 -16 -9z"/>
<path d="M1321 7904 c0 -11 3 -14 6 -6 3 7 2 16 -1 19 -3 4 -6 -2 -5 -13z"/>
<path d="M8740 7910 c0 -5 5 -10 10 -10 6 0 10 5 10 10 0 6 -4 10 -10 10 -5 0
-10 -4 -10 -10z"/>
<path d="M1332 7815 c0 -16 2 -22 5 -12 2 9 2 23 0 30 -3 6 -5 -1 -5 -18z"/>
<path d="M44 7399 c-4 -7 1 -9 12 -7 11 2 24 -3 31 -12 6 -8 15 -12 19 -8 10
11 -16 38 -37 38 -10 0 -21 -5 -25 -11z"/>
<path d="M5523 7385 c-3 -9 -3 -18 0 -21 9 -9 27 6 27 22 0 19 -19 18 -27 -1z"/>
<path d="M5453 7373 c-23 -9 -14 -20 12 -15 18 3 30 -1 40 -14 13 -17 14 -17
15 -2 0 26 -37 44 -67 31z"/>
<path d="M6000 7360 c0 -5 4 -10 9 -10 6 0 13 5 16 10 3 6 -1 10 -9 10 -9 0
-16 -4 -16 -10z"/>
<path d="M918 7293 c-10 -2 -18 -9 -18 -14 0 -13 13 -11 36 6 19 14 14 17 -18
8z"/>
<path d="M5397 7293 c-10 -10 -8 -43 2 -43 9 0 21 24 21 41 0 11 -14 12 -23 2z"/>
<path d="M850 7270 c-6 -11 -7 -20 -3 -20 15 1 43 27 36 33 -11 12 -22 8 -33
-13z"/>
<path d="M383 7196 c14 -14 21 -16 30 -7 8 8 8 11 0 11 -6 0 -20 3 -30 7 -17
7 -17 6 0 -11z"/>
<path d="M128 7123 c7 -3 16 -2 19 1 4 3 -2 6 -13 5 -11 0 -14 -3 -6 -6z"/>
<path d="M4552 6740 c14 -22 24 -19 15 5 -4 8 -11 15 -17 15 -6 0 -6 -7 2 -20z"/>
<path d="M5230 6415 c-10 -13 -9 -15 9 -15 12 0 21 6 21 15 0 8 -4 15 -9 15
-5 0 -14 -7 -21 -15z"/>
<path d="M10625 6250 c-3 -5 -1 -10 4 -10 6 0 11 5 11 10 0 6 -2 10 -4 10 -3
0 -8 -4 -11 -10z"/>
<path d="M10080 5992 c0 -26 5 -53 12 -60 9 -9 9 -12 -2 -12 -10 -1 -7 -7 9
-21 31 -26 43 -14 46 48 2 55 -16 93 -45 93 -17 0 -20 -7 -20 -48z"/>
<path d="M10025 6010 c-4 -6 6 -10 22 -10 22 0 25 2 13 10 -19 12 -27 12 -35
0z"/>
<path d="M10676 5943 c-11 -11 -6 -23 9 -23 8 0 15 4 15 9 0 13 -16 22 -24 14z"/>
<path d="M808 5043 c10 -4 10 -8 1 -19 -9 -11 -9 -20 1 -39 17 -31 40 -32 40
-2 0 27 -26 67 -43 66 -8 0 -8 -2 1 -6z"/>
<path d="M1148 4873 c7 -3 16 -2 19 1 4 3 -2 6 -13 5 -11 0 -14 -3 -6 -6z"/>
<path d="M851 4814 c0 -11 3 -14 6 -6 3 7 2 16 -1 19 -3 4 -6 -2 -5 -13z"/>
<path d="M1160 4795 c0 -8 2 -15 4 -15 2 0 6 7 10 15 3 8 1 15 -4 15 -6 0 -10
-7 -10 -15z"/>
<path d="M140 4751 c0 -6 5 -13 10 -16 6 -3 10 1 10 9 0 9 -4 16 -10 16 -5 0
-10 -4 -10 -9z"/>
<path d="M1130 4745 c0 -8 5 -15 10 -15 6 0 10 7 10 15 0 8 -4 15 -10 15 -5 0
-10 -7 -10 -15z"/>
<path d="M163 4680 c0 -25 2 -35 4 -22 2 12 2 32 0 45 -2 12 -4 2 -4 -23z"/>
<path d="M560 4663 c0 -22 2 -25 10 -13 13 20 13 40 0 40 -5 0 -10 -12 -10
-27z"/>
<path d="M10947 4600 c-4 -25 -11 -85 -16 -134 -6 -48 -15 -94 -22 -102 -9
-11 -8 -18 1 -29 9 -10 9 -15 1 -15 -7 0 -11 -20 -11 -50 0 -27 -4 -50 -8 -50
-11 0 -15 -157 -6 -224 5 -36 11 -50 25 -53 19 -5 19 -23 -2 -80 -6 -17 -5
-23 5 -23 20 0 26 -35 19 -102 -6 -56 -7 -58 -35 -58 -25 0 -28 3 -22 25 4 15
2 25 -5 25 -6 0 -11 -4 -11 -10 0 -19 -27 -10 -38 14 -6 13 -23 26 -39 30 -42
11 -83 30 -83 40 0 5 -13 6 -30 3 -16 -4 -32 -2 -35 3 -3 5 -19 8 -35 6 -22
-2 -30 1 -30 13 0 13 -2 13 -9 2 -6 -9 -10 -10 -16 -2 -5 9 -10 9 -20 1 -15
-13 -46 -10 -58 5 -4 6 -11 3 -18 -7 -12 -22 -61 -25 -53 -4 4 11 -3 12 -42 4
-35 -8 -49 -7 -52 1 -2 6 -24 11 -48 11 -32 0 -44 4 -44 15 0 8 -4 15 -10 15
-5 0 -10 -7 -10 -15 0 -8 -6 -15 -14 -15 -8 0 -17 -8 -19 -17 -4 -17 -5 -17
-6 0 -1 20 -31 23 -49 5 -9 -9 -12 -6 -12 13 0 23 -3 25 -30 21 -29 -4 -41 10
-19 23 16 11 -31 55 -58 55 -13 0 -23 -4 -23 -10 0 -5 -9 -10 -20 -10 -11 0
-20 5 -20 10 0 6 9 10 20 10 16 0 20 7 20 30 0 19 5 30 14 30 11 0 13 9 9 38
-3 20 -10 39 -15 40 -9 4 -11 63 -2 86 3 9 12 16 19 16 9 0 12 22 12 83 0 45
-2 71 -5 57 -2 -13 -19 -38 -38 -55 -37 -34 -42 -45 -19 -45 8 0 15 -7 15 -15
0 -8 -7 -15 -15 -15 -8 0 -15 5 -15 10 0 21 -20 9 -26 -15 -7 -30 -40 -56 -60
-48 -9 3 -14 -2 -14 -15 0 -11 -8 -22 -20 -25 -16 -4 -20 -14 -20 -51 0 -43 2
-46 27 -46 25 0 26 -1 8 -20 -13 -14 -16 -28 -11 -52 3 -18 8 -100 11 -182 5
-117 3 -151 -7 -157 -10 -7 -9 -9 3 -9 18 0 29 -54 29 -139 0 -25 5 -62 10
-81 6 -19 15 -75 20 -125 7 -71 13 -93 30 -107 15 -12 20 -28 20 -62 0 -24 5
-48 10 -51 6 -3 10 -19 10 -35 0 -16 5 -41 11 -57 6 -15 12 -48 14 -73 6 -78
18 -125 35 -137 13 -9 18 -28 19 -73 1 -34 -3 -60 -9 -60 -18 0 -11 -55 9 -72
11 -9 22 -36 26 -66 4 -31 13 -53 22 -56 20 -8 9 -52 -19 -83 -13 -14 -18 -28
-13 -42 3 -12 2 -21 -3 -21 -5 0 -14 -10 -20 -22 -9 -20 -11 -18 -12 22 0 38
-3 42 -13 29 -11 -14 -25 -15 -97 -9 -50 5 -127 4 -185 -2 -102 -11 -239 -12
-287 -2 -18 4 -28 12 -28 24 0 9 -7 23 -15 30 -8 7 -15 18 -15 25 0 7 -9 30
-19 52 -25 49 -33 72 -38 103 -3 23 -2 24 11 7 9 -12 16 -14 21 -8 3 6 16 11
28 11 24 0 93 -22 103 -33 4 -4 29 -7 55 -7 47 0 131 -29 143 -49 4 -6 23 -11
42 -11 40 0 127 -20 120 -27 -3 -3 5 -16 18 -30 19 -20 30 -24 65 -20 50 4 68
19 46 37 -8 7 -15 17 -15 22 0 5 -11 21 -25 36 -22 23 -33 27 -80 26 -30 0
-55 3 -55 7 0 5 -19 13 -42 20 -24 6 -46 16 -50 23 -5 8 -8 7 -8 -3 0 -9 -4
-10 -12 -3 -7 5 -29 12 -48 16 -19 4 -55 11 -80 15 -25 5 -67 12 -95 16 -31 5
-64 18 -86 35 -27 22 -39 26 -53 18 -10 -5 -66 -10 -124 -9 -59 0 -125 -4
-147 -9 -34 -8 -43 -6 -61 11 -12 11 -25 16 -28 11 -3 -5 -47 -10 -97 -10 -98
0 -109 -5 -109 -53 0 -16 -11 -36 -26 -50 -15 -13 -43 -41 -62 -62 -38 -40
-85 -58 -154 -58 -89 -1 -153 36 -203 115 -17 28 -36 45 -45 44 -14 -3 -80
-120 -80 -142 0 -5 -8 -18 -17 -28 -11 -13 -14 -22 -7 -26 23 -15 44 -162 24
-162 -8 0 -11 -14 -9 -44 3 -32 1 -42 -8 -39 -9 4 -13 -7 -13 -35 0 -31 -4
-41 -20 -45 -15 -4 -20 -14 -20 -40 0 -22 6 -37 15 -41 8 -3 15 -16 15 -30 0
-14 -7 -31 -15 -40 -17 -17 -20 -82 -4 -92 6 -4 9 -20 6 -38 -4 -24 0 -35 19
-49 21 -15 24 -16 24 -2 0 8 7 15 15 15 10 0 15 10 15 29 0 36 29 88 52 95 10
2 18 11 18 20 0 9 4 16 9 16 5 0 11 18 15 40 4 26 11 40 21 40 8 0 15 8 15 18
0 10 15 23 40 34 36 15 56 48 30 48 -5 0 -10 -4 -10 -10 0 -5 -4 -10 -10 -10
-15 0 -12 36 5 50 8 6 23 9 35 5 21 -7 26 -20 12 -29 -10 -6 -3 -64 9 -71 10
-7 -1 -104 -15 -130 -6 -11 -11 -48 -11 -82 0 -35 -3 -63 -6 -63 -3 0 -12 -26
-19 -57 -11 -50 -14 -55 -25 -40 -11 15 -13 16 -19 2 -7 -19 3 -47 14 -40 5 3
12 0 16 -6 3 -6 2 -14 -5 -18 -6 -4 -12 -25 -14 -48 -2 -23 -13 -50 -25 -63
-11 -12 -32 -47 -46 -76 -14 -30 -30 -54 -36 -54 -5 0 -10 -18 -10 -39 0 -33
-4 -40 -22 -43 -14 -2 -25 -14 -32 -34 -9 -27 -13 -30 -24 -18 -19 20 -43 17
-49 -6 -9 -35 -23 -22 -23 21 l0 42 -35 -37 -35 -37 32 -30 c24 -24 33 -28 39
-17 13 20 12 -8 -1 -33 -10 -17 -8 -18 15 -9 41 16 45 13 45 -35 0 -36 -3 -45
-17 -45 -17 0 -43 -40 -43 -66 0 -7 6 -14 13 -17 13 -5 -57 -27 -85 -27 -10 0
-20 -10 -24 -25 -5 -19 -13 -25 -33 -25 -41 0 -53 -32 -65 -160 -1 -19 -10
-52 -19 -72 -8 -20 -13 -39 -10 -41 2 -3 -2 -41 -11 -84 -8 -43 -20 -123 -26
-178 -6 -55 -17 -118 -23 -140 -6 -22 -11 -47 -9 -56 1 -9 -2 -28 -7 -42 l-11
-27 2120 0 2120 0 0 2320 0 2320 -25 0 c-22 0 -25 -4 -25 -36 0 -19 4 -44 10
-54 7 -13 5 -24 -10 -43 -11 -14 -20 -28 -20 -32 0 -3 -11 -17 -25 -31 -20
-20 -25 -35 -25 -74 0 -47 -2 -50 -25 -50 -22 0 -25 4 -25 34 0 24 -5 36 -17
39 -17 4 -17 5 0 6 9 0 17 7 17 14 0 18 -24 67 -32 67 -5 0 -8 23 -8 50 0 28
-7 65 -16 83 -16 31 -17 31 -25 9 -5 -12 -13 -22 -18 -22 -5 0 -13 -9 -16 -20
-11 -34 -25 -22 -25 20 0 22 -4 40 -10 40 -5 0 -10 -13 -10 -30 0 -28 -2 -30
-40 -30 -22 0 -40 -4 -40 -10 0 -5 -6 -10 -14 -10 -7 0 -19 -7 -26 -15 -7 -8
-21 -15 -32 -15 -12 0 -18 -5 -15 -12 2 -7 10 -12 18 -10 62 15 67 14 72 -9 2
-14 5 -7 6 19 1 40 2 42 32 42 l32 0 -7 -61 c-3 -34 -6 -70 -6 -80 0 -12 -7
-19 -20 -19 -11 0 -20 -7 -20 -15 0 -26 -22 -63 -41 -68 -32 -9 -59 4 -59 27
0 13 -12 27 -30 38 -26 15 -30 23 -30 58 0 38 -14 55 -23 28 -2 -7 -2 -3 0 10
3 20 -1 22 -37 22 -22 0 -40 -4 -40 -10 0 -5 7 -10 15 -10 9 0 15 -9 15 -21 0
-15 -5 -19 -15 -15 -11 4 -15 -1 -15 -19 0 -16 -6 -25 -15 -25 -12 0 -13 -4
-5 -19 12 -23 -7 -72 -56 -147 -19 -28 -34 -61 -34 -72 0 -27 -21 -75 -37 -85
-19 -12 -6 -27 24 -27 25 0 25 -14 0 -16 -7 0 -20 -2 -29 -2 -10 -1 -18 -8
-18 -15 0 -9 11 -12 33 -9 30 3 32 2 35 -30 6 -78 5 -186 -2 -204 -8 -18 -9
-17 -17 4 -15 40 -27 14 -22 -47 4 -38 2 -61 -6 -65 -8 -5 -11 19 -11 83 l0
91 -44 0 c-39 0 -45 -3 -50 -25 -7 -29 -26 -24 -26 6 0 28 -23 19 -30 -12 -9
-38 -17 -2 -12 59 3 39 8 52 20 52 13 0 13 2 -1 18 -10 10 -17 25 -17 33 -1
10 -5 8 -15 -5 -18 -24 -36 -11 -37 25 0 13 -5 36 -10 51 -8 22 -6 32 12 55
l22 28 -26 3 c-27 3 -37 32 -12 32 10 0 16 22 21 80 4 44 10 80 14 80 7 0 9
20 11 104 0 16 5 37 10 47 7 11 7 20 0 24 -6 4 -5 13 3 26 10 16 9 21 -3 29
-10 6 -11 10 -2 10 6 0 12 5 12 10 0 6 -9 10 -19 10 -11 0 -23 5 -26 10 -3 6
-1 10 5 10 6 0 8 5 5 10 -3 6 -15 10 -25 10 -10 0 -20 6 -23 13 -2 6 -7 -8
-10 -33z m927 -342 c15 -29 15 -33 0 -50 -22 -24 -29 -23 -42 7 -7 15 -8 25
-2 25 6 0 10 11 10 25 0 34 15 31 34 -7z m-283 -18 c5 0 9 -4 9 -10 0 -16 -26
-12 -41 7 -12 15 -12 16 4 10 10 -4 23 -7 28 -7z m29 -66 c0 -8 -4 -14 -10
-14 -5 0 -10 -9 -10 -20 0 -28 -15 -25 -28 5 -16 34 -16 34 11 44 26 10 37 6
37 -15z m260 -24 c0 -5 -2 -10 -4 -10 -3 0 -8 5 -11 10 -3 6 -1 10 4 10 6 0
11 -4 11 -10z m-920 -50 c0 -11 -7 -20 -15 -20 -13 0 -14 4 -5 20 6 11 13 20
15 20 3 0 5 -9 5 -20z m935 -10 c3 -5 1 -10 -4 -10 -6 0 -11 5 -11 10 0 6 2
10 4 10 3 0 8 -4 11 -10z m-957 -101 c-2 -6 -8 -10 -13 -10 -5 0 -11 4 -13 10
-2 6 4 11 13 11 9 0 15 -5 13 -11z m955 4 c-7 -2 -19 -2 -25 0 -7 3 -2 5 12 5
14 0 19 -2 13 -5z m-2054 -75 c0 -31 -1 -31 -10 -10 -5 13 -7 28 -3 33 10 16
14 9 13 -23z m161 -22 c0 -19 -4 -23 -20 -19 -30 8 -25 43 7 43 7 0 13 -11 13
-24z m1287 -38 c-2 -13 -4 -3 -4 22 0 25 2 35 4 23 2 -13 2 -33 0 -45z m-1412
22 c0 -7 -6 -15 -12 -17 -8 -3 -13 4 -13 17 0 13 5 20 13 18 6 -3 12 -11 12
-18z m155 -60 c0 -5 -2 -10 -4 -10 -3 0 -8 5 -11 10 -3 6 -1 10 4 10 6 0 11
-4 11 -10z m-157 -7 c-7 -2 -19 -2 -25 0 -7 3 -2 5 12 5 14 0 19 -2 13 -5z
m44 1 c-3 -3 -12 -4 -19 -1 -8 3 -5 6 6 6 11 1 17 -2 13 -5z m1238 -154 c3 -5
-3 -10 -14 -10 -12 0 -21 5 -21 10 0 6 6 10 14 10 8 0 18 -4 21 -10z m-940
-770 c3 -5 -1 -10 -10 -10 -9 0 -13 5 -10 10 3 6 8 10 10 10 2 0 7 -4 10 -10z
m-26 -108 c7 -13 6 -23 -1 -30 -19 -19 -28 -14 -28 18 0 34 14 39 29 12z m-41
-33 c16 -25 11 -32 -21 -27 -21 3 -23 6 -16 26 10 28 20 28 37 1z m233 -12
c14 -4 19 0 19 15 0 20 1 20 18 5 10 -9 37 -19 60 -23 45 -7 71 -32 73 -69 1
-18 2 -18 6 -2 5 18 5 18 19 0 7 -10 14 -28 14 -40 0 -12 8 -29 17 -39 13 -13
14 -19 5 -22 -19 -6 -15 -42 6 -42 9 0 22 -12 29 -26 10 -22 10 -25 -3 -20 -9
3 -22 6 -30 6 -8 0 -14 9 -14 20 0 13 -7 20 -18 20 -25 0 -68 45 -52 55 8 5 9
10 1 18 -12 12 -131 -10 -131 -24 0 -5 -8 -9 -18 -9 -28 0 -60 41 -66 85 -4
32 -4 35 4 15 7 -20 9 -16 7 25 -2 33 2 54 13 65 10 11 16 12 18 4 2 -7 12
-14 23 -17z m-297 -104 c-13 -14 -14 -13 -8 12 4 18 2 30 -7 35 -10 7 -10 12
1 26 13 15 15 13 22 -20 6 -28 4 -41 -8 -53z m-1016 -106 c12 -11 22 -31 22
-43 0 -13 5 -35 11 -51 14 -33 20 -60 19 -90 0 -14 6 -23 15 -23 12 0 15 -14
15 -62 1 -40 6 -70 15 -82 8 -11 15 -30 15 -42 0 -23 17 -34 56 -34 13 0 24
-4 24 -10 0 -5 5 -10 10 -10 14 0 12 28 -2 33 -7 2 -10 8 -6 12 4 4 17 -2 29
-14 13 -12 19 -21 15 -21 -4 0 3 -11 16 -23 19 -20 31 -23 70 -19 39 3 47 8
52 28 5 20 13 24 46 24 50 0 57 -12 29 -52 -13 -17 -22 -44 -21 -58 2 -22 -4
-29 -33 -40 -19 -8 -35 -18 -35 -23 0 -5 -11 -7 -25 -5 -13 3 -22 1 -19 -4 3
-5 0 -15 -6 -23 -18 -22 -3 -52 30 -59 23 -4 30 -11 30 -30 0 -21 -6 -25 -41
-31 -24 -4 -37 -10 -30 -15 7 -4 11 -25 10 -52 -1 -24 1 -49 5 -56 4 -6 2 -21
-4 -32 -9 -17 -14 -18 -31 -9 -15 8 -24 8 -32 0 -8 -8 -6 -11 6 -11 13 0 17
-9 17 -38 0 -21 -4 -42 -9 -47 -5 -6 -11 -23 -13 -39 -5 -46 -25 -42 -34 6
l-8 43 -7 -40 c-4 -26 -3 -43 5 -48 6 -4 -8 -4 -31 -1 -39 6 -43 5 -43 -15 0
-13 -6 -21 -16 -21 -14 0 -16 -7 -11 -40 5 -43 -9 -65 -37 -54 -12 4 -16 0
-16 -15 0 -14 -5 -19 -15 -15 -8 4 -27 -7 -45 -24 -16 -17 -35 -32 -41 -34 -7
-2 -7 -12 0 -31 10 -27 11 -27 92 -24 55 1 84 -2 86 -9 2 -7 13 -9 25 -6 13 3
24 -1 30 -12 5 -9 15 -16 23 -16 10 0 12 -9 8 -37 -8 -52 -20 -73 -43 -73 -10
0 -24 8 -29 18 -7 11 -11 12 -11 4 0 -10 -13 -13 -43 -11 -24 2 -58 -3 -76
-11 -30 -12 -34 -11 -54 8 -19 19 -19 22 -4 22 9 0 17 4 17 9 0 5 10 12 23 15
22 6 22 6 2 22 -18 14 -20 13 -23 -5 -3 -17 -11 -21 -43 -21 -38 0 -39 -1 -39
-35 0 -33 -2 -35 -35 -35 -49 0 -113 -30 -118 -55 -2 -11 -5 3 -6 31 -1 45 2
53 22 59 l22 8 -22 4 c-13 2 -23 11 -23 19 0 20 -84 18 -137 -3 -40 -17 -56
-33 -33 -33 6 0 10 -9 10 -20 0 -10 8 -24 18 -29 16 -10 16 -10 0 -11 -21 0
-24 -16 -4 -23 7 -3 16 -17 18 -31 5 -24 3 -26 -32 -26 -35 0 -37 -2 -32 -26
2 -14 11 -28 19 -31 8 -3 11 -13 8 -24 -4 -11 -3 -19 2 -17 15 4 73 -13 79
-23 3 -6 -2 -17 -12 -24 -18 -13 -18 -14 -1 -15 9 0 17 -2 17 -4 0 -12 -90
-93 -95 -86 -4 6 -1 10 4 10 6 0 11 11 11 25 0 28 -3 29 -99 19 -56 -6 -61 -9
-61 -31 0 -13 -7 -26 -15 -29 -19 -8 -20 -34 -1 -34 7 0 19 -7 26 -15 9 -10 9
-15 1 -15 -6 0 -11 -4 -11 -8 0 -5 8 -8 18 -8 9 1 18 -3 20 -9 1 -5 -11 -11
-28 -12 -27 -1 -30 2 -30 28 0 31 -20 38 -50 19 -13 -8 -13 -10 2 -10 17 0 35
-36 23 -48 -4 -4 -15 3 -25 15 -15 19 -19 20 -24 7 -8 -20 -26 -9 -26 16 0 10
-9 21 -19 25 -25 8 -71 44 -71 56 0 13 48 11 52 -3 3 -8 9 -8 24 0 18 11 18
11 -3 12 -14 0 -23 6 -23 15 0 18 12 19 27 4 18 -18 52 10 50 43 -2 25 -6 28
-38 28 -22 0 -39 6 -42 14 -7 18 3 56 14 56 5 0 9 9 9 20 0 27 16 25 25 -2 5
-19 10 -11 21 37 31 130 32 139 23 157 -11 21 -3 88 17 141 8 20 14 49 14 63
0 14 7 32 16 41 9 9 14 29 12 48 -1 18 4 41 12 51 12 15 13 16 1 9 -11 -6 -13
-4 -8 8 3 9 9 40 12 69 10 83 14 98 30 98 8 0 15 7 15 15 0 8 8 15 18 15 14 0
14 2 3 9 -13 8 -13 12 0 27 11 13 11 18 2 21 -7 3 -13 9 -13 14 0 6 4 8 8 5
12 -7 33 9 36 26 1 9 7 23 14 31 7 8 13 28 13 43 1 76 2 94 9 94 16 0 33 82
28 142 -3 35 0 74 6 89 16 37 62 89 80 89 8 0 23 12 34 28 16 22 18 39 14 90
-3 48 -8 62 -18 58 -9 -3 -14 2 -14 13 0 10 7 22 16 25 12 4 14 14 9 36 -5 22
-3 32 9 36 9 3 16 12 16 19 0 7 8 16 18 19 38 15 62 31 62 43 0 7 11 13 24 13
14 0 27 4 30 9 10 16 110 0 134 -22z m-285 -54 c-7 -2 -19 -2 -25 0 -7 3 -2 5
12 5 14 0 19 -2 13 -5z m1860 -142 c-4 -14 3 -20 27 -25 18 -3 44 -6 57 -6 14
0 39 -6 56 -14 18 -8 62 -28 100 -45 37 -16 70 -37 73 -45 3 -9 12 -16 20 -16
8 0 14 -4 14 -10 0 -5 7 -10 15 -10 9 0 18 -7 21 -15 4 -8 10 -13 14 -10 4 3
13 -2 20 -10 20 -24 78 -39 95 -25 12 10 18 10 30 0 8 -7 15 -9 15 -4 0 4 6 0
14 -11 9 -12 20 -16 36 -12 14 3 40 -2 63 -14 23 -10 48 -19 57 -19 25 0 77
-28 84 -45 3 -8 17 -15 31 -15 14 0 28 -6 30 -12 3 -7 17 -14 31 -14 14 -1 33
-9 43 -18 10 -9 25 -16 33 -16 9 0 29 -15 44 -32 15 -18 32 -34 38 -34 6 -1
16 -2 21 -3 6 -1 4 -5 -3 -10 -11 -7 -10 -16 7 -47 12 -21 21 -54 21 -72 0
-21 9 -45 23 -62 18 -21 24 -41 26 -84 1 -53 0 -56 -23 -56 -16 0 -27 -7 -31
-20 -7 -21 -25 -28 -25 -10 0 21 -18 9 -30 -20 -10 -24 -19 -30 -41 -30 -27 0
-29 -3 -29 -40 0 -22 -4 -40 -9 -40 -5 0 -11 -12 -13 -27 l-3 -28 -37 38 c-23
23 -38 32 -41 25 -3 -10 -8 -9 -18 3 -17 20 -66 33 -74 19 -10 -16 -45 8 -45
30 0 13 -7 20 -18 20 -10 0 -26 14 -35 30 -10 17 -25 30 -33 30 -8 0 -14 8
-14 18 0 9 -20 30 -44 47 -24 16 -42 33 -39 38 2 4 -3 10 -11 13 -9 3 -16 14
-16 23 0 22 -19 41 -42 41 -13 0 -20 10 -24 30 -4 17 -13 30 -20 30 -8 0 -14
4 -14 8 0 4 -25 34 -55 67 -30 32 -55 55 -55 52 0 -4 -23 18 -52 48 -28 30
-59 57 -68 60 -10 3 -20 15 -23 25 -3 13 -17 22 -36 26 -22 5 -31 12 -31 25 0
16 -5 18 -25 13 -15 -4 -25 -2 -25 5 0 6 -14 11 -31 11 -27 0 -30 -2 -23 -22
4 -13 9 -34 10 -48 1 -14 6 -40 10 -57 5 -27 3 -33 -10 -33 -9 0 -16 -7 -16
-15 0 -19 -46 -49 -64 -42 -9 4 -16 -1 -19 -11 -2 -12 -9 -5 -23 23 -10 22
-23 43 -28 46 -4 4 -3 9 2 13 6 4 9 13 5 21 -4 11 2 15 21 15 16 0 26 6 26 15
0 10 -10 15 -30 15 -27 0 -30 2 -20 20 17 31 25 140 11 140 -23 0 -7 45 17 48
12 2 22 10 22 18 0 8 9 14 20 14 24 0 26 25 5 46 -8 9 -15 20 -15 25 0 5 7 9
15 9 8 0 15 7 15 15 0 9 9 15 24 15 19 0 23 -4 19 -19z m-548 -1 c3 -5 1 -10
-4 -10 -6 0 -11 5 -11 10 0 6 2 10 4 10 3 0 8 -4 11 -10z m-95 -160 c0 -5 -7
-10 -16 -10 -8 0 -12 5 -9 10 3 6 10 10 16 10 5 0 9 -4 9 -10z m-400 -80 c0
-5 -7 -10 -16 -10 -8 0 -12 5 -9 10 3 6 10 10 16 10 5 0 9 -4 9 -10z m118 -58
c3 -9 -2 -13 -14 -10 -9 1 -19 9 -22 16 -3 9 2 13 14 10 9 -1 19 -9 22 -16z
m-1078 -52 c0 -11 -4 -20 -9 -20 -5 0 -7 9 -4 20 3 11 7 20 9 20 2 0 4 -9 4
-20z m1315 -56 c26 -17 45 -22 86 -23 21 -1 28 -7 33 -31 4 -22 11 -30 26 -30
17 0 20 -6 18 -32 -3 -29 0 -33 20 -31 17 2 22 -2 22 -19 0 -17 -3 -19 -12
-10 -7 7 -20 12 -29 12 -9 0 -19 10 -22 22 -5 18 -8 19 -22 8 -9 -8 -23 -26
-31 -42 -18 -34 -4 -68 26 -68 11 0 20 -4 20 -10 0 -5 -6 -10 -14 -10 -8 0
-18 5 -21 10 -3 6 -14 10 -23 10 -12 0 -13 -3 -4 -12 16 -16 15 -36 -2 -54 -8
-7 -12 -23 -9 -34 3 -11 0 -20 -6 -20 -6 0 -11 9 -11 20 0 11 -7 20 -15 20
-21 0 -19 -23 4 -49 22 -25 18 -59 -4 -41 -9 7 -16 6 -25 -5 -10 -12 -16 -13
-26 -4 -11 9 -14 8 -14 -5 0 -11 9 -16 30 -16 24 0 33 -6 40 -26 11 -29 6 -44
-15 -44 -23 0 -28 -20 -9 -35 27 -20 34 -18 34 10 0 14 5 25 10 25 15 0 12
-39 -4 -56 -21 -20 -166 -20 -166 0 0 8 -11 23 -25 34 -24 19 -24 21 -15 101
9 81 6 111 -11 111 -5 0 -9 18 -9 40 0 33 3 40 20 40 27 0 25 16 -4 36 -14 8
-28 29 -31 45 -4 17 -12 28 -18 26 -18 -6 -20 -27 -3 -27 9 0 16 -4 16 -10 0
-16 -77 -12 -83 4 -4 10 -1 13 9 9 10 -4 12 0 8 11 -8 20 38 66 67 66 12 0 19
7 19 18 0 24 19 42 46 42 12 0 24 6 27 14 3 8 21 16 39 19 18 2 34 5 36 5 1 1
14 -5 27 -14z m65 6 c11 -7 7 -10 -18 -10 -20 0 -31 4 -27 10 8 13 26 13 45 0z
m-253 -242 c-3 -8 -6 -5 -6 6 -1 11 2 17 5 13 3 -3 4 -12 1 -19z m-327 -158
c0 -5 -18 -10 -40 -10 -43 0 -49 -6 -24 -25 17 -12 12 -55 -6 -55 -11 0 -22
63 -14 84 7 18 84 24 84 6z m0 -35 c0 -8 -4 -15 -10 -15 -5 0 -7 7 -4 15 4 8
8 15 10 15 2 0 4 -7 4 -15z m629 -22 c-11 -20 -11 -27 -1 -30 21 -8 13 -23
-13 -23 -14 0 -25 5 -25 10 0 6 -7 10 -15 10 -8 0 -15 9 -15 20 0 16 7 20 30
20 18 0 33 6 37 15 3 9 8 13 11 10 3 -3 -1 -17 -9 -32z m1715 6 c-10 -16 -24
-9 -24 12 0 18 2 19 15 9 8 -7 12 -16 9 -21z m-1684 -93 c0 -8 -4 -18 -10 -21
-5 -3 -10 3 -10 14 0 12 5 21 10 21 6 0 10 -6 10 -14z m-740 -15 c0 -10 -65
-18 -95 -12 -20 4 -20 4 0 12 28 11 95 11 95 0z m434 -10 c11 -4 15 -10 10
-13 -5 -4 -18 0 -29 8 -20 15 -12 17 19 5z m43 -73 c-3 -8 -6 -5 -6 6 -1 11 2
17 5 13 3 -3 4 -12 1 -19z m-737 -44 c0 -8 -4 -12 -10 -9 -5 3 -10 10 -10 16
0 5 5 9 10 9 6 0 10 -7 10 -16z m913 -45 c5 -4 5 -9 -2 -13 -6 -4 -11 -2 -11
4 0 8 -11 10 -32 6 -26 -5 -28 -4 -12 3 12 5 25 15 30 22 6 10 9 10 12 -1 3
-8 9 -18 15 -21z m87 16 c10 -12 10 -15 -4 -15 -9 0 -16 7 -16 15 0 8 2 15 4
15 2 0 9 -7 16 -15z m-151 -91 c13 0 26 -4 28 -10 2 -7 -7 -11 -25 -9 -36 2
-54 13 -46 27 4 6 9 7 13 0 3 -5 17 -9 30 -8z m-1804 -14 c-3 -5 -10 -10 -16
-10 -5 0 -9 5 -9 10 0 6 7 10 16 10 8 0 12 -4 9 -10z m1852 -62 c-3 -8 -6 -5
-6 6 -1 11 2 17 5 13 3 -3 4 -12 1 -19z m-1277 -48 c0 -5 -5 -10 -11 -10 -5 0
-7 5 -4 10 3 6 8 10 11 10 2 0 4 -4 4 -10z m-320 -30 c0 -5 -5 -10 -11 -10 -5
0 -7 5 -4 10 3 6 8 10 11 10 2 0 4 -4 4 -10z m483 -25 c4 -8 2 -17 -3 -20 -6
-4 -10 3 -10 14 0 25 6 27 13 6z m-358 -325 c3 -5 2 -10 -4 -10 -5 0 -16 -3
-25 -6 -11 -4 -16 -1 -16 10 0 18 35 22 45 6z"/>
<path d="M9140 2125 c0 -8 5 -15 10 -15 6 0 10 7 10 15 0 8 -4 15 -10 15 -5 0
-10 -7 -10 -15z"/>
<path d="M9450 2076 c0 -9 30 -14 35 -6 4 6 -3 10 -14 10 -12 0 -21 -2 -21 -4z"/>
<path d="M9435 2000 c-3 -5 -1 -10 4 -10 6 0 11 5 11 10 0 6 -2 10 -4 10 -3 0
-8 -4 -11 -10z"/>
<path d="M9090 1436 c0 -2 7 -6 15 -10 8 -3 15 -1 15 4 0 6 -7 10 -15 10 -8 0
-15 -2 -15 -4z"/>
<path d="M9040 1385 c0 -11 8 -13 33 -8 50 9 56 23 9 23 -30 0 -42 -4 -42 -15z"/>
<path d="M9120 1349 c0 -5 5 -7 10 -4 6 3 10 8 10 11 0 2 -4 4 -10 4 -5 0 -10
-5 -10 -11z"/>
<path d="M9246 1103 c-11 -11 -6 -23 9 -23 8 0 15 4 15 9 0 13 -16 22 -24 14z"/>
<path d="M9245 1050 c-3 -5 1 -10 10 -10 9 0 13 5 10 10 -3 6 -8 10 -10 10 -2
0 -7 -4 -10 -10z"/>
<path d="M8445 1001 c-3 -5 -1 -12 5 -16 5 -3 10 1 10 9 0 18 -6 21 -15 7z"/>
<path d="M8560 770 c0 -28 -2 -30 -40 -30 -22 0 -40 -4 -40 -10 0 -5 19 -10
43 -10 40 0 44 3 55 33 15 43 15 47 -3 47 -10 0 -15 -10 -15 -30z"/>
<path d="M11540 1450 c0 -5 7 -10 16 -10 8 0 12 5 9 10 -3 6 -10 10 -16 10 -5
0 -9 -4 -9 -10z"/>
<path d="M11582 1407 c-15 -43 -15 -47 3 -47 11 0 15 11 15 40 0 22 -1 40 -3
40 -2 0 -8 -15 -15 -33z"/>
<path d="M9922 1700 c0 -14 2 -19 5 -12 2 6 2 18 0 25 -3 6 -5 1 -5 -13z"/>
<path d="M9992 1700 c0 -14 2 -19 5 -12 2 6 2 18 0 25 -3 6 -5 1 -5 -13z"/>
<path d="M10000 1641 c0 -12 5 -21 10 -21 6 0 10 6 10 14 0 8 -4 18 -10 21 -5
3 -10 -3 -10 -14z"/>
<path d="M9805 1430 c3 -5 12 -7 20 -3 21 7 19 13 -6 13 -11 0 -18 -4 -14 -10z"/>
<path d="M11920 4550 c0 -5 4 -10 9 -10 6 0 13 5 16 10 3 6 -1 10 -9 10 -9 0
-16 -4 -16 -10z"/>
<path d="M9912 4300 c0 -14 2 -19 5 -12 2 6 2 18 0 25 -3 6 -5 1 -5 -13z"/>
<path d="M10481 4043 c-1 -24 4 -43 9 -43 12 0 12 24 0 60 -7 21 -8 19 -9 -17z"/>
<path d="M11121 4014 c0 -11 3 -14 6 -6 3 7 2 16 -1 19 -3 4 -6 -2 -5 -13z"/>
<path d="M11120 3935 c0 -8 7 -15 16 -15 14 0 14 3 4 15 -7 8 -14 15 -16 15
-2 0 -4 -7 -4 -15z"/>
<path d="M10896 3781 c-4 -7 -5 -15 -2 -18 9 -9 19 4 14 18 -4 11 -6 11 -12 0z"/>
<path d="M4087 3403 c-12 -11 -8 -23 8 -23 8 0 15 7 15 15 0 16 -12 20 -23 8z"/>
<path d="M4720 3314 c0 -8 5 -12 10 -9 6 4 8 11 5 16 -9 14 -15 11 -15 -7z"/>
<path d="M4800 3249 c0 -12 6 -16 20 -12 15 4 20 0 20 -16 0 -12 -6 -21 -15
-21 -12 0 -13 -4 -6 -19 6 -10 7 -21 4 -25 -3 -3 -1 -6 5 -6 15 0 68 -51 76
-73 3 -11 15 -21 25 -24 11 -3 17 -11 15 -17 -3 -7 2 -18 10 -25 8 -7 12 -19
9 -28 -3 -8 0 -19 7 -23 8 -5 21 -30 29 -57 18 -54 46 -95 75 -106 15 -6 16
-10 6 -22 -11 -13 -10 -18 6 -30 16 -13 17 -16 4 -25 -13 -8 -11 -11 8 -16 12
-4 22 -10 22 -15 0 -5 10 -19 22 -31 29 -29 50 -14 63 50 8 43 16 55 48 76 21
15 43 26 50 26 7 0 22 7 34 15 18 12 34 13 89 6 38 -6 68 -9 69 -8 0 1 6 13
13 25 15 26 8 42 -9 25 -14 -14 -42 -5 -32 10 4 6 -2 8 -15 5 -13 -4 -23 0
-26 8 -8 21 -37 18 -29 -3 3 -10 -5 -3 -18 14 -14 19 -33 33 -45 33 -11 0 -24
3 -28 7 -8 8 -12 9 -57 11 -14 1 -36 11 -49 22 -13 11 -32 20 -42 20 -10 0
-30 11 -44 25 -14 14 -27 25 -29 25 -3 0 -28 23 -56 50 -28 28 -55 50 -60 50
-14 0 -79 70 -79 85 0 19 -18 28 -57 30 -25 0 -33 -3 -33 -16z"/>
<path d="M4400 3190 c0 -5 5 -10 10 -10 6 0 10 5 10 10 0 6 -4 10 -10 10 -5 0
-10 -4 -10 -10z"/>
<path d="M2890 2957 c0 -2 7 -18 16 -35 8 -18 13 -36 10 -41 -6 -10 32 -27 40
-18 8 8 -41 97 -53 97 -7 0 -13 -2 -13 -3z"/>
<path d="M4394 2863 c-14 -22 5 -63 29 -63 13 0 17 9 17 40 0 31 -4 40 -18 40
-9 0 -22 -8 -28 -17z"/>
<path d="M5516 2823 c-9 -23 8 -36 34 -28 20 6 21 8 4 26 -21 23 -30 24 -38 2z"/>
<path d="M2960 2810 c0 -5 5 -10 11 -10 5 0 7 5 4 10 -3 6 -8 10 -11 10 -2 0
-4 -4 -4 -10z"/>
<path d="M4640 2736 c0 -33 1 -34 24 -23 18 9 22 16 15 28 -4 9 -15 19 -24 23
-12 4 -15 -2 -15 -28z"/>
<path d="M2960 2735 c0 -8 4 -15 10 -15 5 0 7 7 4 15 -4 8 -8 15 -10 15 -2 0
-4 -7 -4 -15z"/>
<path d="M4705 2650 c-3 -5 -1 -10 4 -10 6 0 11 5 11 10 0 6 -2 10 -4 10 -3 0
-8 -4 -11 -10z"/>
<path d="M3745 2410 c-3 -5 -1 -10 4 -10 6 0 11 5 11 10 0 6 -2 10 -4 10 -3 0
-8 -4 -11 -10z"/>
<path d="M1920 2330 c0 -5 18 -10 40 -10 22 0 40 5 40 10 0 6 -18 10 -40 10
-22 0 -40 -4 -40 -10z"/>
<path d="M4630 2197 c0 -6 -7 -18 -14 -26 -9 -10 -12 -22 -7 -30 10 -16 31 -6
31 14 0 7 11 16 25 19 14 4 23 10 21 15 -8 13 -56 20 -56 8z"/>
<path d="M8126 2141 c-4 -5 -2 -12 3 -15 5 -4 12 -2 15 3 4 5 2 12 -3 15 -5 4
-12 2 -15 -3z"/>
<path d="M4800 2120 c0 -5 7 -10 15 -10 8 0 15 5 15 10 0 6 -7 10 -15 10 -8 0
-15 -4 -15 -10z"/>
<path d="M3490 2076 c0 -2 7 -9 15 -16 12 -10 15 -10 15 4 0 9 -7 16 -15 16
-8 0 -15 -2 -15 -4z"/>
<path d="M2560 1990 c0 -5 7 -7 15 -4 8 4 15 8 15 10 0 2 -7 4 -15 4 -8 0 -15
-4 -15 -10z"/>
<path d="M4108 1748 c9 -9 15 -9 24 0 9 9 7 12 -12 12 -19 0 -21 -3 -12 -12z"/>
<path d="M4080 1722 c0 -19 -5 -22 -40 -22 -22 0 -40 -4 -40 -10 0 -5 -11 -10
-25 -10 -23 0 -25 -3 -19 -27 13 -53 22 -60 29 -23 6 34 8 35 53 35 34 0 46 4
44 14 -1 7 3 20 9 27 9 11 9 18 1 26 -9 9 -12 7 -12 -10z"/>
<path d="M4144 1728 c-11 -17 6 -23 50 -20 25 2 46 8 46 12 0 10 -90 18 -96 8z"/>
<path d="M4105 1690 c-3 -5 3 -10 15 -10 12 0 18 5 15 10 -3 6 -10 10 -15 10
-5 0 -12 -4 -15 -10z"/>
<path d="M4240 1690 c0 -5 5 -10 11 -10 5 0 7 5 4 10 -3 6 -8 10 -11 10 -2 0
-4 -4 -4 -10z"/>
<path d="M8073 1595 c2 -25 7 -31 31 -33 35 -4 58 14 36 29 -8 5 -25 7 -37 4
-15 -3 -23 0 -27 12 -2 10 -4 5 -3 -12z"/>
<path d="M7267 1362 c-25 -26 -27 -31 -13 -44 15 -16 60 -14 83 4 17 14 0 62
-23 66 -11 2 -31 -9 -47 -26z"/>
<path d="M4700 1350 c0 -5 5 -10 10 -10 6 0 10 5 10 10 0 6 -4 10 -10 10 -5 0
-10 -4 -10 -10z"/>
<path d="M4640 1321 c0 -12 6 -21 15 -21 8 0 15 -4 15 -10 0 -5 7 -10 15 -10
9 0 15 10 15 26 0 20 -4 25 -16 20 -9 -4 -23 -1 -30 5 -11 9 -14 7 -14 -10z"/>
<path d="M7517 1273 c-3 -31 -4 -59 -1 -62 2 -3 14 5 26 16 17 18 19 27 12 59
-14 58 -30 52 -37 -13z"/>
<path d="M7272 1261 c-22 -50 6 -106 47 -96 39 9 52 31 38 63 -27 60 -66 76
-85 33z"/>
<path d="M4640 1264 c0 -9 5 -14 12 -12 18 6 21 28 4 28 -9 0 -16 -7 -16 -16z"/>
<path d="M7984 1189 c-3 -6 -1 -16 5 -22 8 -8 11 -5 11 11 0 24 -5 28 -16 11z"/>
<path d="M7280 1139 c0 -5 5 -7 10 -4 6 3 10 8 10 11 0 2 -4 4 -10 4 -5 0 -10
-5 -10 -11z"/>
<path d="M7985 1130 c-3 -5 -1 -10 4 -10 6 0 11 5 11 10 0 6 -2 10 -4 10 -3 0
-8 -4 -11 -10z"/>
<path d="M7400 1109 c0 -5 5 -7 10 -4 6 3 10 8 10 11 0 2 -4 4 -10 4 -5 0 -10
-5 -10 -11z"/>
<path d="M7331 1061 c-26 -21 -32 -32 -27 -49 4 -12 13 -22 19 -23 7 0 19 -2
29 -4 9 -2 31 12 49 31 32 33 32 34 14 54 -24 27 -43 25 -84 -9z"/>
<path d="M3644 547 c-71 -35 -151 -72 -177 -81 -48 -18 -171 -79 -214 -107
-26 -16 -30 -39 -8 -39 9 0 18 -7 21 -15 6 -14 155 -115 172 -115 16 0 130
-60 142 -75 7 -8 16 -15 21 -15 12 0 109 -62 109 -71 0 -15 64 -29 131 -29 70
0 83 5 219 90 8 5 47 25 85 44 39 19 95 53 125 76 49 37 52 41 32 47 -12 3
-22 11 -22 17 0 16 -32 42 -61 49 -13 4 -35 16 -49 27 -14 11 -56 41 -95 67
-38 25 -85 59 -103 75 -18 15 -39 28 -47 28 -8 0 -20 8 -27 18 -16 23 -92 72
-111 72 -7 0 -72 -28 -143 -63z m258 -77 c31 -17 59 -38 62 -47 4 -9 9 -13 12
-10 13 12 184 -90 184 -110 0 -12 -87 -93 -100 -93 -4 0 -52 -21 -105 -46 -92
-43 -157 -60 -180 -46 -5 4 -16 7 -23 8 -8 2 -22 10 -31 18 -10 9 -22 16 -27
16 -13 1 -117 100 -138 131 -16 26 -16 27 29 72 25 26 71 58 103 72 31 15 66
31 77 37 17 10 59 25 76 27 3 1 31 -13 61 -29z"/>
<path d="M3745 354 c-16 -8 -37 -22 -45 -30 -13 -13 -12 -17 10 -34 14 -11 31
-20 38 -20 6 0 12 -6 12 -13 0 -6 14 -18 30 -26 26 -11 36 -11 63 0 17 7 39
21 49 31 16 16 16 19 2 30 -8 7 -23 20 -32 28 -29 25 -71 50 -84 50 -7 0 -26
-7 -43 -16z"/>
<path d="M5680 600 c0 -5 7 -10 15 -10 8 0 15 5 15 10 0 6 -7 10 -15 10 -8 0
-15 -4 -15 -10z"/>
</g>
</svg>
