<?xml version="1.0" standalone="no"?>
<!DOCTYPE svg PUBLIC "-//W3C//DTD SVG 20010904//EN"
 "http://www.w3.org/TR/2001/REC-SVG-20010904/DTD/svg10.dtd">
<svg version="1.0" xmlns="http://www.w3.org/2000/svg"
 width="1080.000000pt" height="1105.000000pt" viewBox="0 0 1080.000000 1105.000000"
 preserveAspectRatio="xMidYMid meet">

<g transform="translate(0.000000,1105.000000) scale(0.100000,-0.100000)"
fill="#000000" stroke="none">
<path d="M0 5525 l0 -5525 5400 0 5400 0 0 5525 0 5525 -5400 0 -5400 0 0
-5525z m5840 4985 c826 -78 1598 -350 2290 -808 193 -128 279 -191 430 -316
173 -143 522 -489 641 -636 396 -487 676 -984 875 -1555 126 -363 247 -913
193 -880 -5 4 -9 1 -9 -4 0 -6 -5 -11 -12 -11 -14 0 -68 -50 -68 -63 0 -5 -25
-35 -55 -65 -30 -31 -55 -60 -55 -65 0 -6 -42 -53 -94 -106 -51 -53 -141 -150
-198 -216 -58 -66 -117 -131 -132 -144 -14 -14 -26 -30 -26 -38 0 -7 -3 -13
-7 -13 -5 0 -21 -18 -37 -40 -17 -22 -35 -40 -41 -40 -6 0 -18 -12 -27 -27 -9
-16 -62 -75 -118 -132 -115 -118 -153 -169 -149 -203 2 -21 -5 -65 -17 -110
-7 -26 -24 -22 -24 5 0 36 -11 67 -24 67 -16 0 -66 -52 -66 -68 0 -7 -6 -12
-12 -12 -7 0 -44 -35 -83 -77 -80 -89 -197 -216 -205 -223 -3 -3 -20 -23 -38
-45 -19 -22 -66 -74 -105 -116 -101 -106 -142 -159 -123 -159 9 0 16 5 16 10
0 6 9 10 20 10 27 0 25 -11 -6 -35 -26 -20 -85 -74 -186 -172 -30 -29 -59 -53
-64 -53 -6 0 -29 -22 -51 -48 -22 -26 -57 -59 -77 -72 -20 -14 -36 -30 -36
-37 0 -6 -25 -33 -55 -59 -30 -26 -55 -53 -55 -59 0 -6 -42 -54 -92 -107 -51
-53 -114 -119 -139 -148 l-47 -52 55 -96 c30 -53 58 -99 63 -102 5 -3 31 -52
59 -110 28 -58 57 -114 64 -125 6 -11 13 -22 15 -24 1 -3 9 5 18 17 8 12 21
22 27 22 7 0 39 25 72 55 32 30 64 55 71 55 7 0 29 20 49 45 20 24 54 52 76
62 21 9 39 20 39 25 0 16 120 91 181 113 120 43 143 53 153 66 6 8 27 23 46
33 19 11 49 32 67 47 17 15 46 31 65 37 52 16 148 24 148 12 0 -5 -13 -10 -29
-10 -15 0 -53 -13 -84 -30 -31 -16 -62 -30 -68 -30 -7 0 -37 -17 -68 -37 l-56
-38 90 -3 c49 -2 94 -7 98 -11 13 -13 -75 -23 -132 -15 -44 6 -55 4 -74 -13
-12 -11 -39 -26 -59 -32 -24 -8 -45 -24 -58 -46 -11 -18 -26 -35 -33 -38 -7
-2 -62 -47 -122 -98 -61 -52 -122 -101 -135 -111 -25 -16 -25 -16 22 -15 58 2
63 -14 9 -28 -22 -5 -50 -20 -63 -31 -13 -12 -37 -29 -55 -38 -18 -9 -36 -22
-40 -30 -4 -7 -22 -20 -38 -29 -34 -17 -71 -54 -63 -63 4 -3 30 10 60 30 29
19 67 38 83 41 17 4 39 10 50 15 11 5 47 13 80 19 63 10 103 26 170 66 22 14
48 25 58 25 10 0 64 24 121 54 57 29 119 59 137 65 19 6 50 21 69 33 19 12 73
39 120 61 46 21 87 41 90 45 9 13 144 53 170 50 22 -3 27 4 46 58 11 33 30 70
42 82 12 12 22 29 22 37 0 8 15 32 34 52 18 21 36 48 40 59 6 20 53 40 65 28
3 -2 -4 -21 -14 -42 -10 -20 -20 -47 -21 -59 -5 -43 13 -23 36 38 19 49 21 62
10 69 -17 11 0 35 41 56 15 7 30 23 34 34 8 26 23 25 46 -2 23 -25 24 -36 5
-57 -8 -9 -18 -29 -21 -46 -7 -27 -3 -24 29 20 20 28 42 65 48 83 14 38 19 39
43 12 18 -20 18 -22 -3 -61 -25 -46 -27 -70 -10 -87 9 -9 8 -16 -4 -29 -8 -10
-25 -49 -37 -87 -30 -95 -53 -123 -125 -156 -34 -15 -67 -34 -75 -43 -7 -10
-17 -17 -22 -17 -22 0 -89 -59 -103 -91 -13 -29 -24 -38 -52 -43 -38 -8 -54
-33 -54 -87 0 -24 -4 -29 -24 -29 -31 0 -48 -22 -44 -57 5 -45 34 -41 59 9 12
24 21 45 19 48 -1 3 7 10 19 16 11 6 29 18 39 27 10 10 26 17 35 17 11 0 17 8
17 23 0 24 54 87 74 87 7 0 23 12 37 26 25 27 70 54 89 54 6 0 11 -12 10 -27
-1 -16 -2 -34 -1 -40 2 -22 27 -14 39 12 11 24 29 30 73 26 16 -2 38 35 54 87
3 12 10 22 16 22 5 0 15 16 23 35 8 19 20 35 25 35 6 0 11 9 11 20 0 11 12 27
28 37 15 10 33 24 41 31 7 7 16 11 19 8 6 -7 -36 -126 -52 -146 -7 -8 -20 -36
-30 -62 -15 -41 -23 -49 -59 -61 -27 -9 -43 -21 -46 -33 -2 -10 -12 -31 -23
-46 l-19 -28 30 0 c25 0 29 -3 24 -17 -3 -10 -11 -25 -18 -33 -7 -8 -27 -42
-44 -74 -56 -104 -56 -104 -78 -59 -10 21 -17 57 -17 80 1 24 -2 43 -6 43 -14
0 -30 -25 -30 -47 0 -13 -4 -23 -9 -23 -4 0 -26 -14 -47 -31 -21 -17 -51 -33
-67 -36 -17 -4 -32 -15 -37 -28 -5 -13 -14 -26 -19 -30 -20 -12 -11 -21 47
-45 l57 -25 -51 -6 c-28 -4 -68 -4 -90 0 -36 6 -39 9 -45 46 l-5 40 -17 -37
c-9 -21 -17 -45 -17 -54 0 -10 -8 -26 -17 -37 -10 -10 -23 -35 -28 -56 -8 -28
-18 -39 -45 -48 -19 -7 -29 -12 -21 -12 9 -1 11 -9 7 -28 -4 -16 -7 -36 -7
-45 0 -10 -13 -21 -34 -28 -18 -6 -36 -17 -39 -25 -7 -18 3 -45 16 -45 5 0 8
-10 6 -22 -2 -19 -10 -23 -38 -24 -19 0 -42 -4 -52 -8 -21 -10 -42 -60 -35
-86 6 -23 3 -24 -24 -9 -32 16 -59 -14 -59 -65 0 -54 -20 -92 -46 -88 -10 2
-20 8 -22 13 -11 29 -198 -10 -320 -67 -29 -13 -63 -24 -76 -24 -13 0 -29 -7
-36 -15 -11 -13 -10 -18 4 -28 19 -14 13 -42 -11 -51 -24 -10 -33 3 -22 31 5
14 8 27 6 29 -2 2 -25 5 -52 6 l-48 3 -23 -62 c-12 -35 -30 -73 -38 -85 -22
-30 -22 -128 -1 -128 24 0 17 -14 -13 -27 -20 -10 -31 -24 -39 -55 -6 -24 -10
-44 -9 -45 8 -8 78 13 95 28 11 11 27 19 35 19 21 0 96 40 96 51 0 5 16 9 35
9 20 0 52 7 72 15 19 8 45 15 56 15 12 0 40 20 66 48 37 39 45 44 49 28 2 -10
-1 -22 -7 -25 -14 -9 -2 -51 15 -51 8 0 14 -7 14 -15 0 -9 9 -15 22 -15 19 0
16 -5 -22 -39 -40 -35 -46 -37 -56 -23 -11 15 -14 13 -24 -13 -7 -17 -15 -37
-20 -45 -9 -19 -130 -123 -136 -117 -3 3 4 24 14 48 69 155 67 148 47 163 -15
11 -24 10 -61 -11 -38 -22 -44 -29 -44 -58 0 -33 0 -33 -32 -24 -40 11 -38 11
-38 -2 0 -5 5 -7 10 -4 10 6 14 -8 10 -35 -3 -22 -4 -22 -38 -3 -40 23 -59 9
-41 -30 19 -41 5 -60 -37 -53 -32 6 -38 4 -69 -31 -19 -21 -30 -39 -25 -41 6
-2 3 -10 -5 -19 -9 -8 -15 -33 -15 -61 0 -26 -3 -56 -6 -68 -10 -38 -409 -266
-679 -389 -214 -98 -503 -202 -735 -266 -227 -62 -627 -139 -725 -139 -32 0
-35 3 -35 28 0 16 -10 71 -21 123 -12 52 -24 135 -28 186 -4 51 -10 95 -14 99
-4 4 -4 -36 0 -90 l6 -96 -26 0 c-16 0 -27 6 -29 18 -3 10 -6 3 -9 -16 -7 -40
27 -105 42 -81 5 8 9 25 10 39 1 14 6 3 11 -25 16 -83 15 -90 -9 -93 -29 -4
-29 -18 -2 -33 17 -8 20 -8 14 1 -5 8 -3 11 5 8 21 -7 24 -28 3 -29 -15 -1
-16 -2 -1 -6 22 -6 32 -33 12 -33 -8 0 -12 4 -9 10 3 5 -1 10 -9 10 -9 0 -13
-6 -10 -14 8 -20 -18 -24 -226 -37 -287 -18 -675 0 -982 46 -908 136 -1758
519 -2460 1108 -133 111 -404 375 -517 503 -109 124 -247 298 -340 429 -151
212 -324 506 -307 522 3 4 7 0 7 -8 1 -8 5 4 9 26 19 97 33 161 40 180 13 33
30 107 35 150 3 22 11 69 19 104 8 35 12 69 10 76 -3 8 -1 23 5 34 14 25 44
177 42 209 0 13 7 34 16 48 10 15 17 47 17 77 1 31 7 56 14 62 8 6 14 33 15
60 1 28 5 55 8 60 4 6 9 28 13 50 6 35 5 37 -6 19 -12 -20 -14 -20 -30 -4 -16
15 -16 18 -1 39 11 17 18 20 23 11 19 -30 59 87 45 130 -4 11 -13 20 -21 20
-8 0 -14 9 -14 20 0 22 15 27 23 8 3 -7 6 -3 6 10 1 15 -5 22 -18 22 -14 0
-18 5 -14 20 7 26 30 26 38 0 7 -21 25 -28 25 -10 0 6 -4 10 -10 10 -5 0 -10
14 -10 30 0 32 9 37 28 18 9 -9 12 -9 12 0 0 7 -4 12 -10 12 -15 0 -12 77 3
83 7 2 8 8 3 13 -5 5 -11 4 -13 -3 -5 -13 -53 -19 -53 -7 0 3 5 15 11 27 7 12
11 45 10 74 -1 39 2 53 12 53 10 0 16 -18 20 -56 3 -31 8 -59 11 -62 14 -13
17 10 7 59 -5 33 -6 55 0 57 5 2 9 21 9 42 0 28 -5 40 -18 43 -9 3 -3 5 15 6
49 2 69 31 76 108 7 72 -2 94 -33 86 -16 -4 -20 3 -26 42 -7 50 11 155 27 155
5 0 9 9 9 19 0 11 4 23 10 26 5 3 8 30 7 59 -1 30 -5 52 -9 49 -13 -7 -9 42 4
55 9 9 7 12 -10 12 -32 0 -27 18 6 22 24 3 27 7 28 44 1 53 10 75 27 68 14 -5
27 39 27 95 0 22 47 88 60 84 12 -4 7 26 -6 31 -13 5 -8 46 7 46 9 0 9 3 9
114 0 47 4 84 12 93 9 11 9 16 -2 23 -11 7 -11 12 -2 23 9 11 10 45 4 138 -5
68 -10 105 -11 82 -1 -31 -5 -43 -16 -43 -11 0 -15 11 -15 40 0 22 5 40 10 40
6 0 10 16 10 35 0 22 6 38 15 41 19 8 20 164 2 165 -7 0 -1 5 13 10 l25 10
-24 18 -24 19 21 6 c18 6 20 11 12 26 -13 25 11 180 34 215 16 25 16 25 -9 25
-33 0 -32 16 2 25 25 6 26 8 10 17 -14 7 -16 13 -6 24 6 7 14 12 18 10 3 -2 5
15 5 37 -1 23 2 48 7 57 14 28 22 55 26 94 2 22 9 48 14 57 5 10 9 31 9 48 0
17 5 31 10 31 6 0 10 9 10 21 0 11 7 27 15 35 17 17 21 69 5 59 -6 -4 -8 -11
-5 -16 4 -5 1 -9 -4 -9 -6 0 -11 10 -11 23 0 13 -5 28 -11 34 -18 18 8 75 31
68 20 -6 47 20 30 30 -17 10 -11 44 10 57 24 15 26 28 5 28 -8 0 -15 9 -15 20
0 11 7 20 15 20 8 0 15 5 15 10 0 6 -7 10 -16 10 -14 0 -16 7 -11 40 3 25 1
40 -7 43 -16 6 12 37 34 37 13 0 17 6 13 20 -3 12 -10 17 -17 13 -19 -13 -46
-13 -46 -2 0 6 9 9 20 6 18 -5 20 0 20 39 0 24 -4 44 -10 44 -5 0 -10 7 -10
16 0 24 24 11 30 -16 6 -27 30 -40 30 -16 0 9 -3 16 -8 16 -4 0 -3 37 2 81 9
72 8 83 -7 94 -22 16 -22 42 1 49 14 5 16 15 14 51 -2 25 0 45 6 45 6 0 9 45
7 120 -3 107 -2 120 13 120 13 0 14 2 4 8 -15 10 -34 72 -22 72 5 0 15 19 23
43 12 34 16 37 17 17 1 -23 2 -23 11 -7 14 24 2 78 -12 56 -7 -10 -8 -4 -4 19
5 24 2 38 -10 52 -15 16 -16 22 -5 35 7 9 10 18 7 21 -8 8 -77 -65 -77 -81 0
-9 -6 -24 -12 -35 -11 -17 -10 -22 0 -29 8 -5 3 -8 -16 -8 l-28 0 23 25 c13
14 23 32 23 40 0 8 -18 -4 -41 -29 l-41 -44 40 50 c54 67 155 165 146 141 -6
-17 -5 -17 17 -5 14 7 19 14 11 17 -19 6 -14 18 26 59 312 317 802 662 1252
880 577 280 1253 456 1890 493 175 10 562 5 720 -10z m-4072 -1690 c-7 -10
-14 -17 -17 -15 -4 4 18 35 25 35 2 0 -1 -9 -8 -20z m72 -506 c0 -8 -4 -12
-10 -9 -5 3 -10 10 -10 16 0 5 5 9 10 9 6 0 10 -7 10 -16z m-66 -369 c3 -8 1
-15 -4 -15 -6 0 -10 7 -10 15 0 8 2 15 4 15 2 0 6 -7 10 -15z m-1153 -1151
c-5 -16 -10 -21 -10 -12 -1 18 10 51 15 45 2 -1 -1 -16 -5 -33z m-65 -299 c-2
-50 -16 -74 -16 -29 0 30 10 74 16 74 2 0 2 -20 0 -45z m9747 -334 c-3 -10 0
-22 6 -25 8 -5 11 -99 11 -297 l0 -289 -22 -1 c-13 -1 -29 -1 -35 0 -7 1 -13
-2 -13 -6 0 -19 -36 -10 -54 14 -18 25 -18 25 13 55 40 39 39 52 -2 45 -37 -6
-87 2 -87 13 0 5 13 13 29 18 21 7 31 19 36 41 4 17 10 31 14 31 11 0 56 -42
69 -66 10 -16 11 -17 12 -2 0 9 -9 32 -20 52 -14 22 -17 37 -10 41 16 10 12
30 -10 55 -24 27 -25 40 -5 40 8 0 17 12 21 28 3 15 12 43 19 62 7 19 12 56
12 81 0 26 3 51 7 58 4 6 4 20 1 31 -3 11 -3 24 0 30 10 16 14 12 8 -9z m-143
-591 c0 -5 -2 -10 -4 -10 -3 0 -8 5 -11 10 -3 6 -1 10 4 10 6 0 11 -4 11 -10z
m-8720 -22 c0 -18 -2 -20 -9 -8 -6 8 -7 18 -5 22 9 14 14 9 14 -14z m8643 -22
l48 -25 -36 -7 c-19 -3 -48 -3 -63 0 -15 4 -39 10 -54 13 -32 6 -53 27 -43 44
11 17 92 3 148 -25z m-311 1 c-24 -11 -38 -5 -28 11 3 6 16 8 28 4 l22 -5 -22
-10z m-163 -16 c15 -10 18 -23 22 -111 2 -38 8 -60 20 -70 12 -10 20 -37 24
-83 7 -64 6 -69 -11 -65 -14 2 -22 19 -32 68 -21 100 -35 144 -49 153 -7 4
-17 24 -22 44 -9 30 -7 40 6 55 18 20 22 21 42 9z m679 -57 c26 -11 32 -19 32
-43 0 -29 0 -30 -27 -15 -16 7 -43 17 -61 20 -22 4 -37 15 -47 34 l-14 28 42
-5 c23 -3 57 -12 75 -19z m-568 -79 c0 -8 -4 -17 -10 -20 -6 -4 -10 5 -10 20
0 15 4 24 10 20 6 -3 10 -12 10 -20z m-241 -30 c23 -39 46 -123 57 -202 5 -41
3 -55 -10 -68 -18 -18 -20 -13 -16 38 1 17 -9 44 -24 66 -14 20 -31 64 -38 96
-6 33 -16 63 -21 66 -14 9 -1 39 17 39 8 0 23 -16 35 -35z m841 -41 c0 -37 -3
-45 -15 -40 -9 3 -15 0 -15 -9 0 -18 -4 -18 -52 -5 -36 10 -64 40 -51 54 3 3
22 6 42 6 20 0 47 9 61 20 14 11 26 20 28 20 1 0 2 -21 2 -46z m-590 10 c0 -8
-4 -12 -10 -9 -5 3 -10 10 -10 16 0 5 5 9 10 9 6 0 10 -7 10 -16z m-21 -207
c9 -30 9 -50 2 -70 -6 -15 -13 -27 -16 -27 -11 0 -35 75 -35 110 0 67 29 60
49 -13z m-245 12 c14 -11 26 -25 26 -30 0 -12 -52 14 -69 35 -20 24 10 21 43
-5z m361 -72 c-69 -41 -86 -54 -90 -69 -7 -21 -120 -88 -148 -88 -20 1 -18 4
16 36 20 19 50 37 66 40 15 3 50 26 76 50 31 28 58 44 75 44 24 0 24 -1 5 -13z
m437 5 c-9 -6 -6 -11 11 -19 27 -13 39 -61 30 -118 -8 -48 -37 -64 -77 -43
-17 10 -18 11 -3 20 10 5 17 14 17 20 0 6 -8 4 -18 -5 -10 -10 -24 -17 -30
-17 -7 0 -12 -4 -12 -10 0 -5 -17 -10 -37 -10 -21 0 -76 -14 -123 -31 -115
-41 -147 -46 -90 -15 25 14 52 25 60 26 21 0 120 51 120 62 0 16 -32 8 -107
-27 -42 -19 -82 -35 -90 -35 -8 0 -35 -11 -61 -25 -26 -14 -53 -25 -61 -25
-27 0 20 39 54 46 36 6 140 63 131 71 -3 3 -25 -4 -49 -16 -24 -11 -51 -21
-60 -21 -9 0 -19 -4 -22 -10 -8 -12 -25 -13 -25 -1 0 9 126 77 170 91 14 5 58
23 99 40 52 21 83 29 103 25 17 -4 28 -2 28 4 0 6 -5 11 -11 11 -5 0 -7 5 -4
10 3 6 21 10 38 10 20 0 27 -3 19 -8z m-1012 -124 c0 -104 -35 -122 -39 -21
-2 57 6 83 25 83 11 0 14 -15 14 -62z m330 22 c0 -5 -4 -10 -10 -10 -5 0 -10
5 -10 10 0 6 5 10 10 10 6 0 10 -4 10 -10z m-40 -97 c0 -24 -32 -10 -43 19 -5
15 -3 16 18 6 14 -6 25 -17 25 -25z m72 -47 c3 3 9 0 13 -5 12 -20 -25 -24
-45 -6 -28 25 -25 39 3 20 13 -8 26 -13 29 -9z m648 4 c0 -5 -5 -10 -11 -10
-5 0 -7 5 -4 10 3 6 8 10 11 10 2 0 4 -4 4 -10z m-1293 -42 c-3 -8 -6 -5 -6 6
-1 11 2 17 5 13 3 -3 4 -12 1 -19z m381 -13 c-5 -18 -106 -101 -145 -119 -21
-10 -55 -27 -77 -38 -25 -13 -41 -17 -48 -10 -13 13 -2 32 18 32 8 0 29 13 47
29 85 78 216 145 205 106z m922 0 c0 -8 -7 -15 -15 -15 -26 0 -18 20 13 29 1
1 2 -6 2 -14z m-815 -45 c8 -14 -13 -40 -32 -40 -7 0 -26 -9 -41 -19 -30 -21
-82 -36 -82 -23 0 5 22 19 49 32 27 12 52 31 54 41 5 20 41 26 52 9z m-397 -8
c14 11 15 10 8 -7 -5 -11 -11 -28 -13 -37 -4 -12 -15 -18 -36 -18 l-30 0 21
23 c12 13 22 30 23 38 0 10 2 11 6 1 4 -10 8 -10 21 0z m-7781 -124 c-3 -8 -6
-5 -6 6 -1 11 2 17 5 13 3 -3 4 -12 1 -19z m8947 -3 c-20 -15 -36 -15 -35 0 0
10 42 25 50 18 3 -2 -4 -10 -15 -18z m-1159 5 c8 -14 -13 -50 -30 -50 -22 0
-25 15 -9 38 16 24 29 28 39 12z m993 -7 c-2 -10 -14 -20 -28 -22 -25 -3 -25
-3 -6 18 23 26 39 27 34 4z m-425 -48 c-1 -5 -30 -15 -65 -21 -35 -7 -79 -19
-98 -27 -41 -17 -180 -40 -189 -31 -19 18 117 73 187 75 26 1 61 5 77 9 39 11
91 8 88 -5z m-636 -11 c3 -9 0 -20 -8 -24 -16 -9 -69 -47 -102 -72 -22 -16
-22 -16 8 -11 17 4 39 11 50 17 12 7 42 9 75 6 l55 -6 -45 -22 c-25 -12 -51
-22 -58 -22 -7 0 -31 -9 -54 -21 -26 -13 -49 -18 -65 -14 -20 5 -24 3 -20 -9
7 -19 -21 -36 -57 -36 -14 0 -27 -4 -31 -9 -3 -5 -18 -12 -34 -16 -16 -3 -53
-24 -82 -46 -29 -21 -61 -39 -70 -39 -10 0 -21 -5 -24 -11 -4 -5 -12 -8 -18
-6 -7 2 -30 -2 -51 -10 -30 -10 -42 -10 -53 -1 -12 9 -5 20 39 65 29 29 57 53
63 53 12 0 85 68 85 79 0 5 9 11 20 14 26 7 28 -27 3 -42 -10 -6 -15 -11 -11
-11 17 0 108 56 108 66 0 12 40 27 49 19 2 -3 -3 -13 -12 -23 -21 -23 -22 -42
-3 -42 15 0 30 27 27 48 -1 6 3 12 9 12 6 0 32 21 58 46 65 64 93 83 120 84
12 0 25 -7 29 -16z m821 -27 c120 5 139 4 151 -11 12 -14 10 -16 -15 -15 -16
0 -60 4 -99 8 -83 9 -95 6 -95 -24 l0 -23 -49 25 c-38 18 -48 28 -44 41 4 9 8
11 10 5 3 -9 43 -10 141 -6z m-1093 -67 c6 -9 -44 -40 -65 -40 -18 0 -11 15
18 32 32 20 39 21 47 8z m1115 -60 c24 -34 24 -36 4 -44 -18 -7 -44 15 -44 38
0 8 -4 18 -10 21 -18 11 -11 23 10 18 11 -3 29 -18 40 -33z m140 21 c0 -5 -7
-14 -15 -21 -12 -10 -15 -10 -15 2 0 8 3 18 7 21 9 10 23 9 23 -2z m116 -7
c-3 -9 -6 -18 -6 -20 0 -3 -4 -2 -10 1 -5 3 -10 -2 -11 -12 0 -16 -1 -16 -9 2
-5 14 -3 24 8 33 22 17 35 15 28 -4z m-8816 -34 c0 -5 -7 -10 -16 -10 -8 0
-12 5 -9 10 3 6 10 10 16 10 5 0 9 -4 9 -10z m8498 -11 c24 -9 30 -39 8 -39
-8 0 -27 5 -43 12 -15 6 -31 11 -35 10 -10 -2 -10 22 -1 31 6 7 24 3 71 -14z
m-156 -26 c22 -19 24 -53 4 -53 -21 0 -69 47 -61 59 9 16 36 13 57 -6z m460
-37 c-9 -18 -11 -16 -11 19 0 33 1 37 10 21 8 -12 8 -25 1 -40z m-1152 -11
c11 -13 10 -14 -4 -9 -9 3 -16 10 -16 15 0 13 6 11 20 -6z m1084 -131 c18 -7
22 -24 5 -24 -6 0 -22 -9 -36 -20 -14 -11 -36 -20 -48 -20 -15 0 -38 -17 -64
-46 -22 -25 -45 -44 -52 -42 -6 2 -12 20 -14 41 -2 35 0 38 34 47 20 5 45 10
57 10 11 0 29 8 40 18 15 15 53 40 61 42 1 0 8 -3 17 -6z m-9306 -65 c-3 -8
-7 -3 -11 10 -4 17 -3 21 5 13 5 -5 8 -16 6 -23z m7482 -84 c-7 -8 -17 -15
-22 -15 -6 0 -5 7 2 15 7 8 17 15 22 15 6 0 5 -7 -2 -15z m830 -45 c8 -5 11
-12 8 -15 -4 -4 -17 0 -30 9 -24 17 -5 23 22 6z m1024 -52 c-27 -71 -44 -93
-44 -61 0 12 4 24 9 27 5 3 12 18 16 33 5 24 31 63 41 63 1 0 -8 -28 -22 -62z
m-16 40 c-3 -7 -18 -19 -34 -28 -16 -9 -34 -27 -41 -41 -7 -13 -23 -35 -37
-48 -24 -23 -26 -23 -33 -5 -5 14 4 26 37 54 24 19 53 45 64 56 23 24 50 31
44 12z m-866 -73 c6 -14 8 -28 4 -33 -9 -8 -36 26 -36 45 0 22 20 14 32 -12z
m718 -85 c0 -5 -4 -10 -10 -10 -5 0 -10 5 -10 10 0 6 5 10 10 10 6 0 10 -4 10
-10z m-614 -87 c20 -27 17 -43 -10 -43 -26 0 -39 20 -30 45 8 20 24 19 40 -2z
m-862 -38 c5 -22 4 -26 -4 -15 -5 8 -10 24 -10 34 0 26 6 18 14 -19z m-384
-105 c0 -5 -4 -10 -10 -10 -5 0 -10 5 -10 10 0 6 5 10 10 10 6 0 10 -4 10 -10z
m-6981 -260 c0 -10 -3 -8 -9 5 -12 27 -12 43 0 25 5 -8 9 -22 9 -30z m7505
-45 c-4 -8 -16 -15 -27 -15 -20 0 -20 0 -1 15 25 19 35 19 28 0z m-44 -40 c0
-10 -11 -15 -35 -15 -39 0 -48 16 -12 23 41 8 47 7 47 -8z m856 -340 l29 -25
-32 0 c-44 0 -63 9 -63 31 0 27 31 24 66 -6z m70 -23 c-22 -5 -30 3 -21 18 5
8 11 7 22 -2 15 -12 14 -13 -1 -16z m-81 -39 c47 -37 47 -38 22 -41 -33 -4
-117 32 -117 51 0 39 36 35 95 -10z m-45 -65 c61 -32 70 -42 47 -51 -11 -4
-122 36 -136 49 -7 6 8 34 19 34 5 0 37 -14 70 -32z m-75 -48 c3 -5 -1 -10 -9
-10 -9 0 -16 5 -16 10 0 6 4 10 9 10 6 0 13 -4 16 -10z m-7 -104 c15 -8 38
-18 51 -23 l24 -9 -25 -29 -25 -29 -37 34 c-35 33 -48 70 -25 70 6 0 23 -6 37
-14z m-141 -224 c32 -14 37 -20 28 -29 -28 -25 -104 14 -78 40 8 9 5 10 50
-11z m-294 -101 c-5 -21 -60 -77 -67 -70 -3 2 4 23 14 47 13 29 25 42 39 42
14 0 18 -5 14 -19z m-271 -113 c-6 -6 -15 -8 -19 -4 -4 4 -1 11 7 16 19 12 27
3 12 -12z m88 -17 c0 -19 -47 -61 -68 -61 -6 0 -32 -11 -59 -24 -98 -49 -200
-72 -191 -44 3 7 54 38 114 68 171 85 204 95 204 61z"/>
<path d="M5082 9783 c2 -13 -3 -17 -17 -15 -11 2 -29 4 -40 4 -79 0 -245 -70
-245 -103 0 -23 6 -23 -75 2 -81 25 -210 23 -263 -5 -32 -17 -36 -16 -108 5
-61 18 -79 20 -100 10 -14 -6 -36 -8 -49 -5 -15 4 -30 -1 -42 -13 -28 -26 -60
-43 -81 -43 -20 0 -134 -69 -188 -114 -24 -20 -39 -25 -60 -20 -20 4 -43 -2
-74 -19 -25 -13 -58 -27 -75 -31 -47 -12 -145 -58 -140 -66 3 -4 -18 -10 -45
-14 -49 -7 -54 -12 -51 -48 1 -10 -3 -18 -9 -18 -6 0 -8 6 -4 13 4 6 -6 0 -23
-15 -16 -16 -32 -28 -36 -28 -13 0 -102 -67 -153 -116 -71 -69 -111 -124 -96
-133 9 -5 4 -18 -18 -46 -36 -45 -36 -45 -10 -38 11 3 20 0 20 -5 0 -14 -31
-31 -46 -25 -16 5 -129 -113 -129 -135 0 -9 -10 -36 -22 -58 -16 -29 -24 -66
-27 -120 -3 -44 -8 -105 -11 -136 -7 -60 -1 -74 15 -35 9 22 9 22 9 -3 1 -14
-6 -38 -15 -55 -27 -50 -46 -146 -39 -197 4 -27 11 -48 16 -48 5 0 9 6 9 14 0
11 5 12 23 3 23 -11 38 -35 64 -107 6 -19 12 -27 13 -17 0 34 25 11 28 -27 2
-28 8 -37 20 -35 32 3 33 -1 8 -43 -22 -38 -25 -55 -25 -139 0 -53 -3 -103 -7
-112 -3 -9 -2 -17 4 -17 6 0 8 -29 5 -81 -5 -70 -3 -84 15 -108 16 -22 19 -37
15 -74 -3 -28 -1 -52 6 -60 6 -8 8 -27 5 -46 -4 -20 -3 -31 5 -31 6 0 11 -11
11 -25 0 -13 8 -28 17 -34 16 -9 16 -12 1 -60 -11 -35 -14 -61 -8 -80 5 -18 4
-33 -3 -40 -7 -7 -6 -15 2 -25 7 -8 10 -20 6 -25 -6 -11 10 -83 26 -113 5 -10
9 -27 9 -38 0 -11 7 -23 15 -26 8 -4 15 -15 15 -25 0 -11 16 -49 36 -86 25
-45 41 -92 51 -145 7 -44 34 -134 58 -200 25 -65 45 -126 45 -134 0 -9 24 -64
54 -122 30 -59 57 -122 61 -141 4 -18 17 -54 30 -80 44 -87 66 -145 106 -281
12 -41 25 -79 29 -85 4 -5 11 -28 15 -50 4 -22 10 -44 15 -50 4 -5 11 -40 15
-76 7 -64 6 -66 -23 -90 -16 -13 -37 -29 -47 -35 -37 -21 -19 -156 31 -231 11
-17 31 -64 44 -105 13 -40 31 -83 41 -96 10 -13 21 -36 24 -52 4 -17 10 -30
13 -30 4 0 13 -15 20 -33 31 -76 45 -103 93 -176 51 -78 159 -212 215 -266 17
-16 40 -46 52 -66 12 -20 37 -48 56 -62 18 -14 41 -42 50 -61 9 -20 25 -40 36
-46 16 -9 113 -127 220 -269 19 -25 47 -59 63 -75 15 -16 27 -35 27 -41 0 -7
14 -28 30 -46 17 -17 58 -73 92 -123 33 -50 69 -100 79 -112 11 -11 19 -24 19
-29 0 -5 19 -31 41 -57 23 -27 52 -69 65 -93 20 -38 47 -73 89 -119 6 -6 26
-33 45 -61 19 -27 59 -75 90 -107 l55 -57 133 -25 c132 -26 203 -53 269 -102
17 -13 37 -24 43 -24 27 0 69 -36 89 -76 24 -46 46 -124 66 -220 17 -86 28
-99 37 -44 17 103 18 119 8 125 -7 4 -7 13 1 27 6 11 8 32 5 47 -20 84 -21 65
29 311 23 109 57 355 70 502 4 37 11 70 16 73 5 4 9 16 9 27 0 11 8 27 18 34
14 11 15 16 4 33 -10 17 -10 21 2 21 8 0 16 6 19 13 8 21 21 -2 21 -38 0 -19
6 -37 12 -39 7 -3 20 -20 28 -38 9 -19 29 -48 44 -64 15 -17 35 -47 45 -66 10
-19 38 -52 63 -72 24 -20 44 -42 44 -49 0 -7 13 -26 29 -43 16 -17 44 -54 61
-83 34 -55 37 -57 74 -39 34 15 25 50 -22 92 -20 17 -50 46 -66 65 -17 18 -51
55 -76 81 -80 83 -95 104 -92 128 2 12 7 20 12 17 4 -3 6 -13 4 -23 -3 -10 3
-22 16 -30 11 -7 20 -8 20 -3 0 6 -8 15 -17 20 -15 9 -14 10 10 11 32 0 32 1
12 40 -14 28 -13 34 8 31 4 0 7 6 7 14 0 7 6 18 14 22 11 6 12 17 6 43 -7 31
-9 33 -15 13 -9 -27 -44 -41 -56 -22 -13 21 -11 29 10 29 11 0 21 8 23 17 2
11 13 18 28 18 21 0 25 5 25 29 1 16 9 34 20 43 18 12 22 12 39 -9 18 -23 19
-23 12 -1 -6 18 -1 23 28 34 19 7 33 16 30 21 -3 4 -14 2 -26 -5 -16 -9 -22
-9 -25 0 -2 7 -10 10 -18 7 -17 -7 -31 16 -16 25 6 4 12 19 13 34 1 15 8 27
15 27 8 0 17 10 22 23 5 13 15 28 23 35 20 16 21 117 2 133 -16 13 -19 54 -4
44 6 -4 8 -10 5 -15 -6 -10 14 -25 22 -16 10 9 -90 213 -124 252 -27 32 -39
67 -25 72 12 4 -3 58 -24 82 -7 8 -15 27 -19 42 -7 28 -9 27 80 44 17 4 55 7
86 8 31 0 62 6 70 13 22 18 96 34 152 33 80 -1 198 25 233 51 5 5 19 6 30 3
12 -3 31 4 49 20 17 14 34 26 38 26 10 0 76 71 77 83 0 4 7 7 15 7 14 0 55
116 55 158 0 11 5 24 10 27 11 7 4 63 -13 105 -6 14 -11 28 -11 32 -1 4 -23
30 -51 57 -60 58 -75 76 -75 91 0 7 -14 11 -32 9 -18 -1 -41 2 -50 6 -10 4
-32 2 -49 -4 -18 -6 -33 -10 -33 -9 -1 2 -8 11 -15 20 -11 15 -10 17 16 16 15
0 54 4 86 10 65 12 84 9 92 -19 4 -10 10 -19 15 -19 13 0 4 154 -9 158 -5 2
-1 12 9 22 37 37 64 199 44 265 -10 31 -13 35 -13 15 -1 -19 -4 -21 -10 -11
-6 9 -22 13 -43 11 -66 -5 -113 0 -136 14 -6 4 -16 5 -21 2 -5 -4 -22 -1 -38
5 -26 10 -27 11 -9 21 13 7 30 7 57 -1 22 -7 44 -9 49 -6 5 3 19 0 30 -7 17
-11 22 -11 29 1 6 8 32 16 65 19 51 4 56 3 65 -19 9 -21 10 -20 11 16 0 30 3
36 10 25 8 -12 10 -11 10 7 0 12 7 28 15 37 8 8 15 22 15 31 0 8 7 26 15 38
28 43 19 216 -14 270 -19 30 -21 40 -11 52 10 12 10 18 0 30 -7 9 -15 13 -18
10 -6 -6 -32 42 -32 59 0 6 20 22 45 36 25 14 45 27 45 30 0 3 12 19 28 36 37
40 52 78 51 122 -1 32 -2 34 -8 12 l-7 -25 -8 28 c-5 22 -10 26 -20 18 -15
-13 -26 -5 -26 21 0 10 -4 18 -10 18 -5 0 -10 -7 -10 -15 0 -12 -4 -13 -19 -6
-24 13 -73 17 -89 7 -17 -10 -15 9 2 23 10 8 16 9 21 1 3 -5 17 -10 30 -10 32
0 23 28 -11 36 -26 7 -32 29 -11 37 13 6 -62 11 -100 8 -18 -1 -23 3 -23 23 0
13 7 31 15 39 18 19 3 34 -40 39 -24 2 -31 8 -33 31 -3 22 1 27 17 27 19 0 20
2 9 20 -12 18 -13 19 -20 2 -6 -15 -7 -15 -9 3 -1 11 -3 43 -3 70 -1 44 -3 50
-21 48 -11 -1 -27 0 -35 3 -13 4 -13 6 0 14 13 8 13 10 -1 10 -18 0 -30 21
-34 60 -2 14 -4 30 -5 35 -2 6 0 18 5 28 5 12 1 24 -10 37 -10 11 -15 23 -12
27 8 7 47 -32 66 -67 7 -14 31 -40 52 -59 33 -28 42 -31 54 -21 13 11 18 10
28 -3 15 -20 67 -41 67 -27 0 6 -4 10 -8 10 -5 0 -23 13 -41 29 -22 20 -29 31
-21 36 7 4 16 2 20 -5 5 -8 9 -5 13 9 6 26 24 27 32 2 3 -10 16 -22 28 -25 33
-9 40 -7 34 8 -3 7 -1 18 5 24 7 7 3 12 -11 17 -12 3 -19 11 -15 16 3 5 10 7
15 3 17 -10 68 -13 74 -4 3 4 -13 11 -35 15 -45 8 -52 22 -15 31 39 10 29 24
-17 24 -49 0 -60 6 -78 39 -9 18 -9 22 0 16 16 -10 30 13 30 52 0 40 16 82 40
108 10 11 30 44 45 73 35 70 28 102 -30 139 -24 15 -49 39 -55 53 l-12 25 -11
-22 c-11 -25 -36 -26 -64 -1 -10 8 -25 18 -33 21 -12 4 -11 6 3 6 21 1 23 17
2 25 -8 3 -15 12 -15 21 0 8 -5 15 -11 15 -6 0 -9 7 -5 15 5 13 3 13 -17 1
-12 -8 -26 -15 -30 -15 -5 1 -11 -2 -15 -5 -3 -3 1 -6 8 -6 7 0 10 -3 7 -6
-11 -11 -96 -14 -102 -4 -4 6 -11 8 -16 4 -6 -3 -19 2 -29 11 -23 20 -40 13
-33 -15 5 -21 -4 -25 -31 -14 -9 3 -14 10 -11 14 9 14 -44 41 -63 32 -27 -14
-91 -2 -103 19 -10 20 -49 27 -49 9 0 -15 -23 -11 -48 8 -19 15 -34 17 -68 12
-33 -5 -44 -4 -44 6 0 8 -6 11 -15 8 -8 -4 -22 -1 -29 5 -10 8 -16 9 -21 1
-10 -16 -38 -12 -31 5 3 8 0 15 -7 15 -8 0 -12 18 -11 58 1 64 10 102 25 102
6 0 7 5 4 10 -3 6 -2 10 4 10 5 0 11 -6 14 -12 3 -10 7 -10 17 -1 20 18 4 43
-27 43 -15 0 -46 5 -68 12 -31 9 -35 13 -18 16 14 2 20 8 17 17 -3 8 -11 12
-18 9 -8 -3 -20 12 -31 38 -25 59 -25 62 13 68 l33 5 -27 33 c-15 17 -35 32
-45 32 -11 0 -24 9 -31 19 -6 10 -18 17 -25 14 -10 -4 -13 7 -13 40 0 35 4 47
18 50 16 4 16 5 -1 6 -10 0 -27 -4 -38 -9 -10 -6 -19 -7 -19 -3 1 21 21 35 56
38 21 1 52 6 67 10 17 5 38 3 50 -4 26 -13 108 -16 190 -6 47 6 61 4 76 -9 10
-9 25 -14 35 -10 9 3 16 1 16 -4 0 -6 8 -9 18 -7 9 1 35 -3 57 -11 22 -8 58
-16 80 -19 22 -3 56 -14 76 -25 21 -10 39 -16 42 -13 3 3 11 2 17 -2 9 -6 9
-10 -1 -16 -12 -7 -12 -9 0 -9 8 0 23 -8 33 -17 16 -14 24 -15 48 -6 21 8 30
8 34 -1 2 -6 5 -1 5 12 1 13 -3 20 -9 17 -5 -3 -10 -2 -10 3 0 16 13 22 27 11
10 -9 13 -8 13 1 0 8 9 11 28 7 17 -3 33 0 45 10 16 15 17 14 17 -13 0 -27 1
-27 14 -9 15 23 34 125 37 200 1 28 -3 102 -10 165 -6 63 -13 133 -15 155 -2
27 -15 58 -40 92 -20 28 -36 57 -36 65 0 8 -13 34 -30 56 -16 23 -30 46 -30
50 0 14 -62 82 -74 82 -7 0 -29 16 -50 35 -21 19 -45 35 -53 35 -15 0 -81 42
-148 95 -58 46 -128 75 -180 75 -35 0 -48 5 -57 21 -7 11 -30 30 -52 42 -41
23 -47 27 -113 70 -24 15 -45 27 -48 27 -3 0 -18 9 -34 21 -17 12 -48 22 -80
24 -29 2 -65 12 -79 22 -15 10 -41 18 -58 19 -18 1 -40 5 -50 9 -11 4 -28 9
-39 10 -56 8 -103 19 -127 31 -15 8 -38 14 -52 14 -14 0 -28 5 -31 10 -3 6
-30 10 -59 10 -40 0 -62 6 -91 25 -20 14 -60 32 -89 40 -28 7 -73 21 -101 29
-63 20 -67 20 -63 -1z m-42 -33 c0 -5 -4 -10 -10 -10 -5 0 -10 5 -10 10 0 6 5
10 10 10 6 0 10 -4 10 -10z m-473 -146 c-3 -3 -12 -4 -19 -1 -8 3 -5 6 6 6 11
1 17 -2 13 -5z m-857 -194 c0 -5 -7 -10 -15 -10 -8 0 -15 5 -15 10 0 6 7 10
15 10 8 0 15 -4 15 -10z m3221 -1037 c-10 -17 -10 -16 -11 3 0 23 13 41 18 25
2 -6 -1 -18 -7 -28z m-41 -23 c0 -5 -5 -10 -11 -10 -5 0 -7 5 -4 10 3 6 8 10
11 10 2 0 4 -4 4 -10z m8 -40 c-27 -37 -36 -38 -34 -5 0 15 6 23 13 21 7 -3
15 -1 18 4 4 6 11 10 16 10 5 0 0 -13 -13 -30z m-58 -20 c0 -4 -14 -7 -31 -8
-24 -1 -28 2 -19 13 11 13 50 9 50 -5z m-3863 -137 c-3 -10 -5 -2 -5 17 0 19
2 27 5 18 2 -10 2 -26 0 -35z m13 -59 c0 -8 -5 -12 -10 -9 -6 4 -8 11 -5 16 9
14 15 11 15 -7z m2867 -1360 c-3 -3 -12 -4 -19 -1 -8 3 -5 6 6 6 11 1 17 -2
13 -5z m143 -14 c0 -5 -2 -10 -4 -10 -3 0 -8 5 -11 10 -3 6 -1 10 4 10 6 0 11
-4 11 -10z m225 -31 c0 -18 -6 -24 -22 -24 -11 0 -25 -3 -29 -7 -4 -5 0 -8 9
-8 26 0 77 -34 75 -50 -1 -8 1 -21 6 -29 5 -8 4 -16 -5 -22 -11 -6 -10 -11 4
-27 20 -22 22 -32 5 -32 -7 0 -21 -18 -31 -40 -13 -28 -25 -40 -40 -40 -22 -1
-21 -1 2 -14 16 -9 20 -15 12 -21 -7 -4 -10 -14 -7 -22 4 -9 -4 -23 -19 -35
-14 -11 -25 -26 -25 -33 0 -7 -8 -15 -17 -17 -10 -2 -18 -12 -18 -23 0 -14 -6
-20 -22 -19 -13 0 -23 -5 -23 -12 0 -27 -69 20 -83 56 -4 12 -6 11 -6 -2 -1
-20 -26 -24 -37 -7 -4 8 -25 9 -60 5 -37 -4 -54 -2 -56 6 -3 9 -16 8 -49 -5
-25 -9 -55 -17 -68 -17 -13 0 -36 -9 -52 -21 -24 -17 -29 -18 -29 -5 0 10 -10
17 -27 17 l-28 2 28 4 c19 3 27 10 27 24 0 16 5 19 20 14 16 -5 20 -2 20 18 0
19 -8 26 -40 37 -31 10 -43 11 -52 2 -9 -9 -4 -12 20 -12 18 0 32 -5 32 -11 0
-6 -7 -8 -16 -5 -9 4 -23 1 -30 -5 -10 -8 -14 -8 -14 0 0 6 -4 11 -10 11 -5 0
-10 -12 -10 -26 0 -24 -1 -24 -16 -9 -12 12 -19 13 -24 5 -5 -8 -12 -7 -24 5
-27 27 -18 42 28 49 24 3 29 13 22 42 -4 14 -10 24 -13 21 -3 -3 -12 0 -19 8
-8 7 -18 15 -23 17 -6 2 -7 18 -2 38 5 28 12 36 33 38 26 3 72 42 49 42 -7 0
-10 4 -6 9 3 6 29 8 58 6 29 -2 43 -2 32 1 -23 7 -55 33 -55 45 0 4 9 11 20
14 11 3 23 17 26 30 7 27 34 43 34 20 0 -18 4 -18 48 -6 25 8 32 7 32 -5 0 -8
7 -14 15 -14 8 0 15 -4 15 -10 0 -5 -9 -10 -19 -10 -25 0 -37 -18 -22 -33 16
-16 14 -27 -5 -27 -8 0 -12 -4 -9 -10 11 -17 31 -11 43 14 13 30 56 44 47 15
-8 -23 1 -24 22 -3 14 13 14 17 2 25 -12 8 -12 10 1 19 19 12 21 12 40 0 12
-7 12 -12 3 -21 -10 -10 -9 -15 4 -24 13 -10 20 -10 31 2 8 8 27 17 43 20 16
3 29 10 29 15 0 6 6 8 14 5 8 -3 20 1 26 9 7 8 19 14 26 14 8 0 14 4 14 9 0 5
14 14 30 20 17 5 33 17 36 25 4 10 17 14 42 12 31 -3 37 -7 37 -27z m-255 -13
c-6 -8 -18 -12 -26 -9 -19 7 -7 23 18 23 17 0 18 -3 8 -14z m1010 -196 c0 -5
-4 -10 -10 -10 -5 0 -10 5 -10 10 0 6 5 10 10 10 6 0 10 -4 10 -10z m186 -101
c10 -17 -13 -36 -27 -22 -12 12 -4 33 11 33 5 0 12 -5 16 -11z m-1396 -213 c0
-11 -19 -15 -25 -6 -3 5 1 10 9 10 9 0 16 -2 16 -4z m877 -1035 c-1 -11 -6
-17 -14 -14 -10 4 -11 9 -2 19 15 19 18 18 16 -5z m-37 -31 c0 -5 -7 -10 -15
-10 -8 0 -15 5 -15 10 0 6 7 10 15 10 8 0 15 -4 15 -10z m-370 -838 c0 -8 -13
2 -30 23 -16 21 -30 43 -30 49 1 16 60 -56 60 -72z m-3 -704 c-3 -8 -6 -5 -6
6 -1 11 2 17 5 13 3 -3 4 -12 1 -19z m-87 -149 c0 -5 -4 -9 -10 -9 -5 0 -10 7
-10 16 0 8 5 12 10 9 6 -3 10 -10 10 -16z m-6 -33 c9 3 16 1 16 -5 0 -6 -6
-11 -14 -11 -9 0 -12 -9 -9 -27 4 -27 3 -26 -16 7 -24 41 -26 57 -7 41 7 -6
21 -9 30 -5z m-337 -928 c-3 -8 -6 -5 -6 6 -1 11 2 17 5 13 3 -3 4 -12 1 -19z"/>
<path d="M6155 6630 c3 -5 8 -10 11 -10 2 0 4 5 4 10 0 6 -5 10 -11 10 -5 0
-7 -4 -4 -10z"/>
<path d="M5636 6459 c21 -17 40 -26 42 -20 5 16 -36 51 -59 51 -18 0 -16 -5
17 -31z"/>
<path d="M5803 6473 c-13 -8 -23 -21 -23 -28 0 -18 57 -43 85 -37 24 4 24 5
10 39 -8 20 -15 37 -15 39 0 10 -37 1 -57 -13z"/>
<path d="M6150 6481 c0 -16 30 -33 47 -26 17 6 17 7 -1 21 -22 16 -46 19 -46
5z"/>
<path d="M5756 6342 c-2 -4 -1 -14 3 -21 7 -10 13 -11 31 -1 18 10 20 14 9 21
-18 11 -36 11 -43 1z"/>
<path d="M5828 6324 c6 -3 12 -12 12 -19 0 -13 21 -25 46 -25 23 0 16 28 -8
35 -36 10 -64 15 -50 9z"/>
<path d="M7011 8415 l1 -50 8 40 c5 22 4 44 -1 50 -5 5 -9 -11 -8 -40z"/>
<path d="M6977 8321 c-4 -17 -3 -21 5 -13 5 5 8 16 6 23 -3 8 -7 3 -11 -10z"/>
<path d="M6956 8274 c-4 -9 -4 -19 -1 -22 2 -3 7 3 11 12 4 9 4 19 1 22 -2 3
-7 -3 -11 -12z"/>
<path d="M6651 8234 c0 -11 3 -14 6 -6 3 7 2 16 -1 19 -3 4 -6 -2 -5 -13z"/>
<path d="M6335 8200 c-10 -11 -16 -21 -14 -23 58 -34 73 -31 57 13 -12 35 -19
37 -43 10z"/>
<path d="M6590 8161 c0 -5 6 -14 14 -20 12 -10 13 -8 9 8 -5 21 -23 30 -23 12z"/>
<path d="M1841 7994 c0 -11 3 -14 6 -6 3 7 2 16 -1 19 -3 4 -6 -2 -5 -13z"/>
<path d="M1765 7720 c-8 -12 20 -24 35 -15 5 3 10 10 10 16 0 12 -37 12 -45
-1z"/>
<path d="M6820 6925 c7 -8 17 -15 22 -15 6 0 5 7 -2 15 -7 8 -17 15 -22 15 -6
0 -5 -7 2 -15z"/>
<path d="M6930 6891 c0 -6 5 -11 12 -11 6 0 20 -7 30 -17 10 -9 18 -12 18 -7
0 5 -13 18 -30 27 -17 10 -30 13 -30 8z"/>
<path d="M1450 5311 c0 -12 5 -21 10 -21 6 0 10 6 10 14 0 8 -4 18 -10 21 -5
3 -10 -3 -10 -14z"/>
<path d="M6980 5106 c0 -9 5 -16 10 -16 6 0 10 4 10 9 0 6 -4 13 -10 16 -5 3
-10 -1 -10 -9z"/>
<path d="M1401 4954 c0 -11 3 -14 6 -6 3 7 2 16 -1 19 -3 4 -6 -2 -5 -13z"/>
<path d="M3290 3911 c0 -6 5 -13 10 -16 6 -3 10 1 10 9 0 9 -4 16 -10 16 -5 0
-10 -4 -10 -9z"/>
<path d="M3317 3789 c-3 -13 -1 -19 6 -16 15 5 22 37 9 37 -5 0 -12 -9 -15
-21z"/>
<path d="M3324 3739 c-3 -6 0 -15 7 -20 7 -4 10 -11 7 -15 -4 -4 2 -19 13 -35
13 -19 18 -37 14 -56 -3 -15 -2 -22 1 -15 5 10 9 9 20 -5 18 -24 18 -38 -1
-23 -12 10 -15 10 -15 -4 0 -9 8 -16 20 -16 11 0 20 -7 20 -15 0 -8 5 -15 10
-15 15 0 12 17 -14 79 -13 31 -30 77 -37 104 -13 45 -30 59 -45 36z"/>
<path d="M6394 3714 c3 -9 6 -22 6 -30 0 -20 17 -17 22 4 7 24 -1 42 -19 42
-10 0 -13 -6 -9 -16z"/>
<path d="M3171 3696 c-10 -12 -8 -13 8 -9 12 3 18 9 15 14 -7 12 -10 11 -23
-5z"/>
<path d="M6325 3669 c-4 -6 -5 -13 -2 -16 7 -7 27 6 27 18 0 12 -17 12 -25 -2z"/>
<path d="M6285 3530 c3 -5 8 -10 11 -10 2 0 4 5 4 10 0 6 -5 10 -11 10 -5 0
-7 -4 -4 -10z"/>
<path d="M6385 3530 c-3 -5 1 -10 10 -10 9 0 13 5 10 10 -3 6 -8 10 -10 10 -2
0 -7 -4 -10 -10z"/>
<path d="M3430 3488 c0 -10 -4 -18 -10 -18 -5 0 -10 -4 -10 -10 0 -5 7 -10 16
-10 14 0 14 -3 4 -15 -10 -12 -10 -15 1 -15 18 -1 55 -50 38 -50 -7 0 -5 -8 6
-20 18 -20 45 -27 45 -12 0 4 -5 13 -10 18 -6 6 -26 42 -45 80 -19 38 -34 61
-35 52z"/>
<path d="M6690 3476 c0 -8 5 -18 10 -21 8 -5 7 -11 -1 -21 -13 -16 -7 -27 17
-30 12 -2 14 3 10 21 -3 13 -3 25 2 28 4 2 1 2 -5 1 -7 -2 -13 3 -13 10 0 8 6
17 13 19 6 3 2 6 -10 6 -14 1 -23 -5 -23 -13z"/>
<path d="M6270 3459 c0 -24 23 -21 28 4 2 10 -3 17 -12 17 -10 0 -16 -9 -16
-21z"/>
<path d="M6385 3452 c-3 -9 -3 -13 1 -9 4 4 13 -1 20 -11 7 -9 16 -14 20 -9 4
4 -2 16 -13 27 -19 17 -22 18 -28 2z"/>
<path d="M9280 3425 c-10 -12 -10 -15 4 -15 9 0 16 7 16 15 0 8 -2 15 -4 15
-2 0 -9 -7 -16 -15z"/>
<path d="M8480 3420 c0 -5 -7 -10 -16 -10 -19 0 -74 -37 -74 -50 0 -5 23 5 50
22 43 26 63 48 45 48 -3 0 -5 -4 -5 -10z"/>
<path d="M9215 3402 c-71 -7 -135 -24 -156 -43 -12 -10 -27 -19 -33 -19 -6 0
-33 -16 -60 -35 -27 -19 -55 -35 -62 -35 -17 0 -66 -27 -74 -41 -5 -6 -23 -18
-41 -24 -103 -39 -145 -58 -152 -71 -4 -8 -15 -14 -23 -14 -19 0 -91 -36 -100
-51 -9 -15 26 -4 101 31 33 16 67 31 75 35 8 3 26 12 40 20 14 8 37 15 52 15
15 0 30 5 33 10 4 6 40 27 81 46 78 38 154 55 154 35 0 -6 -7 -11 -15 -11 -8
0 -40 -18 -71 -40 -32 -22 -66 -40 -77 -40 -10 0 -33 -6 -50 -14 -182 -82
-173 -77 -152 -91 11 -8 26 -20 34 -26 15 -13 141 -5 171 11 28 15 67 12 74
-5 6 -18 45 -19 99 -4 31 8 36 14 33 32 -11 52 -15 104 -10 110 3 3 7 26 8 51
2 40 -1 46 -19 46 -11 1 0 9 27 19 26 10 60 28 75 40 15 12 39 30 53 41 29 22
26 27 -15 22z"/>
<path d="M6257 3376 c-19 -15 -25 -110 -6 -121 7 -5 8 7 4 39 -5 30 -4 46 4
46 13 0 34 37 23 44 -4 2 -15 -1 -25 -8z"/>
<path d="M3502 3313 c-10 -4 -9 -8 5 -18 21 -16 34 -10 26 10 -5 16 -10 17
-31 8z"/>
<path d="M9150 3295 l-34 -12 37 -5 c31 -3 37 -1 37 14 0 10 -1 17 -2 17 -2
-1 -19 -7 -38 -14z"/>
<path d="M8315 3290 c-3 -6 1 -7 9 -4 18 7 21 14 7 14 -6 0 -13 -4 -16 -10z"/>
<path d="M9700 3257 c0 -13 7 -30 16 -38 14 -11 15 -9 12 21 -4 39 -28 54 -28
17z"/>
<path d="M3543 3221 c1 -26 7 -43 20 -51 10 -6 21 -9 24 -7 5 5 -35 97 -42 97
-2 0 -3 -18 -2 -39z"/>
<path d="M8250 3235 c-11 -13 -10 -14 4 -9 9 3 16 10 16 15 0 13 -6 11 -20 -6z"/>
<path d="M9361 3149 c-12 -13 -21 -33 -21 -45 0 -12 -3 -31 -6 -41 -3 -10 3
-5 15 12 11 16 29 33 41 37 23 9 26 30 6 47 -11 10 -19 7 -35 -10z"/>
<path d="M3600 3117 c0 -8 9 -22 20 -32 23 -21 25 -16 8 20 -12 27 -28 34 -28
12z"/>
<path d="M9165 3060 c-3 -5 3 -10 15 -10 12 0 18 5 15 10 -3 6 -10 10 -15 10
-5 0 -12 -4 -15 -10z"/>
<path d="M8559 3036 c-25 -7 -58 -22 -74 -34 -15 -12 -35 -22 -43 -22 -10 0
-12 -3 -6 -9 5 -6 34 -4 74 5 36 8 90 19 120 25 71 14 78 19 49 35 -29 16 -60
16 -120 0z"/>
<path d="M8863 3013 c-19 -7 -16 -37 5 -56 38 -34 61 -14 37 33 -16 30 -20 33
-42 23z"/>
<path d="M9074 2995 c-13 -32 36 -46 70 -20 24 18 21 21 -26 30 -31 6 -39 4
-44 -10z"/>
<path d="M8947 2984 c-7 -7 58 -54 76 -54 14 0 65 -58 73 -82 3 -10 9 -18 14
-18 5 0 16 -3 26 -7 17 -6 17 -5 1 17 -9 14 -17 34 -17 46 0 14 -10 26 -30 34
-16 7 -35 19 -42 27 -18 22 -90 48 -101 37z"/>
<path d="M8746 2971 c-3 -5 9 -11 27 -14 36 -5 42 -3 32 12 -8 13 -52 15 -59
2z"/>
<path d="M8664 2941 c4 -6 14 -11 23 -11 8 0 26 -9 40 -20 14 -11 36 -20 49
-20 46 0 21 33 -31 43 -16 3 -43 9 -59 13 -21 5 -27 4 -22 -5z"/>
<path d="M8544 2918 c24 -14 75 -13 89 1 8 8 -6 11 -48 11 -49 -1 -57 -3 -41
-12z"/>
<path d="M8303 2913 c9 -2 25 -2 35 0 9 3 1 5 -18 5 -19 0 -27 -2 -17 -5z"/>
<path d="M4856 2889 c-33 -11 -67 -25 -75 -33 -9 -7 -32 -19 -51 -27 -29 -11
-154 -91 -170 -109 -3 -3 -22 -14 -43 -24 -21 -11 -50 -31 -65 -44 -14 -14
-45 -33 -68 -43 -23 -11 -81 -44 -129 -74 -49 -30 -93 -55 -100 -55 -7 0 -32
-15 -56 -32 -61 -45 -85 -58 -109 -58 -23 0 -26 -22 -5 -40 8 -7 12 -17 8 -23
-3 -6 -1 -7 6 -3 6 4 19 2 28 -5 13 -11 17 -10 28 4 7 9 17 17 23 17 6 0 17 7
26 15 13 14 16 13 26 -5 9 -16 8 -20 -5 -20 -8 0 -15 -8 -15 -17 0 -15 10 -18
65 -18 61 0 78 6 56 19 -19 12 1 46 26 46 18 0 24 -4 19 -15 -4 -11 2 -15 24
-15 22 0 30 5 30 18 1 16 1 16 14 0 7 -10 18 -18 24 -18 5 0 13 -7 16 -16 11
-28 28 -2 24 37 -3 32 0 39 14 39 10 0 18 -7 18 -16 0 -14 9 -15 60 -9 38 4
60 3 60 -3 0 -5 6 -12 14 -15 12 -5 14 3 13 36 -2 31 2 42 13 42 9 0 14 -7 12
-18 -3 -18 2 -21 51 -32 22 -4 28 -11 25 -28 -1 -12 1 -28 5 -35 5 -6 15 -24
23 -40 8 -15 14 -20 14 -11 0 17 35 53 60 62 8 3 -4 6 -27 6 -34 1 -43 5 -43
19 0 9 9 23 21 30 12 8 18 19 15 28 -4 9 1 14 14 14 11 0 20 -5 20 -10 0 -6
11 -8 26 -4 14 4 35 2 47 -4 12 -6 30 -13 40 -16 25 -8 18 -42 -8 -38 -11 2
-26 11 -32 19 -7 9 -15 14 -18 11 -10 -10 7 -59 19 -55 12 4 30 -11 39 -33 4
-12 6 -11 6 3 1 11 9 17 26 17 18 0 25 5 25 19 0 11 -5 21 -12 23 -7 3 -9 12
-5 22 7 17 9 17 27 -4 24 -28 24 -30 4 -58 -20 -30 -15 -34 49 -42 56 -8 67
-2 67 39 0 20 2 21 15 11 8 -7 15 -19 15 -26 0 -9 13 -15 40 -15 22 -1 46 -2
52 -3 7 -1 14 8 16 19 6 33 20 40 41 21 14 -12 32 -17 62 -15 34 3 43 0 49
-16 4 -12 9 -15 13 -8 4 6 3 22 -2 35 -7 19 -5 27 10 37 25 15 16 31 -18 31
-18 0 -24 4 -20 14 4 11 1 13 -11 10 -13 -4 -12 -1 4 13 12 11 25 29 28 41 7
21 5 22 -34 16 -49 -8 -120 23 -141 62 -18 34 -6 40 29 14 31 -23 52 -20 52 6
0 11 -6 13 -19 9 -11 -3 -26 1 -35 11 -14 13 -19 14 -32 3 -13 -10 -22 -9 -50
6 -19 10 -34 24 -34 32 0 8 -13 22 -30 31 -16 9 -30 25 -30 35 0 26 32 18 47
-12 6 -14 22 -30 36 -37 21 -12 23 -11 22 7 -1 10 -11 28 -23 39 -12 12 -22
26 -22 33 0 20 -59 95 -80 102 -10 3 -31 26 -47 50 -32 52 -45 54 -137 24z
m148 -104 c-5 -11 1 -15 20 -15 29 0 35 -14 10 -24 -34 -13 -54 -7 -54 17 0
24 7 37 21 37 5 0 6 -7 3 -15z m356 -341 c0 -2 -9 -4 -21 -4 -11 0 -18 4 -14
10 5 8 35 3 35 -6z m-230 -101 c0 -25 -15 -12 -17 14 -1 19 1 22 8 12 5 -8 9
-20 9 -26z"/>
<path d="M8610 2790 c-9 -16 -8 -22 5 -26 21 -8 39 10 32 30 -9 22 -24 20 -37
-4z"/>
<path d="M3770 2771 c0 -5 5 -13 10 -16 6 -3 10 -2 10 4 0 5 -4 13 -10 16 -5
3 -10 2 -10 -4z"/>
<path d="M8541 2761 c-6 -10 -7 -21 -4 -25 9 -8 33 14 33 30 0 20 -18 17 -29
-5z"/>
<path d="M8485 2760 c-4 -6 -18 -10 -33 -10 -15 0 -38 -9 -52 -20 -14 -11 -35
-20 -47 -20 -13 0 -40 -17 -62 -39 -22 -22 -60 -48 -85 -60 -54 -23 -62 -46
-13 -36 l32 6 -27 -16 c-40 -23 -35 -37 10 -29 20 3 46 16 57 29 11 13 37 27
59 31 21 4 57 17 80 30 23 13 48 24 57 24 45 0 84 98 44 113 -8 4 -17 2 -20
-3z m-195 -145 c-7 -8 -16 -12 -21 -9 -13 8 -1 24 18 24 13 0 13 -3 3 -15z"/>
<path d="M8660 2725 c-25 -15 -25 -15 14 -13 22 2 41 9 44 16 5 16 -27 15 -58
-3z"/>
<path d="M8731 2687 c-14 -18 -4 -27 29 -27 35 0 44 10 22 26 -22 17 -37 17
-51 1z"/>
<path d="M5195 2639 c-4 -6 -5 -12 -2 -15 2 -3 7 2 10 11 7 17 1 20 -8 4z"/>
<path d="M8440 2610 c-9 -6 -10 -10 -3 -10 6 0 15 5 18 10 8 12 4 12 -15 0z"/>
<path d="M8668 2613 c6 -2 18 -2 25 0 6 3 1 5 -13 5 -14 0 -19 -2 -12 -5z"/>
<path d="M8763 2593 c-27 -5 -29 -16 -8 -33 8 -6 28 -32 44 -56 l29 -45 -1 68
c-2 73 -7 78 -64 66z"/>
<path d="M8630 2554 c0 -3 14 -22 30 -41 17 -18 30 -40 30 -48 0 -19 35 -28
60 -15 21 11 27 30 10 30 -5 0 -18 8 -28 18 -23 21 -102 65 -102 56z"/>
<path d="M5588 2518 c7 -29 19 -37 43 -31 25 7 24 29 0 43 -33 17 -50 13 -43
-12z"/>
<path d="M5510 2520 c-9 -6 -10 -10 -3 -10 6 0 15 5 18 10 8 12 4 12 -15 0z"/>
<path d="M8540 2499 c0 -7 -10 -9 -25 -5 -24 6 -24 5 -13 -21 21 -49 28 -54
67 -47 44 8 71 21 71 34 0 14 -61 50 -82 50 -10 0 -18 -5 -18 -11z"/>
<path d="M3910 2458 c0 -7 5 -20 10 -28 8 -12 10 -11 10 7 0 12 -4 25 -10 28
-5 3 -10 0 -10 -7z"/>
<path d="M8420 2425 c-28 -30 -22 -39 19 -30 39 8 45 18 22 39 -16 15 -19 14
-41 -9z"/>
<path d="M8733 2433 c-12 -2 -26 -10 -32 -17 -8 -9 -26 -12 -56 -8 -53 5 -101
-12 -108 -39 -5 -17 -8 -18 -25 -8 -31 20 -104 0 -108 -28 -2 -13 1 -23 8 -23
11 0 80 19 174 47 28 8 93 16 145 17 91 1 94 2 97 25 6 37 -25 48 -95 34z"/>
<path d="M5401 2410 c-9 -5 -8 -9 6 -12 10 -3 26 -9 36 -13 9 -4 17 -3 17 2 0
15 -45 32 -59 23z"/>
<path d="M8233 2388 c-44 -31 -42 -43 2 -17 19 12 35 25 35 30 0 12 -1 12 -37
-13z"/>
<path d="M5440 2321 c0 -12 6 -21 15 -21 8 0 15 4 15 9 0 5 -7 14 -15 21 -13
10 -15 9 -15 -9z"/>
<path d="M4525 2301 c15 -30 47 -47 65 -36 18 11 11 23 -20 34 -16 5 -30 15
-30 20 0 6 -7 11 -15 11 -14 0 -14 -3 0 -29z"/>
<path d="M5496 2321 c-3 -5 1 -11 9 -15 9 -3 15 0 15 9 0 16 -16 20 -24 6z"/>
<path d="M8150 2327 c0 -21 22 -57 35 -57 22 0 19 13 -10 40 -14 13 -25 21
-25 17z"/>
<path d="M8356 2314 c-8 -21 -3 -26 18 -18 9 4 15 11 13 17 -6 18 -24 19 -31
1z"/>
<path d="M4615 2300 c-3 -5 1 -10 9 -10 9 0 16 5 16 10 0 6 -4 10 -9 10 -6 0
-13 -4 -16 -10z"/>
<path d="M4340 2280 c0 -5 7 -10 15 -10 8 0 15 5 15 10 0 6 -7 10 -15 10 -8 0
-15 -4 -15 -10z"/>
<path d="M4750 2270 c0 -11 4 -20 9 -20 11 0 22 26 14 34 -12 12 -23 5 -23
-14z"/>
<path d="M4380 2246 c0 -18 35 -22 45 -6 3 6 2 10 -4 10 -5 0 -16 3 -25 6 -11
4 -16 1 -16 -10z"/>
<path d="M8195 2233 c-20 -28 -37 -63 -30 -63 2 0 17 20 34 45 32 48 29 62 -4
18z"/>
<path d="M4550 2239 c0 -7 9 -9 21 -6 15 4 23 0 26 -14 3 -10 10 -19 15 -19 6
0 7 7 4 16 -3 9 -6 20 -6 25 0 5 -13 9 -30 9 -16 0 -30 -5 -30 -11z"/>
<path d="M5025 2230 c-3 -5 -1 -10 4 -10 6 0 11 5 11 10 0 6 -2 10 -4 10 -3 0
-8 -4 -11 -10z"/>
<path d="M4498 2213 c7 -3 16 -2 19 1 4 3 -2 6 -13 5 -11 0 -14 -3 -6 -6z"/>
<path d="M5078 2193 c7 -3 16 -2 19 1 4 3 -2 6 -13 5 -11 0 -14 -3 -6 -6z"/>
<path d="M8175 2129 c-4 -6 -5 -12 -2 -15 2 -3 7 2 10 11 7 17 1 20 -8 4z"/>
<path d="M5810 2055 c-2 -22 -3 -144 -4 -271 -1 -177 -4 -235 -15 -247 -11
-14 -11 -29 0 -89 7 -40 12 -84 12 -98 -1 -29 15 -53 32 -46 10 3 11 -16 7
-81 -4 -68 -2 -84 8 -78 7 4 16 2 21 -6 12 -20 11 81 -1 156 -6 33 -13 157
-16 275 -3 118 -10 233 -16 255 -5 22 -14 92 -18 155 -4 63 -8 97 -10 75z"/>
<path d="M8142 2050 c-16 -26 -16 -73 0 -68 14 5 30 70 20 80 -4 4 -13 -1 -20
-12z"/>
<path d="M5734 1528 c3 -13 6 -37 6 -54 0 -18 5 -31 13 -31 9 0 12 11 9 31 -6
56 -12 76 -23 76 -7 0 -9 -9 -5 -22z"/>
<path d="M5758 1363 c7 -3 16 -2 19 1 4 3 -2 6 -13 5 -11 0 -14 -3 -6 -6z"/>
<path d="M5751 1324 c0 -11 3 -14 6 -6 3 7 2 16 -1 19 -3 4 -6 -2 -5 -13z"/>
<path d="M5781 1214 c0 -11 3 -14 6 -6 3 7 2 16 -1 19 -3 4 -6 -2 -5 -13z"/>
<path d="M5810 1060 c0 -5 5 -10 10 -10 6 0 10 -9 10 -21 0 -11 -4 -17 -10
-14 -5 3 -10 2 -10 -3 0 -6 7 -12 15 -16 8 -3 15 -13 15 -22 0 -22 24 -12 27
12 3 18 2 18 -6 -1 -8 -16 -10 -12 -10 22 -1 24 4 44 12 47 6 3 2 3 -10 0 -13
-3 -23 -1 -23 5 0 6 -4 11 -10 11 -5 0 -10 -4 -10 -10z"/>
<path d="M5820 840 c0 -5 5 -10 10 -10 6 0 10 5 10 10 0 6 -4 10 -10 10 -5 0
-10 -4 -10 -10z"/>
<path d="M5835 770 c3 -5 8 -10 11 -10 2 0 4 5 4 10 0 6 -5 10 -11 10 -5 0 -7
-4 -4 -10z"/>
<path d="M10265 5650 c3 -5 8 -10 11 -10 2 0 4 5 4 10 0 6 -5 10 -11 10 -5 0
-7 -4 -4 -10z"/>
<path d="M10200 4971 c-25 -7 -42 -41 -20 -41 21 0 71 31 65 40 -7 11 -9 11
-45 1z"/>
<path d="M10035 4950 c-3 -5 -2 -10 4 -10 5 0 13 5 16 10 3 6 2 10 -4 10 -5 0
-13 -4 -16 -10z"/>
</g>
</svg>
